if (_typeface_js && _typeface_js.loadFace) _typeface_js.loadFace({"glyphs":{"0":{"ha":773,"x_min":19,"x_max":773,"o":"m 669 857 q 739 781 705 835 q 773 661 773 727 q 718 415 773 539 q 574 191 662 292 q 393 31 486 90 q 231 -28 300 -28 q 139 2 188 -28 q 54 94 89 32 q 19 244 19 155 q 86 490 19 375 q 254 691 153 606 q 459 824 355 777 q 631 872 563 872 q 669 857 646 872 m 522 674 l 504 686 q 326 569 410 649 q 193 387 243 488 q 143 190 143 286 q 156 117 143 158 q 211 76 168 76 q 350 142 270 76 q 507 309 431 208 q 633 514 584 410 q 682 688 682 618 q 645 729 682 729 q 585 711 622 729 q 522 674 547 694 z "},"1":{"ha":543,"x_min":19,"x_max":524,"o":"m 185 707 l 185 755 q 340 844 229 785 q 469 904 450 904 q 508 876 493 904 q 524 824 524 848 q 407 602 524 788 q 284 397 333 483 q 207 245 236 311 q 166 132 178 179 q 154 43 154 85 q 157 0 154 28 q 19 144 19 14 q 27 199 19 163 q 61 298 35 235 q 146 455 87 360 q 300 667 206 550 q 353 747 353 731 q 335 758 353 758 q 246 730 317 758 q 185 707 234 726 z "},"2":{"ha":864,"x_min":0,"x_max":786,"o":"m 397 581 q 254 560 321 581 q 188 551 224 551 q 167 563 176 551 q 158 593 158 574 q 186 699 158 634 q 245 789 210 754 q 382 857 280 824 q 621 901 519 901 q 709 891 676 901 q 764 836 742 881 q 786 694 786 790 q 754 586 786 635 q 667 496 721 537 q 531 412 612 455 q 396 340 450 369 q 226 250 275 277 q 151 201 177 223 q 124 161 124 179 q 132 143 124 146 q 157 139 140 139 q 356 161 274 149 q 479 183 439 173 q 558 203 519 192 q 607 214 597 214 q 617 203 614 214 l 617 193 q 495 32 595 77 q 244 -13 396 -13 q 104 0 155 -13 q 26 48 53 12 q 0 154 0 84 q 30 228 0 183 q 148 338 60 273 q 390 480 235 404 q 481 525 422 496 q 590 585 540 554 q 674 649 640 615 q 707 714 707 683 q 650 751 707 751 q 530 736 607 751 q 385 696 454 722 q 292 640 317 671 q 397 581 377 620 z "},"3":{"ha":883,"x_min":-78,"x_max":825,"o":"m 372 711 q 225 699 300 703 q 185 722 200 706 q 170 754 170 739 q 218 838 170 799 q 365 902 266 878 q 608 926 465 926 q 750 902 703 926 q 811 840 798 877 q 825 753 825 803 q 793 645 825 687 q 683 576 761 604 q 461 529 605 549 q 423 525 450 528 q 381 518 396 523 q 367 504 367 513 q 393 490 367 490 q 522 469 460 490 q 621 407 583 447 q 659 318 659 368 q 621 200 659 260 q 513 91 583 141 q 350 12 444 41 q 151 -17 257 -17 q 34 -3 86 -17 q -48 33 -18 11 q -78 76 -78 54 q -65 127 -78 98 q -27 183 -53 156 q 38 225 -2 210 q 199 140 47 140 q 383 171 299 140 q 515 246 467 201 q 563 328 563 291 q 523 388 563 356 q 367 421 483 421 q 306 419 322 421 q 279 413 291 417 q 247 407 267 409 q 172 406 226 406 q 151 411 155 406 q 146 439 146 417 q 171 530 146 501 q 225 566 195 559 q 333 583 255 573 q 570 632 478 603 q 701 693 661 661 q 742 753 742 725 q 688 800 742 790 q 554 810 635 810 q 378 791 435 810 q 321 749 321 772 q 343 730 321 742 q 372 711 360 722 z "},"4":{"ha":829,"x_min":0,"x_max":771,"o":"m 532 417 l 665 429 q 669 430 666 429 q 674 431 671 431 l 682 431 q 694 422 694 428 q 664 359 694 407 q 608 288 633 312 q 463 264 571 278 q 445 165 445 206 q 460 92 445 127 q 395 30 431 59 q 337 0 360 0 q 309 31 321 0 q 296 117 296 61 q 321 251 296 180 q 223 249 288 251 q 196 247 213 248 q 167 246 179 247 q 89 244 117 246 q 43 250 57 244 q 18 280 29 256 q 0 360 8 303 l 0 394 q 83 536 9 453 q 270 702 158 618 q 497 846 383 786 q 736 939 669 939 q 753 933 749 939 q 757 910 757 927 q 755 897 756 905 q 751 883 754 888 q 742 871 749 877 q 771 803 771 845 q 760 762 771 780 q 703 682 749 745 q 612 554 649 608 q 532 417 575 499 m 371 404 q 500 593 440 516 q 617 735 561 670 q 721 857 659 780 q 385 671 581 824 q 299 596 360 652 q 191 487 239 540 q 143 415 143 434 q 180 396 143 396 q 198 396 191 396 q 209 397 205 397 q 231 399 212 397 l 371 404 z "},"5":{"ha":771,"x_min":-58,"x_max":771,"o":"m 657 750 l 356 750 q 274 671 310 719 q 236 583 238 623 q 443 610 352 610 q 636 406 636 610 q 581 240 636 319 q 436 103 525 162 q 245 12 347 45 q 57 -21 144 -21 q -31 6 -4 -21 q -58 103 -58 32 q -19 175 -58 141 q 72 229 21 209 q 149 250 123 250 q 162 236 162 250 q 131 219 162 233 q 90 201 113 213 q 68 178 68 188 q 107 153 68 159 l 144 153 q 329 210 232 162 q 494 320 427 258 q 560 428 560 382 q 532 469 560 451 q 436 488 504 488 q 260 458 341 488 q 182 440 210 440 q 154 450 163 440 q 138 494 146 460 l 115 585 q 226 759 150 675 q 383 907 303 843 q 535 904 515 904 q 771 921 671 904 q 657 750 748 836 z "},"6":{"ha":744,"x_min":19,"x_max":706,"o":"m 706 887 q 536 784 620 842 q 379 654 452 726 q 267 506 306 581 q 367 563 307 536 q 469 589 427 589 q 529 564 499 589 q 579 501 559 539 q 598 425 598 463 q 565 311 598 382 q 475 166 531 239 q 355 47 419 94 q 233 0 291 0 q 139 37 190 0 q 54 133 88 73 q 19 256 19 192 q 74 462 19 349 q 256 699 129 575 q 327 763 283 726 q 420 832 372 800 q 518 886 469 865 q 604 907 566 907 q 706 887 666 907 m 175 304 q 161 221 161 265 q 172 149 161 179 q 203 119 183 119 q 385 254 277 119 q 483 468 483 377 q 473 502 483 492 q 437 512 462 512 q 350 477 405 512 q 244 391 295 442 q 175 304 193 340 z "},"7":{"ha":686,"x_min":78,"x_max":744,"o":"m 744 786 q 697 740 714 755 q 436 447 526 584 q 336 275 387 374 q 285 131 285 176 q 313 62 285 74 q 214 -7 280 30 q 124 -44 148 -44 q 93 -23 108 -44 q 78 28 78 -2 q 141 217 78 112 q 311 442 204 321 q 485 639 417 563 q 563 746 553 715 l 563 760 q 493 772 558 772 q 158 700 266 772 q 110 681 132 681 q 97 704 97 681 q 144 829 97 782 q 268 896 191 875 q 429 923 345 918 q 631 928 514 928 q 695 920 672 928 q 731 881 719 911 q 744 786 744 850 z "},"8":{"ha":736,"x_min":19,"x_max":814,"o":"m 275 476 q 165 717 165 615 q 183 801 165 755 q 255 894 201 847 q 417 974 309 942 q 693 1006 525 1006 q 781 999 748 1006 q 814 969 814 993 q 799 916 814 950 q 760 855 785 882 q 703 825 735 829 q 706 806 706 811 q 651 720 706 768 q 478 550 518 596 q 455 527 467 539 q 431 503 443 515 q 476 419 458 458 q 493 325 493 380 q 447 146 493 220 q 331 36 400 73 q 196 0 262 0 q 71 39 122 0 q 19 128 19 78 q 44 212 19 164 q 125 324 69 259 q 275 476 181 388 m 379 563 q 429 610 398 579 q 517 688 451 632 q 646 807 646 796 q 612 826 646 818 q 519 833 578 833 q 398 815 445 833 q 330 770 350 797 q 310 720 310 744 q 379 563 310 642 m 317 388 q 197 263 266 345 q 128 146 128 182 q 188 104 128 104 q 271 134 233 104 q 332 208 310 163 q 354 294 354 252 q 317 388 354 344 z "},"9":{"ha":704,"x_min":39,"x_max":704,"o":"m 500 511 q 324 379 385 420 q 217 339 264 339 q 139 375 180 339 q 68 463 97 411 q 39 555 39 514 q 138 733 39 635 q 368 903 237 832 q 578 974 499 974 q 649 938 614 974 q 704 857 683 902 q 636 750 704 807 q 598 722 623 739 q 565 706 574 706 q 558 711 558 706 q 583 742 558 716 q 624 806 624 782 q 597 812 624 812 q 396 733 533 812 q 294 664 344 704 q 209 577 243 625 q 175 482 175 529 q 188 447 175 455 q 233 439 201 439 q 460 554 308 439 q 508 591 479 570 q 546 620 536 612 l 620 682 q 654 693 632 693 q 679 689 663 693 q 694 676 694 684 q 696 661 694 668 q 697 653 697 653 q 689 635 697 647 l 276 64 q 200 1 257 38 q 143 -25 159 -25 q 125 -10 125 -25 q 148 64 125 14 q 196 119 172 113 q 239 151 224 125 q 245 162 243 159 q 248 166 247 165 q 251 170 250 168 l 500 511 z "},"­":{"ha":1042,"x_min":174,"x_max":868,"o":"m 174 0 l 174 868 l 868 868 l 868 0 l 174 0 m 846 22 l 846 846 l 196 846 l 196 22 l 846 22 z "}," ":{"ha":488,"x_min":0,"x_max":0,"o":""},"!":{"ha":611,"x_min":78,"x_max":625,"o":"m 474 842 q 547 885 510 885 q 596 867 567 885 q 625 833 625 850 q 615 806 625 822 q 567 743 605 791 q 262 271 302 401 q 221 218 248 218 q 175 243 199 218 q 151 304 151 268 q 188 419 151 346 q 279 576 224 492 q 388 732 334 660 q 474 842 441 804 m 156 -33 q 106 -13 134 -33 q 78 28 78 8 q 100 97 78 51 q 144 143 123 143 q 192 122 166 143 q 218 79 218 101 q 194 11 218 55 q 156 -33 170 -33 z "},"\"":{"ha":486,"x_min":136,"x_max":642,"o":"m 136 689 l 154 877 q 297 1060 175 1060 q 345 1046 327 1060 q 362 1006 362 1031 q 314 877 362 961 l 204 689 l 136 689 m 414 689 l 432 877 q 484 1021 443 982 q 575 1060 525 1060 q 624 1044 607 1060 q 642 1006 642 1028 q 593 877 642 960 l 482 689 l 414 689 z "},"#":{"ha":972,"x_min":208,"x_max":967,"o":"m 682 46 l 597 46 l 639 278 l 450 278 l 408 46 l 325 46 l 365 278 l 208 278 l 229 394 l 386 394 l 431 643 l 274 643 l 294 760 l 451 760 l 493 992 l 578 992 l 536 760 l 725 760 l 765 992 l 850 992 l 808 760 l 967 760 l 946 643 l 787 643 l 743 394 l 901 394 l 881 278 l 722 278 l 682 46 m 660 394 l 704 643 l 515 643 l 471 394 l 660 394 z "},"$":{"ha":1174,"x_min":156,"x_max":1057,"o":"m 968 1001 l 920 900 q 991 887 960 900 q 1040 855 1022 874 q 1057 818 1057 836 q 1043 775 1057 802 q 1004 726 1028 748 q 950 700 979 704 q 887 694 917 694 q 897 715 897 706 q 844 740 897 740 l 777 597 q 863 540 824 581 q 901 431 901 498 q 857 317 901 373 q 736 216 813 260 q 567 151 660 172 l 488 -15 q 441 -5 459 -15 q 424 21 424 6 q 471 146 424 59 q 371 153 392 146 l 297 0 q 233 39 233 0 q 285 165 233 61 q 179 204 201 176 q 156 274 156 231 q 189 347 156 304 q 243 390 222 390 q 278 376 256 390 q 317 354 300 362 q 370 343 334 347 l 451 517 q 358 544 404 520 q 313 624 313 568 q 324 689 313 654 q 367 763 335 724 q 464 837 399 802 q 631 892 530 871 q 646 928 633 896 q 669 976 659 960 q 692 1001 678 991 q 724 1010 705 1010 q 773 1001 751 1010 l 728 906 q 832 910 782 908 q 848 945 832 911 q 870 989 863 979 q 888 1002 878 998 q 915 1006 898 1006 q 968 1001 949 1006 m 693 617 l 755 749 q 653 746 689 749 l 596 626 q 693 617 660 621 m 507 635 l 555 736 q 451 706 478 727 q 425 668 425 685 q 449 645 425 655 q 507 635 473 635 m 539 510 l 457 333 q 557 329 509 329 l 639 502 q 539 510 585 504 m 726 489 l 653 335 q 777 424 777 372 q 762 469 777 449 q 726 489 748 489 z "},"%":{"ha":1219,"x_min":117,"x_max":1103,"o":"m 550 946 q 586 904 577 933 l 586 865 q 511 701 573 786 q 506 688 506 693 q 514 670 506 677 q 537 663 523 663 q 569 673 553 663 q 600 683 585 683 q 615 672 615 683 q 562 626 615 648 q 440 604 509 604 q 355 545 405 569 q 250 521 305 521 q 150 586 182 521 q 117 732 117 652 q 181 868 117 799 q 335 981 246 936 q 486 1026 424 1026 q 537 1010 514 1026 q 560 979 560 994 q 554 960 560 972 q 552 953 553 957 q 550 946 551 949 m 407 649 q 396 699 396 671 q 418 783 396 730 q 449 843 433 817 q 468 893 468 873 q 454 903 468 903 q 380 878 423 903 q 298 816 338 854 q 233 738 258 779 q 207 668 207 697 q 271 603 207 603 q 330 613 300 603 q 407 649 359 623 m 1038 168 q 1075 87 1075 151 q 999 -76 1075 25 q 993 -90 993 -82 q 1004 -108 993 -100 q 1026 -115 1014 -115 q 1063 -105 1043 -115 q 1087 -95 1083 -95 q 1103 -105 1103 -95 q 1079 -137 1103 -121 q 1015 -163 1055 -153 q 928 -174 975 -174 q 738 -258 845 -258 q 635 -189 666 -258 q 604 -46 604 -119 q 669 90 604 21 q 823 203 734 158 q 975 249 913 249 q 1026 231 1005 249 q 1047 201 1047 214 q 1042 182 1047 193 q 1039 174 1041 178 q 1038 168 1038 171 m 895 -129 q 883 -79 883 -103 q 928 48 883 -36 q 956 115 956 100 q 942 125 956 125 q 852 89 912 125 q 743 -1 791 53 q 696 -110 696 -55 q 758 -175 696 -175 q 895 -129 811 -175 m 1081 930 l 264 -194 q 250 -207 253 -207 q 236 -196 241 -207 l 215 -133 q 228 -103 215 -120 l 1042 1024 q 1058 1038 1053 1038 q 1069 1028 1064 1038 l 1095 963 q 1081 930 1095 948 z "},"&":{"ha":1001,"x_min":95,"x_max":904,"o":"m 565 533 q 635 323 583 425 q 739 401 704 370 q 838 500 775 433 q 857 447 857 474 q 827 350 857 405 q 750 244 798 295 q 711 200 733 228 q 761 158 730 158 q 781 164 770 158 q 803 168 793 168 q 808 162 805 168 l 808 147 q 781 91 803 128 q 734 27 759 55 q 692 0 709 0 q 638 34 671 0 q 586 99 606 68 q 497 32 537 59 q 409 -14 456 5 q 315 -32 362 -32 q 200 8 251 -32 q 122 106 149 48 q 95 211 95 163 q 143 343 95 282 q 257 449 191 405 q 404 536 323 494 q 401 585 401 569 q 464 782 401 700 q 612 904 527 864 q 761 944 697 944 q 826 928 794 944 q 879 885 857 911 q 904 828 900 858 l 904 801 q 850 706 897 751 q 751 630 803 660 q 632 567 699 600 q 593 547 606 553 q 565 533 581 542 m 551 637 q 663 714 596 662 q 735 777 697 740 q 781 838 773 814 q 785 857 785 846 q 781 872 785 866 q 749 889 771 889 q 671 860 715 889 q 593 774 627 831 q 551 637 558 716 m 426 443 q 275 321 332 385 q 218 214 218 258 q 272 167 218 167 q 500 236 372 167 q 454 336 474 280 q 426 443 434 393 z "},"'":{"ha":222,"x_min":136,"x_max":378,"o":"m 136 689 l 156 877 q 308 1060 176 1060 q 360 1044 342 1060 q 378 1006 378 1028 q 327 877 378 959 l 210 689 l 136 689 z "},"(":{"ha":643,"x_min":156,"x_max":693,"o":"m 267 -192 l 203 -229 q 164 -28 173 -132 q 156 208 156 76 q 203 514 156 365 q 320 779 250 663 q 457 963 390 895 q 558 1030 525 1030 q 629 1000 590 1030 q 693 929 668 970 q 571 803 632 880 q 459 640 509 726 q 375 475 408 553 q 262 -81 262 202 q 267 -192 262 -134 z "},")":{"ha":643,"x_min":19,"x_max":560,"o":"m 447 993 l 510 1024 q 557 782 548 911 q 560 688 560 751 q 557 593 560 625 q 496 286 545 437 q 381 19 447 135 q 253 -163 315 -96 q 154 -229 191 -229 q 86 -199 124 -229 q 19 -128 47 -170 q 339 327 222 52 q 451 885 451 585 q 447 993 451 939 z "},"*":{"ha":844,"x_min":208,"x_max":844,"o":"m 533 901 l 643 1068 q 649 1077 646 1073 q 656 1084 651 1081 q 668 1089 661 1087 l 678 1089 q 696 1082 689 1089 l 730 1054 q 739 1046 730 1054 l 739 1035 q 730 1018 738 1028 l 635 864 l 814 851 q 844 828 844 851 q 842 814 844 817 l 797 767 q 792 760 794 764 q 777 753 785 753 q 771 753 774 753 q 765 754 767 754 l 760 754 l 753 754 l 607 767 l 707 576 q 713 562 710 568 q 717 551 715 556 l 717 539 q 707 524 714 529 l 664 497 q 647 493 659 493 q 621 508 628 495 l 517 696 l 415 524 q 409 512 414 522 q 399 498 404 503 q 389 493 395 493 q 372 497 378 493 l 321 535 q 314 550 316 537 l 314 561 q 316 565 315 563 q 318 569 317 567 q 320 574 319 572 q 321 576 320 576 l 436 754 l 244 742 q 235 741 242 742 q 225 740 228 740 q 208 744 208 740 q 209 747 208 745 q 210 751 210 749 l 210 754 l 244 836 q 253 847 248 845 q 283 851 258 849 l 426 864 l 346 1018 q 342 1025 346 1018 q 337 1040 337 1031 q 346 1061 337 1055 l 399 1095 q 410 1097 404 1097 q 436 1082 427 1097 l 533 901 z "},"+":{"ha":1069,"x_min":97,"x_max":953,"o":"m 564 0 l 486 0 l 486 389 l 97 389 l 97 467 l 486 467 l 486 856 l 564 856 l 564 467 l 953 467 l 953 389 l 564 389 l 564 0 z "},",":{"ha":328,"x_min":76,"x_max":231,"o":"m 87 39 q 105 95 87 63 q 148 152 122 128 q 197 176 174 176 q 225 163 219 176 q 231 115 231 149 q 144 -58 231 67 q 86 -118 104 -118 q 76 -110 76 -118 q 85 -92 76 -103 q 115 -28 115 -56 q 101 7 115 -11 q 87 39 87 26 z "},"-":{"ha":820,"x_min":175,"x_max":625,"o":"m 553 208 l 197 208 q 175 221 175 208 q 179 233 175 227 l 215 292 q 247 303 222 303 l 603 303 q 625 288 625 303 q 622 278 625 280 l 585 218 q 553 208 579 208 z "},".":{"ha":343,"x_min":97,"x_max":246,"o":"m 97 25 q 116 85 97 48 q 161 151 134 123 q 211 179 188 179 q 246 128 246 179 q 228 67 246 102 q 183 7 210 32 q 132 -18 156 -18 q 109 -8 120 -18 q 97 25 97 2 z "},"/":{"ha":1114,"x_min":117,"x_max":996,"o":"m 983 899 l 167 -227 q 151 -239 157 -239 q 138 -229 143 -239 l 117 -167 q 131 -135 117 -155 l 943 990 q 960 1004 952 1002 l 965 1004 q 972 996 971 999 l 996 929 q 983 899 996 918 z "},":":{"ha":406,"x_min":78,"x_max":328,"o":"m 179 394 q 199 458 179 420 q 245 522 218 495 q 293 549 272 549 q 328 497 328 549 q 309 433 328 468 q 263 375 290 398 q 214 351 236 351 q 190 362 201 351 q 179 394 179 373 m 78 25 q 96 84 78 46 q 142 151 115 122 q 193 179 170 179 q 228 128 228 179 q 210 67 228 102 q 164 7 191 32 q 114 -18 137 -18 q 89 -6 100 -18 q 78 25 78 6 z "},";":{"ha":404,"x_min":78,"x_max":327,"o":"m 178 394 q 197 458 178 420 q 244 522 217 495 q 292 549 271 549 q 327 497 327 549 q 308 433 327 468 q 262 375 289 398 q 213 351 234 351 q 189 362 200 351 q 178 394 178 373 m 89 39 q 107 96 89 63 q 151 153 125 129 q 199 176 177 176 q 226 163 220 176 q 232 115 232 149 q 146 -58 232 67 q 87 -118 105 -118 q 78 -110 78 -118 q 86 -92 78 -103 q 117 -28 117 -56 q 103 7 117 -11 q 89 39 89 26 z "},"<":{"ha":1007,"x_min":97,"x_max":890,"o":"m 97 428 l 849 903 l 890 838 l 251 428 l 889 18 l 849 -48 l 97 428 z "},"=":{"ha":1108,"x_min":97,"x_max":992,"o":"m 97 282 l 97 360 l 992 360 l 992 282 l 97 282 m 97 496 l 97 574 l 992 574 l 992 496 l 97 496 z "},">":{"ha":1007,"x_min":117,"x_max":910,"o":"m 910 428 l 158 -48 l 118 18 l 757 428 l 117 838 l 158 903 l 910 428 z "},"?":{"ha":590,"x_min":139,"x_max":688,"o":"m 688 829 q 671 731 688 774 q 630 656 654 687 q 560 574 607 626 q 424 425 459 461 q 352 347 375 376 q 321 299 328 318 q 314 256 314 281 q 289 218 314 218 q 238 258 262 218 q 214 332 214 297 q 238 395 214 361 q 302 464 262 428 q 393 538 342 499 q 514 631 443 576 q 568 673 548 657 q 601 702 589 688 q 612 730 612 716 q 598 768 612 747 q 552 802 584 788 q 474 817 521 817 q 297 775 297 817 q 315 753 297 760 q 343 735 343 742 q 327 726 343 726 q 278 731 323 727 q 209 745 232 735 q 186 777 186 754 q 243 898 186 838 q 472 958 299 958 q 688 829 688 958 m 215 -33 q 166 -13 194 -33 q 139 28 139 8 q 161 97 139 51 q 205 143 184 143 q 253 122 228 143 q 278 79 278 101 q 266 36 278 64 q 240 -12 254 9 q 215 -33 225 -33 z "},"@":{"ha":1203,"x_min":139,"x_max":1183,"o":"m 989 814 l 873 414 q 865 361 865 382 q 882 313 865 328 q 921 297 898 297 q 1008 331 963 297 q 1084 434 1054 366 q 1115 598 1115 503 q 1062 797 1115 708 q 912 937 1009 886 q 689 987 814 987 q 490 948 578 987 q 343 839 403 908 q 254 682 284 770 q 223 502 223 595 q 253 336 223 415 q 339 196 282 258 q 478 101 397 135 q 659 67 560 67 q 930 117 808 67 l 949 53 q 659 -1 825 -1 q 390 65 509 -1 q 205 247 271 131 q 139 502 139 362 q 175 700 139 601 q 281 879 211 799 q 454 1008 351 960 q 688 1056 557 1056 q 893 1021 800 1056 q 1050 926 985 987 q 1149 780 1115 864 q 1183 600 1183 697 q 1150 419 1183 504 q 1054 283 1117 335 q 907 232 991 232 q 775 273 818 232 q 721 370 732 313 l 715 370 q 510 249 614 249 q 419 277 459 249 q 359 354 380 304 q 337 465 337 403 q 365 587 337 524 q 439 706 392 651 q 550 793 487 760 q 681 826 612 826 q 817 771 767 826 l 821 771 l 832 814 l 989 814 m 575 357 q 660 399 611 357 q 745 513 710 440 q 781 671 781 585 q 766 745 781 720 q 715 769 752 769 q 614 719 663 769 q 534 596 565 669 q 504 464 504 523 q 526 383 504 409 q 575 357 547 357 z "},"A":{"ha":982,"x_min":-105,"x_max":1071,"o":"m 347 496 l 421 503 q 555 643 478 569 q 720 793 631 717 q 892 931 809 870 q 1035 1021 976 992 q 1071 951 1071 1000 q 1062 901 1071 917 l 878 539 l 964 549 q 991 546 986 549 q 997 532 997 543 q 983 486 997 513 q 975 465 980 476 q 967 442 970 453 q 944 380 950 392 q 906 360 937 368 q 799 351 875 352 q 725 207 739 236 q 711 160 711 177 q 735 136 711 136 q 808 175 763 136 q 835 199 817 183 q 857 219 853 216 q 865 222 862 222 q 879 214 879 222 q 831 149 879 200 q 757 74 783 97 q 685 16 709 31 q 625 0 661 0 q 545 48 559 0 q 540 75 540 61 q 545 111 540 95 q 590 227 553 161 l 659 351 l 371 349 l 62 22 q -6 -29 47 6 q -85 -71 -59 -64 l -101 -71 q -105 -61 -105 -67 q -77 9 -105 -37 q -21 87 -48 55 q 47 158 21 137 l 107 158 l 279 343 l 167 331 q 152 329 162 330 q 136 327 143 327 q 118 327 130 327 q 86 350 86 327 q 135 431 86 362 q 178 485 161 468 q 234 515 195 502 q 345 531 272 527 l 347 496 m 733 529 l 917 879 q 778 772 850 831 q 635 644 707 712 q 510 508 564 575 l 733 529 z "},"B":{"ha":1021,"x_min":147,"x_max":1129,"o":"m 431 782 l 431 742 l 207 678 q 170 671 182 671 q 147 694 147 671 q 178 772 147 727 q 255 859 208 817 q 346 921 301 900 q 460 961 397 945 q 593 987 524 977 q 727 1001 662 997 q 854 1006 791 1006 q 1022 973 961 1006 q 1106 896 1083 940 q 1129 814 1129 852 q 990 631 1129 692 q 661 535 850 570 q 578 519 622 527 q 502 504 534 511 l 502 497 q 711 445 625 470 q 865 375 797 420 q 933 270 933 331 q 883 175 933 223 q 750 87 832 127 q 581 22 669 46 q 426 -3 492 -3 q 278 25 336 -3 q 193 93 219 53 q 167 168 167 132 q 351 461 167 253 q 257 480 287 471 q 228 515 228 489 q 306 560 228 556 q 451 575 371 564 q 590 703 541 663 q 663 751 639 742 q 720 761 686 759 q 757 765 729 762 q 689 700 715 723 q 567 575 630 647 q 919 661 818 607 q 1021 769 1021 715 q 881 868 1021 868 q 730 856 824 868 q 553 824 636 844 q 431 782 469 805 m 451 443 q 382 341 416 402 q 349 236 349 280 q 385 179 349 205 q 480 153 422 153 q 611 175 535 153 q 740 229 686 196 q 794 294 794 262 q 735 361 794 332 q 605 409 676 391 q 451 443 534 427 z "},"C":{"ha":858,"x_min":11,"x_max":947,"o":"m 607 569 q 629 564 616 564 q 717 614 669 564 q 800 734 766 664 q 833 858 833 804 q 834 871 833 861 q 835 887 835 882 q 810 926 835 926 q 649 843 751 926 q 441 627 547 759 q 267 355 336 495 q 197 105 197 214 q 228 -33 197 26 q 358 -92 258 -92 q 536 -39 445 -92 q 701 80 628 13 q 833 214 773 146 q 879 251 867 251 q 893 236 893 251 q 827 132 893 210 q 659 -33 760 54 q 450 -179 559 -119 q 254 -239 341 -239 q 137 -209 193 -239 q 46 -119 81 -179 q 11 25 11 -59 q 52 254 11 122 q 225 561 93 386 q 339 696 268 619 q 493 845 410 772 q 660 966 576 918 q 810 1014 744 1014 q 873 997 841 1014 q 926 952 906 980 q 947 893 947 924 q 931 782 947 844 q 872 642 914 720 q 758 478 830 564 q 669 387 726 439 q 558 300 613 336 q 474 264 503 264 q 442 285 457 264 q 421 331 428 306 q 505 466 454 401 q 607 569 556 531 z "},"D":{"ha":1114,"x_min":167,"x_max":1183,"o":"m 663 821 l 675 730 q 531 536 594 624 q 431 389 468 448 q 380 291 395 330 q 364 227 364 252 q 391 167 364 179 q 463 154 418 154 q 657 188 546 154 q 872 283 769 221 q 1043 435 976 346 q 1110 631 1110 524 q 1081 725 1110 684 q 967 794 1052 767 q 732 821 883 821 q 559 808 642 821 q 426 776 477 794 q 375 743 375 757 q 435 714 375 731 q 228 653 311 671 q 204 650 218 653 q 188 653 193 650 q 167 701 167 664 q 191 845 167 796 q 278 924 216 895 q 471 985 339 954 q 518 996 494 989 q 764 1021 626 1021 q 957 995 864 1021 q 1117 891 1050 968 q 1183 675 1183 814 q 1103 409 1183 534 q 893 192 1023 283 q 617 50 764 100 q 343 0 470 0 q 264 26 295 0 q 233 129 233 52 q 247 196 233 155 q 303 312 260 236 q 426 506 346 388 q 551 674 481 587 q 663 821 615 752 z "},"E":{"ha":953,"x_min":31,"x_max":1042,"o":"m 597 463 l 597 474 q 479 483 547 479 q 348 496 404 486 q 250 541 293 506 q 208 646 208 576 q 255 770 208 707 q 387 884 302 832 q 588 966 472 935 q 833 997 704 997 q 966 986 922 997 q 1042 946 1010 975 l 1042 838 q 1017 813 1035 823 q 943 779 1000 803 q 828 720 876 751 q 804 706 814 711 q 779 692 793 700 q 853 787 793 747 q 749 807 806 807 q 553 778 645 807 q 406 705 461 750 q 351 617 351 660 q 635 539 351 539 q 732 543 648 539 l 803 543 q 838 529 824 541 q 853 503 852 518 q 844 480 853 491 l 794 417 q 740 404 787 406 q 517 367 621 399 q 340 291 414 336 q 224 196 265 245 q 183 108 183 147 q 238 63 183 80 q 339 46 292 46 q 480 61 408 46 q 622 104 553 77 q 760 168 690 131 q 897 250 829 205 q 854 95 889 151 q 749 -3 819 39 q 593 -76 673 -48 q 448 -113 513 -103 q 337 -124 383 -124 q 167 -108 232 -124 q 66 -45 102 -92 q 31 93 31 2 q 60 176 31 130 q 145 269 89 223 q 287 358 201 316 q 479 428 373 400 q 597 463 561 448 z "},"F":{"ha":933,"x_min":70,"x_max":1347,"o":"m 449 733 l 518 699 q 410 683 442 683 q 370 683 396 683 q 331 682 344 682 q 236 718 236 682 q 239 733 236 723 l 276 839 q 310 885 287 868 q 386 922 334 902 q 532 972 456 949 q 715 1011 608 995 q 954 1028 822 1028 q 994 1027 967 1028 q 1038 1026 1021 1026 q 1347 1036 1215 1026 q 1305 892 1335 940 q 1239 834 1275 845 q 1148 822 1203 822 q 1079 825 1126 822 q 996 826 1042 825 q 949 765 963 783 q 861 647 909 714 q 783 540 838 613 q 721 455 748 494 q 807 460 745 457 q 842 456 833 460 q 851 433 851 452 q 829 353 851 380 q 779 319 807 327 q 712 308 750 311 q 625 299 670 305 q 537 196 577 245 q 412 57 500 149 q 235 -107 323 -36 q 104 -178 148 -178 q 70 -158 76 -178 l 70 -143 q 121 -51 78 -100 q 200 28 165 -2 q 240 60 229 53 q 271 71 252 66 q 330 103 303 81 q 429 211 356 124 q 489 282 443 229 q 283 268 372 270 l 215 268 q 191 274 196 269 q 186 293 186 278 q 379 435 186 403 q 468 447 446 446 q 618 455 489 449 q 687 545 647 491 q 762 648 727 598 q 830 743 798 697 q 887 829 862 790 q 782 822 842 828 q 659 805 722 816 q 539 775 595 793 q 449 733 484 757 z "},"G":{"ha":979,"x_min":108,"x_max":1068,"o":"m 682 78 q 897 217 820 160 q 964 253 946 253 q 969 247 967 253 l 969 239 q 920 185 967 226 q 722 32 873 144 q 586 -76 631 -35 q 258 -375 372 -375 q 235 -365 246 -375 q 223 -343 223 -355 q 265 -233 223 -301 q 368 -105 306 -166 q 489 -21 430 -45 q 551 97 501 4 q 686 361 619 214 q 553 256 587 284 q 367 122 436 161 q 247 82 298 82 q 186 102 219 82 q 131 166 153 122 q 108 275 108 210 q 137 425 108 350 q 214 570 165 501 q 323 699 263 640 q 451 807 384 759 q 632 916 533 866 q 825 997 730 966 q 987 1028 920 1028 q 1043 1012 1025 1028 q 1068 938 1062 996 l 1068 906 q 1015 839 1062 880 q 905 764 967 799 q 792 720 842 729 q 826 760 803 740 q 856 810 856 783 q 832 812 856 812 q 737 785 797 812 q 620 720 678 757 q 519 653 562 684 q 377 524 446 597 q 264 376 308 450 q 221 246 221 302 q 289 179 221 179 q 452 261 342 179 q 673 446 563 343 q 833 604 783 548 q 867 639 854 627 q 899 650 880 650 q 949 637 924 650 q 974 593 974 625 q 950 535 974 575 l 682 78 z "},"H":{"ha":1197,"x_min":128,"x_max":1314,"o":"m 618 463 l 851 712 q 900 775 871 733 q 929 840 929 816 q 878 879 929 879 q 715 860 817 879 q 525 810 614 841 q 397 744 435 779 q 394 733 396 741 q 390 720 391 724 q 393 704 390 715 l 157 588 q 128 645 128 608 q 152 754 128 686 q 229 857 176 823 q 336 905 268 881 q 473 946 404 929 q 607 975 543 963 q 728 995 693 990 q 835 1000 762 1000 l 910 1000 q 992 992 963 1000 q 1034 956 1020 983 q 1047 871 1047 928 q 996 758 1047 814 l 747 479 q 964 506 871 495 q 1133 704 1061 625 q 1219 797 1166 739 q 1284 867 1272 855 q 1303 878 1296 878 q 1314 839 1314 878 q 1304 804 1314 819 q 1274 765 1295 790 q 1076 506 1165 635 q 1226 507 1113 507 l 1132 333 q 964 328 1019 333 q 898 239 919 269 q 864 172 877 208 q 850 96 850 137 q 851 67 850 76 l 730 0 q 721 57 721 26 q 851 323 721 173 q 583 299 739 308 q 468 178 546 264 q 388 80 409 111 q 367 26 367 50 q 372 0 367 13 q 311 24 339 2 q 283 70 283 46 q 320 144 283 95 q 454 297 357 194 q 421 296 443 296 q 351 303 377 296 q 321 322 327 309 q 314 362 314 334 q 378 486 314 402 q 386 461 378 470 q 424 448 395 452 q 510 443 453 443 q 618 463 563 443 z "},"I":{"ha":690,"x_min":108,"x_max":779,"o":"m 265 572 q 278 573 268 572 q 296 574 288 574 q 365 564 331 574 q 320 533 342 550 q 276 499 298 517 q 244 475 255 481 q 225 468 234 468 q 151 500 195 468 q 108 557 108 531 q 151 665 108 605 q 258 797 193 726 q 426 936 325 870 q 600 1003 526 1003 q 683 987 641 1003 q 752 942 725 970 q 779 879 779 914 q 663 539 779 765 q 570 375 630 478 q 467 210 509 272 q 425 146 442 174 q 411 85 425 120 q 377 25 397 51 q 339 0 357 0 q 295 23 317 0 q 274 68 274 45 q 289 110 274 88 q 351 194 303 132 q 489 401 412 273 q 620 647 566 529 q 674 822 674 765 q 628 871 674 871 q 505 818 580 871 q 361 694 430 766 q 265 572 292 621 z "},"J":{"ha":739,"x_min":-47,"x_max":828,"o":"m 424 65 q -13 -393 72 -393 q -36 -388 -24 -393 q -47 -375 -47 -384 q -18 -261 -47 -329 q 89 -109 12 -193 q 299 60 167 -24 q 397 125 326 77 q 517 332 443 197 q 652 606 591 466 q 712 814 712 746 q 707 856 712 845 q 679 867 702 867 q 556 816 624 867 q 427 686 488 766 q 327 522 366 607 q 289 371 289 436 q 300 327 289 327 q 375 364 336 327 q 267 232 335 298 q 160 165 199 165 q 127 182 143 165 q 111 231 111 200 q 128 368 111 291 q 195 543 145 446 q 333 740 244 641 q 454 852 384 797 q 594 941 524 906 q 714 976 664 976 q 763 962 736 976 q 809 923 790 947 q 828 868 828 898 q 802 747 828 825 q 738 585 776 668 q 660 436 699 501 q 610 349 642 409 q 511 178 582 289 q 538 191 512 178 q 581 211 564 203 q 617 225 598 219 q 643 232 635 232 q 665 223 665 232 q 620 189 665 214 q 474 99 547 149 q 461 91 467 95 q 450 83 456 87 q 437 75 445 80 q 424 65 430 70 z "},"K":{"ha":1160,"x_min":128,"x_max":1250,"o":"m 715 628 l 1243 883 q 1250 840 1250 858 q 1211 752 1250 789 q 1097 672 1171 715 q 995 621 1031 634 q 960 663 979 663 q 895 645 931 663 l 643 524 l 586 447 l 981 186 q 1079 -14 1079 122 q 1074 -57 1079 -30 q 1061 -83 1068 -83 l 475 310 l 357 164 q 356 151 356 158 q 360 142 358 149 q 322 99 350 129 q 310 84 313 88 q 303 76 307 81 q 205 0 235 0 q 186 19 186 0 q 201 66 186 38 q 269 162 215 94 q 422 349 322 231 q 410 422 410 367 q 421 455 410 440 q 453 490 432 470 l 583 554 l 735 757 q 760 801 760 790 q 753 814 760 808 q 736 820 746 820 q 659 800 706 820 q 466 715 611 781 q 221 610 320 650 q 154 589 167 589 q 128 633 128 589 q 180 793 128 704 l 332 883 q 329 857 329 875 q 357 850 329 850 q 470 890 385 858 q 620 940 555 922 q 747 958 686 958 q 801 938 776 958 q 840 889 825 918 q 854 838 854 860 q 842 793 854 810 l 715 628 z "},"L":{"ha":944,"x_min":-28,"x_max":1053,"o":"m 908 547 l 738 415 q 722 408 729 408 q 704 446 704 408 q 719 530 704 489 q 751 599 734 571 q 803 678 769 628 q 881 810 881 792 q 877 818 881 815 l 856 818 q 721 683 818 804 q 529 429 625 563 q 390 229 433 294 q 517 209 449 225 q 693 156 585 193 q 827 114 787 124 q 908 103 867 104 l 797 -17 q 765 -44 780 -35 q 717 -53 750 -53 q 674 -47 697 -53 q 595 -22 650 -40 q 499 8 539 -4 q 390 39 458 21 q 236 65 294 65 q 113 52 162 65 q 27 19 65 38 q -21 0 -10 0 q -28 10 -28 0 q 17 103 -28 31 q 87 207 63 175 q 304 237 174 237 q 369 330 347 299 q 420 402 391 360 q 476 483 449 444 q 577 618 506 525 q 727 805 649 712 q 878 966 805 898 q 985 1035 950 1035 q 1030 1003 1008 1035 q 1053 938 1053 970 q 993 771 1053 874 q 941 685 960 717 q 911 630 921 654 q 901 583 901 606 q 908 547 901 568 z "},"M":{"ha":1435,"x_min":31,"x_max":1506,"o":"m 761 272 q 850 372 824 344 q 977 505 889 418 q 1164 683 1064 593 q 1340 833 1263 774 q 1444 892 1416 892 q 1486 868 1466 892 q 1506 815 1506 845 q 1500 787 1506 807 q 1322 576 1438 710 q 1218 439 1270 516 q 1133 285 1167 361 q 1100 154 1100 209 q 1160 48 1100 48 q 1305 128 1202 48 q 1344 161 1329 146 q 1392 190 1378 190 q 1402 186 1397 190 q 1407 178 1407 182 q 1322 78 1407 162 q 1170 -36 1251 13 q 1028 -85 1088 -85 q 961 -53 999 -85 q 924 54 924 -22 q 1085 417 924 211 q 1168 529 1151 502 q 1186 567 1186 556 q 1172 578 1186 578 q 969 407 1137 578 q 844 271 900 336 q 749 155 789 207 q 676 54 710 103 q 625 -19 633 -8 q 608 -29 617 -29 q 557 31 557 -29 q 575 132 557 76 q 628 259 592 188 q 720 429 664 331 q 782 540 763 508 q 828 618 801 572 q 862 675 856 663 q 868 692 868 687 q 844 706 868 706 q 774 672 822 706 q 676 597 725 638 q 588 517 627 555 q 204 70 419 356 q 151 8 168 21 q 117 -5 135 -5 q 102 -5 112 -5 q 83 -4 91 -4 q 41 10 51 -4 q 31 87 31 25 q 73 293 31 208 q 158 410 115 378 q 240 443 179 424 q 323 461 301 461 q 331 458 331 461 q 305 418 331 446 q 262 370 279 390 q 225 302 245 349 q 197 186 205 256 q 339 343 263 262 q 354 360 345 351 q 374 383 362 370 q 397 408 386 396 q 572 580 435 449 q 837 821 708 712 q 1006 930 966 930 q 1049 889 1028 930 q 1069 811 1069 847 q 1060 777 1069 795 q 1028 726 1051 759 q 964 632 1005 692 q 848 448 896 530 q 761 272 800 366 z "},"N":{"ha":1124,"x_min":128,"x_max":1213,"o":"m 378 943 q 387 915 378 926 q 408 903 396 903 q 436 910 422 903 q 510 947 452 917 q 607 991 569 978 q 690 1004 646 1004 q 786 918 786 1004 q 772 847 786 878 q 689 682 751 792 q 575 498 627 573 q 519 397 519 419 q 525 385 519 385 q 563 417 533 385 q 575 430 568 423 q 591 447 581 437 q 626 485 600 457 q 730 593 666 524 q 920 772 820 687 q 1040 865 966 812 q 1143 918 1114 918 q 1177 898 1161 918 q 1203 851 1193 878 q 1213 806 1213 823 q 1186 731 1213 776 q 1090 590 1160 685 q 921 340 979 437 q 848 201 863 243 q 832 142 832 160 q 878 67 832 67 q 981 118 912 67 q 1021 152 1007 138 q 1054 185 1036 166 q 1078 209 1072 204 q 1092 214 1084 214 q 1110 203 1110 214 q 1029 99 1110 178 q 733 -103 823 -103 q 676 -72 700 -103 q 651 5 651 -42 q 700 177 651 71 q 817 392 748 282 q 943 579 886 503 q 1007 696 1007 667 q 999 703 1007 703 q 966 695 985 703 q 903 653 948 687 q 783 547 859 618 q 486 211 593 364 q 412 107 438 143 q 372 52 387 71 q 347 25 357 33 q 327 17 336 17 q 300 25 316 17 q 239 85 239 57 q 271 154 239 105 q 410 370 346 266 q 522 562 475 475 q 594 715 568 649 q 620 821 620 781 q 614 851 620 842 q 585 860 608 860 q 408 777 543 860 q 243 657 314 716 q 147 606 181 606 q 128 674 128 606 q 168 782 128 728 q 265 878 208 836 q 378 943 323 919 z "},"O":{"ha":864,"x_min":89,"x_max":914,"o":"m 757 787 q 873 747 832 787 q 914 635 914 707 q 863 434 914 544 q 725 225 812 324 q 530 65 638 127 q 313 4 422 4 q 207 35 252 4 q 120 144 151 73 q 89 285 89 215 q 157 527 89 408 q 332 740 226 645 q 552 894 439 834 q 746 965 664 954 l 778 965 q 839 917 808 959 q 885 829 870 874 q 757 787 814 822 m 376 482 l 343 496 q 278 402 308 458 q 230 287 248 346 q 213 186 213 228 q 240 108 213 136 q 293 81 267 81 q 449 142 360 81 q 621 298 537 204 q 758 487 704 392 q 811 642 811 581 q 742 726 811 726 q 553 646 660 726 q 376 482 446 566 z "},"P":{"ha":1075,"x_min":143,"x_max":1144,"o":"m 437 472 l 660 801 q 497 788 585 801 q 323 752 409 774 q 162 701 236 729 q 237 856 191 797 q 351 945 283 915 q 510 987 419 976 q 735 999 601 999 q 949 970 859 999 q 1092 869 1039 942 q 1144 667 1144 795 q 1097 512 1144 594 q 968 360 1050 431 q 775 246 885 290 q 546 203 665 203 q 361 218 488 203 l 315 143 q 306 111 306 126 q 315 79 306 92 q 275 14 285 32 q 188 -93 210 -93 q 147 -67 155 -93 q 143 -43 143 -54 q 147 -17 143 -30 q 215 115 158 29 q 233 143 226 132 q 250 171 240 155 q 297 242 274 211 q 234 276 264 251 q 204 329 204 301 q 437 472 204 437 m 740 801 l 533 483 q 576 486 563 486 l 586 486 q 605 487 597 486 q 620 488 612 488 q 643 469 643 488 q 572 457 643 464 q 492 404 492 450 q 519 378 492 389 q 572 367 546 367 q 776 397 666 367 q 963 495 885 428 q 1042 663 1042 563 q 993 760 1042 718 q 779 803 944 803 q 760 802 773 803 q 740 801 747 801 z "},"Q":{"ha":965,"x_min":67,"x_max":1054,"o":"m 311 228 q 482 350 380 277 q 680 502 584 423 q 849 662 776 581 q 936 807 921 743 l 936 846 q 887 872 927 872 q 772 852 839 872 q 634 798 705 831 q 506 729 564 765 q 418 663 448 692 q 472 642 455 652 q 498 614 489 633 q 331 560 430 603 q 242 528 260 528 q 207 585 222 528 q 192 682 192 642 q 411 868 192 750 q 622 959 513 924 q 810 1001 732 995 l 886 1001 q 982 967 944 997 q 1037 896 1020 936 q 1054 822 1054 856 q 1027 733 1054 786 q 911 592 1000 680 q 660 390 823 505 q 507 285 541 307 q 468 257 490 272 q 421 223 446 242 q 606 196 525 212 q 814 172 744 172 q 963 194 883 172 l 921 70 q 876 12 907 30 q 749 -5 844 -5 q 600 5 678 -5 q 440 32 551 12 q 272 53 329 53 q 170 43 197 53 q 120 17 142 33 q 74 0 98 0 q 67 15 67 0 q 68 33 67 20 q 70 53 70 46 q 115 177 70 126 q 265 228 161 228 l 311 228 z "},"R":{"ha":1162,"x_min":128,"x_max":1251,"o":"m 417 494 l 647 824 q 504 802 567 814 q 407 777 441 789 q 372 758 372 765 q 411 742 372 752 q 460 726 450 731 q 270 701 331 701 q 201 710 222 701 q 179 746 179 718 q 772 1019 179 1019 q 1001 1001 907 1019 q 1149 955 1094 984 q 1227 891 1203 926 q 1251 820 1251 856 q 1201 659 1251 722 q 1065 558 1150 595 q 903 504 981 520 q 650 454 826 487 q 474 419 527 432 l 811 286 q 958 223 907 249 q 1032 175 1009 197 q 1059 130 1054 153 q 1064 62 1064 107 q 1062 1 1063 14 q 1053 -11 1060 -11 q 1026 -8 1033 -11 l 376 286 l 243 64 q 193 21 221 41 q 149 0 165 0 q 128 21 128 0 q 143 64 128 37 l 297 321 q 233 354 233 340 q 268 441 233 408 q 417 494 303 475 m 747 828 l 531 519 q 1133 773 1133 641 q 1089 824 1133 808 q 989 839 1045 839 q 747 828 834 839 z "},"S":{"ha":1039,"x_min":108,"x_max":1147,"o":"m 960 817 q 853 838 911 838 q 722 819 794 838 q 585 772 650 801 q 477 709 519 743 q 436 647 436 676 q 476 606 436 619 q 625 570 516 593 q 803 522 735 547 q 946 446 895 490 q 997 331 997 401 q 954 212 997 282 q 822 101 911 142 q 701 56 773 78 q 536 17 630 33 q 337 1 441 1 q 173 15 237 1 q 108 81 108 29 q 138 179 108 129 q 251 244 168 228 l 272 244 q 269 235 272 242 q 267 223 267 228 q 289 196 267 207 q 343 186 311 186 q 550 210 417 186 q 783 272 682 235 q 883 350 883 310 q 793 432 883 401 q 569 486 703 463 q 412 520 467 505 q 333 553 358 536 q 303 588 309 569 q 297 643 297 608 q 309 761 297 717 q 361 844 321 806 q 486 924 401 883 q 753 1009 614 985 q 990 1033 891 1033 q 1147 939 1147 1033 q 1141 879 1147 899 q 1117 845 1135 859 q 1050 808 1098 830 q 942 751 1017 794 q 850 704 898 725 q 960 817 881 772 z "},"T":{"ha":914,"x_min":146,"x_max":1258,"o":"m 360 733 l 429 699 q 321 683 348 683 q 282 683 308 683 q 243 682 256 682 q 146 717 146 682 q 150 733 146 723 l 188 825 q 335 919 210 880 q 615 979 460 959 q 865 1000 769 1000 q 904 999 879 1000 q 949 999 928 999 q 1258 1008 1124 999 q 1217 881 1247 922 q 1151 830 1187 840 q 1061 821 1115 821 q 907 826 1042 821 q 815 721 867 789 q 778 672 803 704 q 727 599 754 640 q 651 478 700 558 q 542 296 601 397 q 415 68 457 150 q 379 2 393 23 q 353 -27 365 -19 q 328 -36 341 -35 q 290 -40 315 -38 q 261 -43 268 -43 q 237 -31 246 -43 q 219 18 229 -19 q 203 151 203 89 q 230 277 203 198 q 283 383 257 355 q 359 432 299 399 q 439 464 419 464 q 445 460 445 464 q 419 417 445 454 q 376 341 394 379 q 358 258 358 302 q 390 153 358 200 q 475 306 428 220 q 641 597 579 494 q 799 829 702 700 q 693 822 753 828 q 570 805 633 816 q 451 775 506 793 q 360 733 395 757 z "},"U":{"ha":1199,"x_min":128,"x_max":1288,"o":"m 393 604 q 221 575 265 575 q 128 615 128 575 l 128 631 q 203 779 133 723 q 382 878 272 834 q 524 925 460 909 q 689 942 587 942 q 823 933 790 942 q 856 901 856 924 q 729 635 856 763 q 565 461 621 523 q 477 347 510 399 q 440 250 445 296 l 440 218 q 463 192 444 192 q 501 205 482 192 q 566 259 520 218 q 660 339 612 301 q 1146 778 936 562 q 1214 844 1198 830 q 1240 858 1229 858 q 1272 829 1257 858 q 1288 779 1288 800 q 1274 746 1288 765 q 1216 675 1260 728 q 1130 568 1172 622 q 1035 432 1088 513 q 885 105 885 201 q 921 56 885 56 q 1065 121 959 56 q 1116 157 1093 138 q 1147 175 1138 175 q 1172 157 1172 175 q 1155 131 1172 147 q 1104 91 1137 115 q 1029 36 1070 66 q 927 -34 961 -15 q 864 -57 894 -54 l 849 -57 q 777 -3 808 -53 q 746 115 746 46 q 758 171 746 140 q 800 253 769 201 q 858 349 830 306 q 985 549 886 393 q 835 409 892 465 q 701 276 778 353 q 607 181 639 213 q 523 104 574 148 q 423 28 472 59 q 340 -3 374 -3 q 289 22 315 -3 q 245 79 262 46 q 228 135 228 112 q 261 237 228 174 q 337 350 295 299 q 403 422 366 385 q 483 498 441 459 q 560 567 526 536 q 672 677 630 631 q 715 753 715 723 q 643 778 715 778 q 478 752 557 778 q 349 692 398 726 q 299 640 299 659 q 332 620 299 631 q 393 604 366 609 z "},"V":{"ha":1050,"x_min":128,"x_max":1139,"o":"m 425 585 q 314 551 383 569 q 250 535 277 542 q 207 524 223 527 q 178 521 192 521 q 137 533 145 521 q 128 585 128 545 q 139 657 129 627 q 194 731 149 688 q 336 829 239 773 q 438 882 376 852 q 566 937 501 912 q 692 977 631 962 q 796 993 752 993 q 838 983 827 993 q 864 946 850 972 q 882 877 882 914 q 872 843 882 860 q 844 800 863 825 q 789 726 825 774 q 621 476 684 581 q 529 307 557 372 q 494 211 500 243 q 488 156 488 180 q 499 112 488 129 q 524 96 510 96 q 683 233 579 96 l 917 543 q 956 601 948 585 q 965 665 963 617 q 1051 803 1005 753 q 1125 853 1098 853 q 1135 846 1130 853 q 1139 833 1139 840 q 1076 653 1139 755 q 1004 547 1048 606 l 712 151 q 596 27 666 87 q 476 -33 527 -33 q 420 -7 448 -33 q 377 62 393 19 q 360 154 360 106 q 413 356 360 243 q 579 633 466 468 q 667 778 667 761 q 651 794 667 794 q 638 793 647 794 q 625 792 629 792 q 593 782 612 792 q 565 769 575 773 q 416 695 495 745 q 300 603 336 646 q 368 593 336 595 q 425 585 396 591 z "},"W":{"ha":1358,"x_min":128,"x_max":1447,"o":"m 378 935 l 378 924 q 399 908 378 908 q 469 926 422 908 q 675 965 571 965 q 773 923 732 965 q 814 773 814 880 q 788 688 814 737 q 722 587 762 639 q 644 493 682 536 q 563 406 605 450 q 469 297 495 336 q 442 222 442 258 q 447 199 442 199 q 571 288 474 199 q 589 304 580 296 q 617 329 598 313 q 732 438 689 394 q 895 607 775 481 q 1046 769 1003 723 q 1107 832 1088 815 q 1138 849 1125 849 q 1188 821 1171 849 q 1205 763 1205 793 q 1191 727 1205 748 q 1133 650 1177 705 q 1026 511 1082 586 q 912 335 969 436 q 856 167 856 233 q 871 121 856 121 q 974 176 902 121 q 1128 323 1045 231 q 1277 520 1231 441 q 1323 675 1323 598 q 1319 721 1323 698 q 1362 767 1341 743 q 1398 804 1386 793 q 1421 814 1411 814 q 1443 802 1438 814 q 1447 758 1447 791 q 1394 558 1447 687 q 1225 274 1340 430 q 1112 145 1183 217 q 970 21 1041 73 q 857 -31 899 -31 q 799 -10 828 -31 q 749 43 769 11 q 729 103 729 75 q 747 199 729 135 q 790 331 765 262 q 830 432 815 401 q 475 80 574 158 q 347 1 375 1 q 278 49 312 1 q 244 138 244 96 q 277 245 244 188 q 362 363 309 302 q 506 515 415 424 q 688 753 688 697 q 671 775 688 764 q 620 786 654 786 q 509 768 572 786 q 379 721 446 750 q 256 660 313 692 q 164 617 186 622 l 138 617 q 128 655 128 622 q 150 771 128 726 q 197 836 171 816 q 261 879 222 857 q 378 935 336 922 z "},"X":{"ha":1021,"x_min":128,"x_max":1110,"o":"m 773 602 l 1056 890 q 1086 915 1080 915 q 1102 907 1095 915 q 1110 882 1110 899 q 1050 765 1110 833 l 1003 751 l 771 507 l 749 221 l 749 135 q 762 95 749 109 q 789 82 776 82 q 875 122 818 82 q 933 158 927 158 q 947 146 947 158 q 893 76 947 125 q 774 -15 839 26 q 681 -57 709 -57 q 633 -34 656 -57 q 610 52 610 -11 l 635 399 l 217 7 q 167 -19 186 -19 q 149 -11 153 -19 q 146 13 146 -3 q 191 116 146 56 q 283 214 237 176 l 374 247 l 637 492 l 653 757 l 653 806 q 625 835 653 835 q 541 815 599 835 q 415 763 483 796 q 294 694 346 730 q 274 672 274 680 q 301 663 274 669 q 345 653 327 659 q 251 612 319 634 q 160 590 184 590 q 134 594 139 590 q 128 610 128 597 q 143 723 128 662 q 201 820 159 785 q 290 873 231 842 q 424 934 349 904 q 573 982 498 963 q 711 1001 649 1001 q 793 938 793 1001 l 773 602 z "},"Y":{"ha":1032,"x_min":128,"x_max":1121,"o":"m 131 531 q 128 581 128 549 q 150 695 128 654 q 190 749 173 736 q 351 845 238 787 q 582 945 465 903 q 765 987 699 987 q 810 974 797 987 q 824 929 824 961 q 812 870 824 902 q 771 788 800 837 q 695 671 742 739 q 550 461 649 602 q 446 296 456 326 q 440 271 440 278 q 446 254 440 260 q 474 249 451 249 q 881 585 558 249 q 1060 767 957 666 q 1100 740 1079 764 q 1121 694 1121 716 q 1113 672 1121 683 q 1033 570 1078 632 q 932 416 988 508 q 817 203 876 323 q 703 -61 758 83 q 832 36 755 -14 q 963 95 908 85 q 980 96 968 95 q 996 97 992 97 q 1007 95 1007 97 q 990 71 1007 86 q 904 -2 974 56 q 775 -114 835 -59 q 657 -232 714 -170 q 572 -332 592 -303 q 518 -390 530 -390 q 482 -375 502 -390 q 446 -325 462 -359 q 475 -216 454 -274 q 542 -68 495 -158 q 671 157 589 23 q 797 390 797 365 q 706 308 788 390 q 597 203 680 282 q 496 110 531 139 q 382 25 462 80 q 292 -7 334 -7 q 235 68 235 -7 q 286 205 235 111 q 406 399 338 299 q 525 565 474 498 q 602 681 559 610 q 645 779 645 751 q 632 789 645 789 q 533 755 605 789 q 385 678 462 721 q 231 590 309 635 q 131 531 154 544 z "},"Z":{"ha":886,"x_min":128,"x_max":975,"o":"m 620 422 q 653 425 631 425 q 773 367 728 425 q 820 231 819 309 q 895 261 874 261 q 906 247 906 261 q 899 234 906 241 q 874 217 891 228 q 820 185 857 207 q 767 40 804 107 q 686 -79 730 -28 q 589 -180 642 -131 q 500 -260 531 -236 q 382 -336 469 -283 q 292 -386 325 -371 q 221 -401 259 -401 q 153 -368 179 -401 q 128 -299 128 -334 q 188 -190 128 -261 q 294 -81 248 -120 q 388 -9 342 -41 q 481 53 434 24 q 594 121 527 82 q 711 189 660 159 q 714 211 714 206 q 684 273 714 252 q 615 294 654 294 q 480 260 564 294 q 301 157 396 225 q 218 118 249 118 q 217 142 217 118 q 222 217 219 186 q 244 275 224 249 q 321 338 264 301 q 498 436 378 374 q 703 551 626 502 q 816 639 780 600 q 853 712 853 678 q 838 749 853 732 q 786 765 823 765 q 592 714 718 765 q 361 604 466 663 q 255 539 298 568 q 136 445 212 510 q 131 502 131 470 q 189 679 131 596 q 344 823 247 762 q 552 917 441 884 q 767 950 664 950 q 925 898 874 950 q 975 772 975 847 q 945 674 975 723 q 867 583 915 625 q 757 502 818 542 q 620 422 695 463 m 696 131 q 611 78 620 83 q 468 -24 542 37 q 253 -275 253 -199 q 263 -287 253 -282 q 283 -292 273 -292 q 379 -255 318 -292 q 504 -159 440 -219 q 621 -22 568 -98 q 696 131 673 54 z "},"[":{"ha":817,"x_min":117,"x_max":956,"o":"m 575 976 q 617 1016 598 1004 q 677 1032 637 1027 q 806 1036 717 1036 q 956 1018 956 1036 q 944 971 956 991 q 890 935 932 950 q 761 920 847 920 q 717 921 732 920 q 644 802 674 855 q 592 701 615 749 q 545 599 569 653 q 485 460 522 544 q 428 329 463 408 q 367 185 393 251 q 314 46 340 120 q 261 -118 288 -28 q 482 -113 378 -113 q 522 -119 522 -113 q 494 -171 522 -135 q 453 -211 466 -206 q 358 -224 435 -218 q 232 -229 282 -229 q 155 -173 193 -206 q 117 -115 117 -140 q 321 480 117 1 q 423 713 382 624 q 500 865 465 802 q 575 976 536 928 z "},"\\":{"ha":679,"x_min":0,"x_max":679,"o":"m 618 -285 l 10 965 q 0 989 0 985 q 3 997 0 989 l 38 1058 q 46 1065 41 1064 l 52 1065 q 65 1048 60 1063 l 669 -201 q 679 -223 679 -220 q 678 -235 679 -232 l 646 -292 q 631 -300 642 -300 q 625 -298 627 -300 q 621 -290 623 -295 q 618 -285 619 -286 z "},"]":{"ha":817,"x_min":0,"x_max":839,"o":"m 380 -171 q 335 -210 357 -198 q 272 -225 312 -222 q 150 -229 233 -229 q 0 -213 0 -229 q 38 -152 0 -186 q 126 -115 76 -118 l 237 -115 q 349 78 311 -1 q 471 346 388 156 q 532 485 503 418 q 588 618 561 552 q 640 756 614 684 q 694 924 666 829 q 564 919 635 921 q 474 918 493 918 q 432 925 432 918 q 445 960 432 937 q 481 1001 459 983 q 529 1024 504 1020 q 724 1036 625 1036 q 800 979 762 1013 q 839 921 839 945 q 779 719 839 880 q 635 365 719 559 q 476 12 551 172 q 380 -171 400 -147 z "},"^":{"ha":830,"x_min":117,"x_max":733,"o":"m 425 1006 l 733 597 l 620 597 l 425 851 l 231 597 l 117 597 l 425 1006 z "},"_":{"ha":1219,"x_min":0,"x_max":1219,"o":"m 0 -389 l 0 -294 l 1219 -294 l 1219 -389 l 0 -389 z "},"`":{"ha":362,"x_min":156,"x_max":362,"o":"m 362 637 l 300 624 q 192 676 249 660 q 175 681 181 679 q 164 685 168 684 q 156 738 159 704 l 156 768 q 186 793 160 793 q 244 768 209 793 q 314 705 280 742 q 362 637 347 667 z "},"a":{"ha":642,"x_min":0,"x_max":642,"o":"m 510 450 q 533 405 527 418 q 539 376 539 393 q 533 353 539 366 q 516 324 527 340 q 488 282 505 307 q 443 207 454 229 q 431 161 431 184 q 447 119 431 132 q 480 107 463 107 q 568 146 509 107 q 577 151 574 149 q 585 156 581 154 q 612 176 608 172 q 635 188 628 188 q 642 179 642 188 q 536 65 642 165 q 380 -26 440 -26 q 329 -8 352 -26 q 306 47 306 10 q 337 171 306 108 q 362 223 345 183 q 317 179 345 204 q 278 140 297 160 q 173 48 234 97 q 81 0 113 0 q 37 30 56 0 q 9 100 19 59 q 0 168 0 141 q 61 311 0 245 q 192 425 123 377 q 341 508 254 468 q 480 549 428 549 q 529 532 510 549 q 549 498 549 515 q 525 464 549 482 q 510 450 515 457 m 79 157 q 97 118 79 127 l 117 118 q 268 208 167 130 q 360 295 310 242 q 410 374 410 348 q 380 392 410 392 q 257 357 330 392 q 132 267 184 322 q 79 157 79 212 z "},"b":{"ha":524,"x_min":19,"x_max":640,"o":"m 551 211 l 551 153 q 445 115 498 115 q 371 136 408 115 q 241 3 295 49 q 131 -43 187 -43 q 81 -29 105 -43 q 37 26 56 -14 q 19 138 19 66 q 44 306 19 224 q 106 456 68 388 q 184 578 143 525 q 268 679 224 631 q 450 854 337 754 q 604 954 563 954 q 630 938 619 954 q 640 903 640 922 q 607 809 640 872 q 516 664 574 746 q 384 494 458 583 q 232 327 310 406 q 142 249 184 276 q 136 131 136 217 q 148 88 136 107 q 186 68 160 68 q 246 98 216 68 q 289 162 276 128 q 271 217 271 182 q 306 303 271 254 q 387 390 340 353 q 465 426 434 426 q 492 392 492 426 q 490 375 492 385 q 489 362 489 364 q 484 332 489 346 q 466 294 479 318 q 450 265 453 270 q 407 193 428 219 q 461 180 431 180 q 551 211 498 180 m 162 340 q 413 624 282 452 q 532 818 532 777 q 528 828 532 823 q 518 833 523 833 q 480 814 502 833 q 425 760 458 794 q 331 654 375 707 q 237 517 288 602 q 162 340 186 431 z "},"c":{"ha":471,"x_min":0,"x_max":471,"o":"m 0 172 q 39 293 0 230 q 138 408 77 356 q 263 492 198 460 q 379 524 329 524 q 435 482 435 524 q 408 411 435 458 q 350 325 382 363 q 300 286 317 286 q 280 310 288 286 q 262 335 272 331 l 244 335 q 176 294 214 327 q 111 222 138 262 q 85 154 85 181 q 112 97 85 123 q 201 71 140 71 q 354 125 268 71 q 422 172 393 150 q 458 194 451 194 q 471 180 471 194 q 455 154 471 172 q 321 28 413 101 q 158 -47 228 -47 q 40 28 80 -47 q 0 172 0 103 z "},"d":{"ha":636,"x_min":0,"x_max":772,"o":"m 365 208 q 229 74 284 120 q 144 14 174 27 q 97 0 115 0 q 54 23 77 0 q 15 82 31 46 q 0 153 0 118 q 24 284 0 223 q 132 404 47 345 q 210 447 155 420 q 322 494 266 474 q 408 514 378 514 q 461 461 445 514 q 614 739 535 619 q 721 858 692 858 q 754 848 736 858 q 772 825 772 838 q 706 686 772 793 q 606 536 640 579 q 497 350 544 456 q 450 153 450 243 q 494 89 450 89 q 557 113 523 89 q 607 151 592 136 q 672 200 657 200 q 683 178 683 200 q 661 150 683 172 q 650 137 654 142 q 637 124 645 133 q 585 68 616 98 q 496 -9 527 14 q 425 -32 465 -32 q 340 75 340 -32 q 365 208 340 143 m 415 389 q 389 394 413 394 q 288 365 348 394 q 180 301 229 335 q 123 235 137 270 q 105 161 109 201 q 135 117 105 117 q 333 261 183 117 q 417 379 417 342 q 415 389 417 386 z "},"e":{"ha":443,"x_min":0,"x_max":443,"o":"m 124 192 q 148 108 124 133 q 205 82 172 82 q 276 101 236 82 q 346 140 303 114 q 399 178 369 156 q 435 200 429 200 q 443 179 443 200 q 333 61 443 154 q 324 53 327 55 q 319 48 321 50 q 313 42 317 46 q 306 36 309 39 q 225 -19 271 4 q 133 -43 178 -43 q 37 1 75 -43 q 0 117 0 44 q 31 244 0 174 q 115 379 62 315 q 232 483 168 443 q 358 522 296 522 q 421 501 402 522 q 440 454 440 480 q 393 355 440 413 q 271 251 345 297 q 124 192 197 204 m 124 243 q 206 282 158 253 q 290 348 254 312 q 325 413 325 384 q 296 449 325 449 q 227 415 262 449 q 163 332 191 381 q 124 243 135 283 z "},"f":{"ha":403,"x_min":-136,"x_max":558,"o":"m 62 279 q 236 453 164 352 q 244 463 238 455 q 260 485 250 471 q 322 574 289 524 q 344 605 335 592 q 374 647 353 618 q 422 720 401 686 q 528 843 504 843 q 558 787 558 843 q 531 682 558 735 q 475 595 503 629 q 396 506 447 561 q 323 426 346 450 l 188 219 q 258 100 244 173 q 330 125 307 110 q 375 163 353 140 q 413 190 396 185 l 424 190 q 432 182 432 188 q 407 138 432 167 q 344 81 383 109 q 264 38 306 52 q 228 -103 262 -26 q 141 -246 193 -179 q 30 -354 88 -312 q -72 -396 -28 -396 q -117 -359 -97 -396 q -136 -271 -136 -321 q 15 115 -136 -106 q -15 197 -15 149 q 6 253 -15 227 q 62 279 28 279 m 147 172 l 107 115 q 176 97 131 99 q 174 104 176 100 q 171 115 173 109 q 147 172 165 144 m 178 26 q 70 56 113 29 q 17 -44 39 20 q -10 -167 -6 -109 l -10 -214 q 11 -278 -4 -278 q 74 -230 33 -278 q 146 -112 115 -183 q 178 26 178 -42 z "},"g":{"ha":636,"x_min":0,"x_max":636,"o":"m 323 -74 l 292 -132 q 222 -259 240 -227 q 177 -331 204 -291 q 123 -396 151 -371 q 71 -421 96 -421 q 21 -306 21 -421 q 45 -167 21 -218 q 107 -90 70 -115 q 201 -46 145 -65 q 264 -21 227 -38 q 375 175 310 65 q 255 74 301 111 q 177 21 208 38 q 124 4 146 4 q 71 37 100 4 q 21 116 41 71 q 0 190 0 161 q 52 296 0 238 q 187 405 105 353 q 356 488 269 456 q 507 519 444 519 q 562 489 538 519 q 586 380 586 458 q 572 331 586 354 l 364 3 l 602 113 q 611 115 603 113 q 622 118 619 117 q 636 105 636 118 q 622 83 636 93 l 323 -74 m 113 122 q 129 117 118 117 q 241 174 148 117 q 413 296 334 231 q 492 396 492 362 q 487 404 492 400 q 475 408 483 408 q 405 391 452 408 q 307 349 357 373 q 227 303 257 324 q 137 229 168 264 q 105 143 105 194 q 113 122 105 127 m 231 -97 q 107 -184 148 -124 q 67 -319 67 -245 q 102 -307 87 -317 q 130 -278 117 -296 q 161 -225 143 -259 q 193 -167 180 -192 l 231 -97 z "},"h":{"ha":565,"x_min":0,"x_max":604,"o":"m 87 244 q 86 215 86 233 q 111 156 86 156 q 129 164 120 156 q 161 202 137 173 q 217 265 184 231 q 299 339 250 298 q 401 412 335 369 q 490 455 466 455 q 520 431 505 455 q 535 390 535 406 q 502 347 535 381 q 445 279 469 312 q 380 156 380 196 q 421 99 380 99 q 484 124 446 99 q 535 162 521 149 q 568 185 561 185 q 577 181 573 185 q 582 174 582 178 q 472 61 582 152 q 378 -12 405 6 q 317 -31 351 -31 q 270 -9 289 -31 q 251 40 251 12 q 313 197 251 100 q 343 242 321 213 q 368 289 368 277 q 351 294 368 294 q 167 129 313 294 q 67 21 87 40 q 28 1 47 1 q 0 56 3 1 l 0 92 l 0 135 q 5 214 0 180 q 32 294 11 247 q 101 415 54 341 q 233 598 149 488 q 356 754 319 711 q 467 871 394 797 q 528 927 508 912 q 565 943 549 942 q 591 930 579 939 q 604 912 602 921 l 604 899 q 542 791 597 871 q 415 618 487 710 q 300 476 343 526 q 280 453 292 467 q 260 429 268 439 q 144 301 194 354 q 87 244 114 268 z "},"i":{"ha":337,"x_min":0,"x_max":435,"o":"m 354 524 q 327 521 346 521 q 295 535 312 521 q 279 579 279 548 q 311 655 279 620 q 388 690 343 690 q 435 632 435 690 q 411 565 435 596 q 354 524 387 533 m 0 139 q 38 279 0 214 q 188 443 77 343 q 268 475 225 475 q 294 463 289 475 q 300 426 300 451 q 252 325 300 380 q 114 229 205 271 q 107 172 107 210 q 131 99 107 116 q 190 82 156 82 q 335 147 241 82 q 357 157 352 157 q 371 144 371 157 q 292 56 371 127 q 204 -12 245 13 q 115 -36 163 -36 q 29 16 58 -36 q 0 139 0 67 z "},"j":{"ha":422,"x_min":-39,"x_max":480,"o":"m 410 525 q 382 521 397 521 q 346 534 362 521 q 331 575 331 547 q 361 658 331 620 q 428 696 391 696 q 463 685 445 696 q 480 640 480 673 q 461 569 480 603 q 410 525 441 536 m 247 -7 l 382 104 q 415 129 413 129 q 431 122 431 129 q 421 99 431 112 q 414 91 417 95 q 410 86 411 87 l 194 -139 l 135 -285 q 61 -398 112 -331 q -14 -465 11 -465 q -31 -451 -23 -465 q -39 -424 -39 -437 q -34 -361 -39 -393 q -9 -288 -28 -330 q 48 -196 9 -247 q 149 -90 87 -145 l 249 203 q 264 282 264 249 q 247 293 264 293 q 194 275 224 293 q 179 267 189 272 q 168 260 174 263 q 160 256 162 257 l 3 165 q -3 227 -3 185 q 10 297 -3 260 q 180 393 60 334 q 340 451 300 451 q 382 403 382 451 q 368 347 382 387 l 247 -7 z "},"k":{"ha":621,"x_min":0,"x_max":621,"o":"m 311 140 q 353 87 327 110 q 413 65 380 65 q 539 143 452 65 q 553 156 548 152 q 574 171 560 160 q 598 183 586 183 q 608 164 608 183 q 555 80 608 129 q 435 -6 501 32 q 345 -43 369 -43 q 261 -5 294 -43 q 196 95 228 32 q 162 129 176 129 q 139 118 150 129 q 85 55 112 90 q 47 10 57 20 q 24 0 36 0 q 5 21 10 0 q 0 90 0 41 q 19 259 0 191 q 80 389 38 326 q 213 561 122 452 q 415 778 291 657 q 586 899 538 899 q 612 891 602 899 q 621 875 621 884 q 567 785 621 859 q 333 517 514 711 q 296 476 313 495 q 262 439 279 456 q 207 378 232 405 q 85 232 120 282 q 78 194 78 215 q 90 167 78 167 q 164 231 111 167 q 262 333 198 273 q 394 441 325 394 q 510 496 462 489 l 528 496 q 566 449 551 490 q 582 376 582 408 q 311 140 582 301 m 225 219 q 280 171 254 202 q 351 225 308 189 q 426 294 394 260 q 458 345 458 329 q 453 356 458 350 q 437 362 448 362 q 338 314 405 362 q 225 219 271 265 z "},"l":{"ha":380,"x_min":39,"x_max":537,"o":"m 157 282 q 149 182 149 249 q 173 94 149 118 q 221 71 197 71 q 254 81 234 71 q 295 104 275 91 q 334 130 315 117 q 360 149 352 143 q 396 171 387 171 q 410 157 410 171 q 365 105 410 143 q 213 -9 262 20 q 138 -38 163 -38 q 97 -20 120 -38 q 57 47 75 -3 q 39 185 39 97 q 70 339 39 264 q 144 474 101 415 q 242 598 186 534 q 366 729 306 674 q 467 811 425 784 q 528 839 509 839 q 537 817 537 839 q 537 802 537 812 q 536 786 536 791 q 482 632 536 741 q 436 551 463 594 q 424 535 430 544 q 418 525 419 526 q 367 458 395 491 q 157 282 277 356 m 171 350 q 335 493 261 403 q 426 653 409 582 q 431 685 431 667 q 426 696 431 696 q 358 647 399 696 q 251 509 294 570 q 171 350 209 448 z "},"m":{"ha":903,"x_min":0,"x_max":903,"o":"m 108 153 q 235 274 172 218 q 368 385 298 329 q 529 472 480 472 q 563 419 563 472 q 551 379 563 405 q 531 340 542 357 q 519 325 528 337 q 511 311 513 314 q 494 286 500 294 q 490 280 492 283 q 483 271 487 276 q 471 254 474 258 q 464 244 468 251 q 450 217 450 228 q 458 205 450 205 q 497 233 467 205 q 532 265 512 248 q 551 282 543 274 q 587 310 572 299 q 610 328 603 321 q 664 370 622 340 q 747 423 706 399 q 806 446 788 446 q 838 415 827 446 q 850 358 850 384 q 845 346 850 352 q 823 325 840 340 q 796 299 806 309 q 735 223 765 268 q 706 147 706 178 q 747 105 706 105 q 869 175 793 105 q 893 188 882 188 q 903 182 900 188 l 903 170 q 789 52 891 133 q 629 -38 677 -38 q 584 -23 604 -38 q 564 19 564 -9 q 597 143 564 75 q 631 203 615 181 q 649 244 649 232 q 642 251 649 251 q 561 203 622 251 q 445 97 509 161 q 363 17 382 33 q 321 0 344 0 q 292 12 304 0 q 280 47 280 24 q 321 146 280 82 q 356 201 337 173 q 379 237 374 229 q 383 251 383 244 q 353 274 383 274 q 239 203 309 274 q 160 121 181 146 q 111 53 139 96 q 56 0 76 0 q 0 131 0 0 q 11 219 0 188 q 50 288 22 250 q 81 329 64 308 q 93 346 86 335 q 135 394 112 369 q 169 427 155 416 q 214 437 183 437 q 262 419 262 437 q 236 368 262 394 q 216 346 226 358 q 199 327 207 335 q 178 303 184 310 q 167 290 171 296 q 132 251 155 279 q 115 230 122 239 q 103 212 107 220 q 99 199 99 205 q 108 153 99 172 z "},"n":{"ha":615,"x_min":0,"x_max":615,"o":"m 108 151 q 203 243 137 183 q 225 263 218 257 q 235 272 232 270 q 247 283 237 274 q 337 359 279 313 q 450 438 395 405 q 529 472 505 472 q 564 419 564 472 q 550 365 564 391 q 516 315 536 339 q 469 258 496 291 q 417 147 417 190 q 460 105 417 105 q 565 162 504 105 q 604 188 593 188 q 615 170 615 188 q 590 133 615 158 q 457 17 530 72 q 340 -38 384 -38 q 294 -19 314 -38 q 274 39 274 0 q 308 143 274 91 q 353 202 323 166 q 383 251 383 239 q 354 274 383 274 q 239 203 313 274 q 160 121 181 146 q 111 53 139 96 q 56 0 76 0 q 0 131 6 0 l 0 168 q 21 240 4 209 q 82 329 39 271 q 155 417 132 397 q 214 437 178 437 q 264 410 264 437 q 240 372 264 394 q 190 317 221 353 q 161 283 183 308 q 99 199 99 221 q 108 151 99 173 z "},"o":{"ha":502,"x_min":0,"x_max":502,"o":"m 413 433 q 457 357 457 419 q 450 308 457 335 q 399 186 435 243 q 394 175 394 180 q 404 158 394 165 q 426 151 413 151 q 459 164 442 151 q 486 176 477 176 q 502 167 502 176 q 477 134 502 154 q 413 99 452 114 q 333 85 374 85 q 151 -17 250 -17 q 37 52 75 -17 q 0 183 0 120 q 59 329 0 253 q 201 457 119 406 q 343 508 284 508 q 397 494 375 508 q 419 468 419 480 q 417 447 419 461 q 413 433 415 445 m 286 126 q 271 189 271 157 q 286 261 271 221 q 314 327 299 294 q 329 367 329 360 q 322 376 329 372 q 308 380 315 380 q 244 349 287 380 q 180 296 200 317 q 117 215 137 251 q 96 128 96 178 q 111 87 96 107 q 165 68 125 68 q 286 126 221 68 z "},"p":{"ha":647,"x_min":-97,"x_max":647,"o":"m 237 382 l 22 193 q -7 174 1 174 q -18 179 -16 174 l -18 190 q 56 278 -7 222 q 192 405 118 335 q 332 568 267 475 q 394 649 373 628 q 453 669 415 669 q 483 663 470 669 q 497 647 497 656 q 494 643 497 645 q 434 588 455 618 q 380 499 412 558 q 329 411 349 440 q 301 367 317 394 q 260 297 277 325 q 338 365 285 323 q 444 438 391 407 q 526 469 497 469 q 575 450 556 469 q 594 393 594 432 q 559 293 594 349 q 472 186 525 238 q 362 96 419 135 q 451 79 402 79 q 617 162 548 79 q 635 176 630 176 q 647 168 647 176 q 608 110 647 147 q 427 -8 519 22 q 261 -39 334 -39 q 111 15 184 -39 q 41 -145 76 -60 q -6 -257 6 -229 q -32 -303 -18 -286 q -64 -321 -46 -321 q -89 -302 -80 -321 q -97 -260 -97 -284 q -56 -79 -97 -221 q 75 82 -4 13 l 237 382 m 170 121 q 229 135 201 135 q 301 114 266 135 q 399 208 356 154 q 450 292 443 263 l 450 313 q 415 335 442 335 q 300 266 373 335 q 170 121 228 197 z "},"q":{"ha":632,"x_min":0,"x_max":593,"o":"m 400 104 q 454 89 418 89 q 515 113 480 89 q 568 160 550 137 q 585 175 579 175 q 593 168 592 175 l 593 157 q 546 85 589 126 q 460 28 504 44 q 464 -3 464 13 q 419 -128 464 -57 q 311 -263 375 -198 q 189 -371 248 -328 q 105 -414 129 -414 q 60 -350 60 -414 q 69 -285 60 -316 q 100 -214 78 -253 q 165 -114 123 -174 q 278 39 208 -53 q 370 175 332 111 q 201 37 254 70 q 121 4 149 4 q 69 37 98 4 q 20 115 40 70 q 0 190 0 160 q 91 344 0 267 q 305 470 183 420 q 504 519 428 519 q 583 380 583 519 q 571 331 583 349 l 400 104 m 110 128 q 126 124 116 124 q 231 170 157 124 q 328 239 266 191 q 440 334 391 288 q 489 401 489 381 q 472 415 489 415 q 342 371 433 415 q 190 285 251 327 q 131 232 150 256 q 108 190 113 208 q 104 150 104 173 q 110 128 104 132 m 192 -286 q 265 -234 221 -275 q 343 -144 310 -193 q 376 -60 376 -94 q 351 38 376 14 q 313 -17 327 2 q 256 -99 294 -40 q 207 -188 222 -149 q 192 -286 192 -228 z "},"r":{"ha":472,"x_min":19,"x_max":472,"o":"m 19 236 q 36 280 19 251 q 68 361 68 335 q 58 375 68 366 q 48 394 48 383 q 76 462 48 424 q 141 529 104 500 q 200 557 178 557 q 214 542 214 557 q 212 530 214 536 q 210 521 210 524 q 217 504 210 512 q 240 496 225 496 q 297 503 254 496 q 352 512 321 506 q 394 518 384 518 q 421 503 412 518 q 436 457 436 480 q 394 385 436 426 q 307 280 352 345 q 262 174 262 214 q 317 121 262 121 q 435 188 356 121 q 458 199 446 199 q 472 185 472 199 q 353 64 472 165 q 183 -3 268 -3 q 133 21 153 -3 q 113 86 113 45 q 129 155 113 125 q 179 228 146 184 q 243 304 209 266 q 290 372 290 357 q 239 394 290 394 q 161 389 184 394 q 130 372 138 383 q 110 331 123 362 q 64 257 89 281 q 24 233 38 233 q 19 236 19 233 z "},"s":{"ha":510,"x_min":0,"x_max":510,"o":"m 283 419 l 147 299 l 113 343 l 268 485 q 294 563 268 539 q 311 579 305 571 q 332 596 320 588 q 343 606 341 604 q 365 617 358 617 q 401 579 384 617 q 428 491 418 541 q 439 414 439 442 q 399 276 439 352 q 280 131 358 199 q 313 124 297 124 q 468 204 361 124 q 500 222 491 222 q 510 215 510 222 q 451 141 510 195 q 320 44 392 87 q 211 0 249 0 q 121 35 171 0 q 36 120 71 71 q 0 205 0 169 q 14 250 0 228 q 56 271 27 271 q 116 259 91 271 q 157 203 141 247 q 196 153 175 153 q 240 168 215 153 q 282 217 264 184 q 300 297 300 250 q 283 419 300 375 z "},"t":{"ha":382,"x_min":0,"x_max":518,"o":"m 293 454 q 221 347 248 389 q 173 257 194 306 q 151 170 151 209 q 217 97 151 97 q 361 176 256 97 q 397 196 390 196 q 408 180 408 196 q 367 131 408 167 q 300 75 327 95 q 173 -9 225 18 q 79 -36 122 -36 q 24 -7 47 -36 q 0 86 0 23 q 12 148 0 114 q 48 222 24 182 q 118 333 71 263 q 125 344 122 339 q 132 353 128 348 q 140 367 135 359 q 203 457 182 429 l 71 458 q 58 469 58 458 q 83 522 58 487 q 118 567 107 556 q 154 590 134 585 q 221 596 174 596 l 286 596 q 386 715 348 684 q 472 746 424 746 q 502 742 485 746 q 518 733 518 739 q 474 674 518 715 q 389 589 441 645 q 433 588 415 588 q 467 586 446 586 l 489 586 l 494 586 q 511 572 511 584 q 490 542 511 565 l 433 480 q 411 458 420 466 q 386 451 401 451 q 293 454 321 451 z "},"u":{"ha":600,"x_min":0,"x_max":600,"o":"m 304 180 q 195 57 241 99 q 125 6 149 15 q 85 -4 101 -4 q 43 22 62 -4 q 12 93 23 48 q 0 188 0 137 q 42 312 0 237 q 139 442 83 387 q 236 497 195 497 q 276 489 257 497 q 294 467 294 480 q 268 412 294 448 q 204 341 242 376 q 133 289 166 306 q 100 270 109 275 q 92 223 92 246 q 104 175 92 195 q 135 154 117 154 q 193 180 155 154 q 278 250 242 215 l 525 494 q 549 510 540 510 q 573 491 562 510 q 583 426 583 472 q 578 404 583 410 l 454 270 q 408 165 408 220 q 421 119 408 130 q 445 108 434 108 q 489 121 459 108 q 536 146 518 134 q 589 179 590 179 q 600 168 600 179 q 545 96 600 143 q 425 9 491 49 q 340 -31 358 -31 q 300 -12 317 -31 q 283 47 283 7 q 304 180 283 99 z "},"v":{"ha":542,"x_min":0,"x_max":542,"o":"m 108 257 q 93 168 93 225 q 105 125 93 143 q 129 107 117 107 q 231 164 157 107 q 307 233 280 201 q 334 337 307 286 q 437 472 361 389 q 479 492 455 492 q 510 479 495 492 q 525 450 525 466 q 491 358 525 422 q 414 249 458 295 q 460 199 414 201 l 468 199 q 517 215 488 200 q 528 219 525 219 q 538 214 534 219 q 542 203 542 208 q 535 187 542 194 q 511 168 528 181 q 436 135 467 135 q 351 180 383 135 q 144 0 211 0 q 78 33 112 0 q 22 116 44 65 q 0 217 0 167 q 21 305 0 267 q 87 403 41 343 q 164 484 138 468 q 217 500 191 500 q 267 467 267 500 q 253 431 267 455 q 243 413 249 424 q 108 257 191 307 z "},"w":{"ha":799,"x_min":0,"x_max":799,"o":"m 564 207 q 561 235 561 217 q 577 294 561 266 q 625 362 593 323 q 691 441 669 418 q 736 464 712 464 q 783 418 783 464 q 773 371 783 397 q 686 207 741 271 q 706 177 693 188 q 735 165 720 165 q 764 176 754 165 q 792 186 774 186 q 799 179 799 186 q 780 142 799 164 q 734 103 761 119 q 683 86 707 86 q 603 133 634 86 q 388 -32 455 -32 q 335 -4 361 -32 q 310 56 310 24 q 316 123 310 82 q 328 186 322 164 q 212 63 278 127 q 115 0 147 0 q 67 18 95 0 q 20 78 40 36 q 0 188 0 120 q 10 277 0 244 q 35 330 20 310 q 95 399 50 350 q 275 536 219 536 q 315 525 296 536 q 335 497 335 513 q 302 427 335 475 q 247 358 270 379 q 241 351 244 355 q 231 340 237 347 q 122 249 175 271 q 101 164 101 216 q 114 122 101 138 q 138 107 126 107 q 185 147 149 107 l 474 471 q 514 489 490 489 q 546 481 529 489 q 565 464 563 473 l 565 455 q 520 374 559 427 q 457 279 481 321 q 424 172 434 238 l 424 126 q 450 93 431 93 q 564 207 488 93 z "},"x":{"ha":545,"x_min":0,"x_max":545,"o":"m 351 368 l 494 474 q 533 492 520 492 q 545 480 545 492 q 510 428 545 458 l 349 282 l 337 139 q 364 92 337 92 q 421 121 379 92 q 433 130 429 127 q 442 136 437 132 q 476 154 462 154 q 490 139 490 154 q 434 80 490 132 q 319 -16 377 28 q 242 -60 261 -60 q 220 -49 231 -60 q 210 -14 210 -38 q 218 60 210 2 q 229 164 226 118 q 148 78 192 115 q 64 21 103 41 q 10 0 26 0 q 0 18 0 0 q 28 89 0 46 q 81 139 56 132 l 135 147 l 229 240 q 235 307 232 259 q 227 378 235 356 q 197 399 219 399 q 149 375 181 399 l 65 314 q 48 307 57 307 q 36 314 40 307 l 36 328 q 96 402 44 353 q 204 490 148 451 q 279 529 260 529 q 331 502 309 529 q 353 408 353 475 q 351 368 353 382 z "},"y":{"ha":598,"x_min":0,"x_max":598,"o":"m 128 256 q 103 209 109 223 q 97 175 97 195 q 104 149 97 159 q 119 139 112 139 q 311 274 149 139 q 446 397 393 341 q 488 439 464 415 q 518 469 513 465 q 531 482 522 473 q 553 494 543 494 q 573 479 566 494 q 581 442 581 463 q 554 370 581 410 l 353 50 q 329 10 332 17 l 329 0 q 335 -4 333 -4 q 362 11 345 -4 l 553 175 q 579 194 576 193 l 592 194 q 598 185 598 192 q 588 165 598 183 l 343 -90 q 244 -203 284 -152 q 161 -304 191 -271 q 114 -336 130 -336 q 95 -243 95 -336 q 101 -219 95 -231 q 120 -186 107 -208 q 146 -143 134 -165 l 276 95 q 283 121 283 109 q 279 125 281 125 q 268 119 277 125 q 174 50 210 75 q 116 12 139 25 q 81 0 93 0 q 47 31 66 0 q 14 101 28 62 q 0 158 0 140 q 18 259 0 213 q 79 361 37 306 q 179 463 113 405 q 272 521 244 521 q 309 505 291 521 q 328 474 328 489 q 293 404 328 452 q 210 312 258 356 q 128 256 163 268 z "},"z":{"ha":502,"x_min":0,"x_max":502,"o":"m 345 346 q 236 309 306 326 q 117 293 165 293 q 65 312 77 293 q 54 360 54 331 q 82 417 54 383 q 146 477 110 451 q 201 503 182 503 q 218 482 218 503 q 217 476 218 479 q 217 472 217 473 q 256 446 217 446 q 352 456 302 446 q 413 465 402 465 q 431 445 425 465 l 449 382 q 451 351 451 374 q 420 303 451 334 q 340 233 390 272 q 250 165 290 194 q 190 124 209 137 q 253 133 211 133 q 289 117 270 133 q 303 101 291 115 q 327 80 316 86 q 354 74 338 74 q 400 91 376 74 q 460 144 424 108 q 489 165 480 165 q 502 150 502 165 q 431 58 502 139 q 346 -28 375 -3 q 299 -53 317 -53 q 192 -21 243 -53 q 149 4 165 -4 q 111 13 132 13 q 40 -18 87 13 q 0 -42 13 -36 q 60 87 10 34 q 180 190 109 140 q 273 263 236 230 q 345 346 310 296 z "},"{":{"ha":796,"x_min":117,"x_max":757,"o":"m 301 406 q 339 280 339 353 q 337 230 339 266 q 335 171 335 193 q 326 111 335 140 q 302 41 318 82 q 277 -24 285 0 q 270 -71 270 -48 q 304 -171 270 -113 q 321 -200 310 -178 q 332 -229 332 -221 q 328 -232 332 -232 q 282 -215 316 -232 q 215 -176 247 -198 q 143 -108 170 -143 q 117 -7 117 -73 q 160 168 117 70 q 203 258 181 216 q 231 315 224 300 q 237 346 237 330 q 233 389 237 377 q 218 422 229 401 q 207 460 207 443 q 241 474 207 470 q 285 483 276 477 q 331 604 316 504 q 403 858 354 766 q 510 983 453 950 q 625 1021 567 1017 l 664 1021 q 727 1009 696 1018 q 757 990 757 1000 q 711 964 757 983 q 630 912 662 942 q 572 827 598 882 q 521 683 546 773 q 476 560 500 612 q 410 467 452 509 q 301 406 367 426 z "},"|":{"ha":553,"x_min":233,"x_max":319,"o":"m 319 -389 l 233 -389 l 233 1074 l 319 1074 l 319 -389 z "},"}":{"ha":775,"x_min":39,"x_max":659,"o":"m 454 282 q 403 442 403 354 q 451 635 403 517 q 491 740 479 701 q 507 828 503 779 l 507 871 q 469 983 503 912 q 457 1026 457 1012 q 463 1029 457 1029 q 531 997 479 1029 q 608 933 583 965 q 659 765 659 871 q 648 681 659 717 q 614 586 638 645 q 553 458 582 510 q 520 394 529 412 q 512 360 512 376 q 542 297 512 327 q 563 267 563 279 q 534 247 563 256 q 492 227 506 237 q 449 139 464 205 q 375 -103 413 -25 q 290 -205 337 -182 q 164 -229 243 -229 q 78 -220 118 -229 q 39 -200 39 -210 q 50 -188 39 -193 q 89 -173 60 -183 q 137 -153 117 -162 q 171 -129 156 -143 q 258 52 214 -88 q 300 158 281 119 q 355 231 318 197 q 454 282 392 264 z "},"~":{"ha":969,"x_min":97,"x_max":853,"o":"m 149 378 l 97 417 q 199 524 135 480 q 347 568 263 568 q 427 556 391 568 q 513 521 463 545 q 583 489 563 497 q 675 467 640 467 q 744 493 710 467 q 801 561 778 519 l 853 522 q 762 411 818 456 q 639 367 706 367 q 469 413 567 367 q 363 458 397 446 q 297 471 329 471 q 218 447 259 471 q 149 378 178 422 z "},"‚":{"ha":328,"x_min":76,"x_max":231,"o":"m 87 39 q 105 95 87 63 q 148 152 122 128 q 197 176 174 176 q 225 163 219 176 q 231 115 231 149 q 144 -58 231 67 q 86 -118 104 -118 q 76 -110 76 -118 q 85 -92 76 -103 q 115 -28 115 -56 q 101 7 115 -11 q 87 39 87 26 z "},"ƒ":{"ha":425,"x_min":0,"x_max":425,"o":"m 357 476 l 378 437 q 382 419 382 429 q 315 315 382 388 q 229 157 229 219 q 244 123 229 131 q 285 115 260 115 q 392 176 318 115 q 419 193 412 193 q 425 186 425 193 q 379 120 425 170 q 311 53 333 71 q 131 -43 204 -43 q 78 -19 95 -43 q 61 42 61 5 q 102 151 61 92 q 229 297 143 210 q 272 362 272 340 q 251 376 272 376 q 118 323 198 376 q 54 274 82 300 q 14 247 25 247 q 0 258 0 247 q 51 333 0 279 q 157 422 102 388 q 322 493 269 493 q 357 476 347 493 z "},"„":{"ha":508,"x_min":75,"x_max":411,"o":"m 87 39 q 105 95 87 62 q 148 152 122 127 q 197 176 174 176 q 232 132 232 176 q 200 31 232 89 q 143 -58 168 -27 q 85 -118 100 -118 q 75 -110 75 -118 q 83 -95 75 -104 q 114 -28 114 -52 q 111 -7 114 -14 q 101 5 107 -1 q 91 17 94 11 q 87 39 87 24 m 267 39 q 288 103 267 68 q 329 157 310 138 q 376 176 348 176 q 411 129 411 176 q 322 -58 411 62 q 264 -118 279 -118 q 254 -110 254 -118 q 262 -95 254 -105 q 293 -26 293 -53 q 288 1 293 -8 q 279 12 284 6 q 270 25 274 18 q 267 39 267 32 z "},"…":{"ha":1168,"x_min":97,"x_max":1013,"o":"m 97 25 q 116 85 97 48 q 161 151 134 123 q 211 179 188 179 q 246 128 246 179 q 228 67 246 102 q 183 7 210 32 q 132 -18 156 -18 q 109 -8 120 -18 q 97 25 97 2 m 479 25 q 498 85 479 48 q 544 151 517 123 q 594 179 571 179 q 629 128 629 179 q 611 67 629 102 q 566 7 593 32 q 515 -18 539 -18 q 490 -6 501 -18 q 479 25 479 5 m 863 25 q 882 85 863 48 q 928 151 901 123 q 978 179 955 179 q 1013 128 1013 179 q 994 67 1013 102 q 949 7 976 32 q 899 -18 923 -18 q 874 -6 885 -18 q 863 25 863 5 z "},"†":{"ha":1021,"x_min":119,"x_max":943,"o":"m 318 -153 l 132 -229 q 119 -149 119 -193 q 152 19 119 -75 q 236 208 184 113 q 349 392 288 304 q 469 551 410 481 q 235 529 342 547 q 317 725 242 641 q 528 750 420 750 q 604 747 579 750 q 825 1001 780 1001 q 844 949 844 1001 q 805 846 844 904 q 717 733 765 788 q 943 647 836 710 l 885 542 q 857 507 872 518 q 810 496 842 496 q 776 500 793 496 q 721 515 758 504 q 654 534 685 526 q 586 546 623 541 q 373 172 429 334 q 317 -111 317 11 q 318 -153 317 -140 z "},"‡":{"ha":1360,"x_min":117,"x_max":1204,"o":"m 621 354 l 535 229 q 653 211 594 225 q 826 160 712 197 q 974 113 937 123 q 1053 103 1010 104 l 940 -17 q 909 -45 922 -37 q 861 -53 896 -53 q 825 -48 845 -53 q 758 -27 806 -43 q 664 2 710 -12 q 535 38 617 16 q 367 65 433 65 q 234 52 275 65 q 167 19 192 39 q 124 0 141 0 q 117 14 117 0 q 153 92 117 33 q 232 207 194 159 q 445 237 319 237 q 495 308 474 278 q 533 360 516 338 q 421 354 464 360 q 399 352 414 354 q 371 350 383 351 q 407 411 388 395 q 468 428 426 428 q 479 429 467 428 q 504 429 492 429 q 578 425 534 429 q 660 539 635 506 q 708 604 699 592 q 838 770 753 667 q 1007 955 923 873 q 1125 1038 1090 1038 q 1177 1007 1151 1038 q 1204 949 1204 977 q 1181 857 1204 912 q 1093 696 1157 802 q 1047 581 1047 617 q 1053 547 1047 562 l 882 415 q 867 408 873 408 q 849 446 849 408 q 858 512 849 479 q 883 574 868 545 q 915 629 898 604 q 947 678 932 655 q 1010 773 995 748 q 1025 810 1025 799 q 1021 818 1025 818 q 959 774 1004 818 q 853 658 913 729 q 740 518 793 587 q 660 410 687 449 q 797 337 797 374 q 785 319 797 319 q 745 329 778 319 q 655 349 713 339 q 635 351 641 350 q 621 354 630 353 z "},"‰":{"ha":1769,"x_min":117,"x_max":1653,"o":"m 550 946 q 586 904 577 933 l 586 865 q 575 817 580 830 q 511 701 556 759 q 506 688 506 693 q 514 670 506 677 q 537 663 523 663 q 569 673 553 663 q 600 683 585 683 q 615 672 615 683 q 562 626 615 648 q 440 604 509 604 q 355 545 405 569 q 250 521 305 521 q 150 586 182 521 q 117 732 117 652 q 181 868 117 799 q 335 981 246 936 q 486 1026 424 1026 q 537 1010 514 1026 q 560 979 560 994 q 554 960 560 972 q 552 953 553 957 q 550 946 551 949 m 407 649 q 396 699 396 677 q 439 826 396 748 q 468 893 468 875 q 454 903 468 903 q 380 878 423 903 q 298 816 338 854 q 233 738 258 779 q 207 668 207 697 q 271 603 207 603 q 330 613 300 603 q 407 649 359 623 m 1038 168 q 1075 87 1075 151 q 1063 28 1075 53 q 1022 -42 1050 3 q 999 -76 1014 -57 q 995 -90 995 -85 q 1004 -108 995 -101 q 1026 -115 1013 -115 q 1094 -99 1058 -115 q 1154 -64 1129 -83 q 1210 80 1154 2 q 1347 212 1266 158 q 1494 267 1427 267 q 1549 252 1526 267 q 1572 227 1572 238 q 1565 199 1572 220 q 1564 192 1564 196 q 1608 117 1608 180 q 1601 67 1608 95 q 1550 -54 1586 2 q 1546 -65 1546 -60 q 1555 -83 1546 -76 q 1578 -90 1564 -90 q 1612 -77 1596 -90 q 1637 -64 1627 -64 q 1653 -75 1653 -64 q 1598 -129 1653 -100 q 1485 -157 1543 -157 q 1303 -258 1402 -258 q 1204 -212 1235 -258 q 1162 -114 1173 -165 q 997 -185 1050 -185 q 928 -174 948 -185 q 738 -258 845 -258 q 635 -189 666 -258 q 604 -46 604 -119 q 669 90 604 21 q 823 203 734 158 q 975 249 913 249 q 1026 231 1005 249 q 1047 201 1047 214 q 1042 182 1047 193 q 1039 174 1041 178 q 1038 168 1038 171 m 895 -129 q 883 -79 883 -105 q 907 5 883 -47 q 939 70 920 34 q 956 115 956 100 q 942 125 956 125 q 852 89 912 125 q 743 -1 791 53 q 696 -110 696 -55 q 758 -175 696 -175 q 895 -129 811 -175 m 1437 -115 q 1422 -53 1422 -84 q 1437 19 1422 -22 q 1447 44 1443 36 q 1456 63 1451 53 q 1462 78 1461 74 q 1478 133 1478 113 q 1460 139 1478 139 q 1375 97 1427 139 q 1286 -5 1324 55 q 1247 -113 1247 -65 q 1317 -172 1247 -172 q 1437 -115 1373 -172 m 1071 930 l 254 -194 q 240 -207 244 -207 q 227 -196 229 -207 l 205 -135 q 218 -103 205 -120 l 1032 1022 q 1035 1028 1033 1025 q 1040 1034 1037 1031 q 1048 1036 1043 1036 l 1053 1036 q 1060 1028 1056 1036 l 1085 961 q 1071 930 1085 949 z "},"Š":{"ha":1118,"x_min":31,"x_max":1187,"o":"m 201 186 q 343 343 263 258 q 401 408 376 381 q 533 541 445 455 q 719 716 620 627 q 899 868 817 805 q 1010 930 981 930 q 1053 889 1033 930 q 1074 811 1074 847 q 867 507 1074 769 q 784 379 824 451 q 720 230 745 307 q 694 92 694 153 q 704 34 694 59 q 725 10 713 10 q 792 49 746 10 q 888 149 839 87 q 970 278 937 210 q 1004 404 1004 346 q 992 439 1004 439 q 966 432 978 439 q 932 411 955 426 q 904 396 910 396 q 899 406 899 396 q 949 472 899 432 q 1059 545 999 512 q 1136 578 1119 578 q 1171 553 1155 578 q 1187 503 1187 528 q 1135 348 1187 449 q 1003 142 1083 247 q 836 -33 922 37 q 686 -103 750 -103 q 625 -77 654 -103 q 578 -9 596 -51 q 561 79 561 34 q 607 244 561 142 q 715 448 652 346 q 824 611 778 550 q 854 654 835 625 q 872 692 872 682 q 849 706 872 706 q 712 630 800 706 q 525 448 623 555 q 345 241 427 341 q 208 70 264 142 q 155 8 172 21 q 121 -5 139 -5 q 106 -5 117 -5 q 87 -4 95 -4 q 54 2 65 -3 q 37 28 43 6 q 31 99 31 50 q 44 210 31 168 q 89 310 58 252 q 156 404 128 381 q 228 439 185 427 q 335 458 295 457 q 303 418 325 444 q 201 186 214 310 z "},"‹":{"ha":440,"x_min":95,"x_max":401,"o":"m 229 307 l 200 100 q 162 56 194 56 q 143 85 150 56 l 95 335 l 349 528 q 379 536 359 536 q 396 530 391 536 q 401 515 401 523 q 393 488 401 496 l 229 307 z "},"Œ":{"ha":1383,"x_min":128,"x_max":1453,"o":"m 617 463 l 850 712 q 899 775 869 733 q 928 840 928 816 q 877 879 928 879 q 714 860 815 879 q 523 810 613 841 q 396 744 434 779 q 392 733 395 741 q 389 720 390 724 q 392 704 389 715 l 156 588 q 128 639 128 608 q 156 765 128 693 q 246 869 184 838 q 486 956 335 913 q 833 1000 637 1000 l 908 1000 q 990 992 962 1000 q 1032 956 1019 983 q 1046 871 1046 928 q 995 758 1046 814 l 746 479 q 951 503 877 497 q 995 555 969 524 q 1048 620 1021 587 q 1150 739 1086 663 q 1272 882 1241 848 q 1318 917 1303 917 q 1333 875 1333 917 q 1187 660 1333 849 q 1110 558 1161 626 q 1027 436 1059 491 q 974 319 995 381 q 954 193 954 257 q 967 131 954 154 q 993 108 980 108 q 1101 184 1035 108 q 1218 356 1167 260 q 1270 507 1270 453 q 1257 540 1270 540 q 1208 518 1239 540 q 1171 496 1176 496 q 1164 507 1164 496 q 1195 556 1164 527 q 1269 613 1226 585 q 1351 661 1312 641 q 1401 681 1391 681 q 1437 655 1421 681 q 1453 606 1453 630 q 1363 382 1453 531 q 1154 117 1273 233 q 950 0 1035 0 q 864 55 901 0 q 826 182 826 110 q 867 322 826 248 q 582 299 682 306 q 467 178 545 264 q 386 80 407 111 q 365 26 365 50 q 371 0 365 13 q 310 24 338 2 q 282 70 282 46 q 298 113 282 86 q 349 183 313 140 q 453 297 386 226 q 419 296 442 296 q 350 303 379 296 q 319 322 326 309 q 313 362 313 334 q 376 486 313 402 q 385 461 376 470 q 422 448 393 452 q 508 443 452 443 q 617 463 561 443 z "},"‘":{"ha":328,"x_min":193,"x_max":347,"o":"m 336 817 q 297 727 336 774 q 227 679 258 679 q 199 694 205 679 q 193 740 193 709 q 222 827 193 772 q 287 928 251 882 q 337 974 323 974 q 347 965 347 974 q 336 948 347 962 q 317 919 325 934 q 308 885 308 903 q 322 846 308 868 q 336 817 336 825 z "},"’":{"ha":328,"x_min":192,"x_max":347,"o":"m 203 836 q 220 893 203 860 q 263 949 237 925 q 313 974 289 974 q 347 930 347 974 q 260 739 347 866 q 201 679 219 679 q 192 688 192 679 q 203 710 192 699 q 231 769 231 740 q 217 805 231 786 q 203 836 203 823 z "},"“":{"ha":508,"x_min":193,"x_max":528,"o":"m 515 815 q 476 724 515 777 q 406 678 445 678 q 383 692 394 678 q 372 739 372 706 q 401 828 372 773 q 466 929 430 884 q 518 974 503 974 q 528 965 528 974 q 518 946 528 958 q 495 912 502 924 q 489 883 489 901 q 492 864 489 871 q 502 849 495 857 q 512 834 509 841 q 515 815 515 827 m 336 815 q 297 724 336 776 q 227 678 266 678 q 204 692 215 678 q 193 739 193 707 q 222 828 193 773 q 287 929 251 884 q 339 974 323 974 q 349 965 349 974 q 339 946 349 958 q 321 920 333 939 q 310 883 310 901 q 323 843 310 861 q 336 815 336 825 z "},"”":{"ha":508,"x_min":193,"x_max":528,"o":"m 205 836 q 223 892 205 859 q 266 949 240 925 q 315 974 292 974 q 343 958 337 974 q 349 912 349 943 q 339 865 349 890 q 314 815 329 840 q 283 768 299 790 q 261 739 267 747 q 203 679 218 679 q 193 688 193 679 q 201 703 193 692 q 227 743 222 731 q 232 769 232 754 q 229 790 232 784 q 219 802 225 797 q 209 814 212 808 q 205 836 205 821 m 385 836 q 406 900 385 866 q 494 974 449 974 q 522 958 516 974 q 528 912 528 943 q 518 865 528 890 q 493 815 508 840 q 462 768 478 790 q 440 739 446 747 q 382 679 397 679 q 372 688 372 679 q 380 703 372 692 q 406 743 401 731 q 411 769 411 754 q 408 790 411 783 q 398 805 404 798 q 388 818 391 812 q 385 836 385 824 z "},"•":{"ha":525,"x_min":97,"x_max":408,"o":"m 97 437 q 117 512 97 476 q 172 571 136 548 q 253 593 208 593 q 327 574 291 593 q 386 518 363 554 q 408 437 408 482 q 386 357 408 393 q 327 301 363 321 q 253 282 291 282 q 172 304 208 282 q 117 363 136 327 q 97 437 97 399 z "},"–":{"ha":1128,"x_min":97,"x_max":1011,"o":"m 97 389 l 97 467 l 1011 467 l 1011 389 l 97 389 z "},"—":{"ha":1458,"x_min":97,"x_max":1361,"o":"m 1289 286 l 119 286 q 97 299 97 286 q 101 311 97 302 l 138 370 q 170 380 144 380 l 1339 380 q 1361 367 1361 380 q 1357 356 1361 362 l 1319 296 q 1307 288 1316 289 q 1289 286 1294 286 z "},"™":{"ha":1435,"x_min":278,"x_max":1435,"o":"m 290 1000 l 714 1000 l 726 858 l 703 858 q 664 936 687 915 q 598 957 642 957 l 560 957 l 560 633 q 573 574 560 592 q 631 557 585 557 l 631 533 l 374 533 l 374 557 q 400 560 378 557 q 435 578 426 566 q 445 633 445 590 l 445 957 l 406 957 q 336 934 357 957 q 301 858 316 911 l 278 858 l 290 1000 m 775 1000 l 964 1000 l 1110 700 l 1258 1000 l 1435 1000 l 1435 976 q 1408 974 1428 976 q 1373 956 1382 968 q 1364 900 1364 944 l 1364 633 q 1373 578 1364 590 q 1408 560 1382 566 q 1435 557 1430 557 l 1435 533 l 1192 533 l 1192 557 q 1213 560 1197 557 q 1240 576 1231 564 q 1250 633 1250 588 l 1250 879 l 1079 531 l 1064 531 l 895 877 l 895 633 q 905 575 895 592 q 953 557 916 557 l 953 533 l 775 533 l 775 557 q 801 560 780 557 q 837 578 827 566 q 846 633 846 590 l 846 900 q 837 956 846 944 q 801 974 827 968 q 775 976 782 976 l 775 1000 z "},"š":{"ha":690,"x_min":0,"x_max":690,"o":"m 511 33 q 400 -29 443 -29 q 329 24 361 -29 q 296 149 296 77 q 311 236 296 195 q 229 165 266 202 q 150 83 192 129 q 87 18 107 37 q 50 0 66 0 q 14 31 28 0 q 0 104 0 62 q 17 168 0 127 q 58 239 34 208 q 103 271 82 271 q 117 267 117 271 q 107 237 117 258 q 91 198 97 216 q 85 150 85 179 q 92 124 85 140 q 105 108 99 108 q 121 116 112 108 q 147 143 130 124 q 182 183 164 163 q 270 273 221 227 q 368 362 318 320 q 457 430 418 404 q 514 455 496 455 q 538 428 524 455 q 551 388 551 400 q 528 357 551 373 q 462 308 505 340 q 395 231 419 276 q 370 121 370 186 q 400 53 370 53 q 427 65 412 53 q 451 92 443 77 q 446 129 446 117 q 489 239 446 190 q 582 289 533 289 q 608 274 595 289 q 621 229 621 259 q 606 160 621 197 q 569 96 591 123 q 604 86 588 86 q 659 115 634 86 q 681 128 668 128 q 690 122 688 128 l 690 103 q 652 41 681 70 q 592 13 624 13 q 511 33 540 13 z "},"›":{"ha":479,"x_min":78,"x_max":385,"o":"m 250 285 l 279 493 q 317 536 286 536 q 336 508 331 536 l 385 258 l 129 65 q 100 56 115 56 q 84 63 91 56 q 78 76 78 70 q 85 105 78 98 l 250 285 z "},"œ":{"ha":769,"x_min":0,"x_max":769,"o":"m 183 285 l 285 475 q 205 415 263 456 q 134 369 179 397 q 71 336 88 341 l 62 336 q 58 342 58 340 q 97 379 58 351 q 262 524 166 431 q 333 597 303 563 q 368 635 363 632 q 393 639 373 639 q 443 624 443 639 q 415 564 443 608 q 362 475 382 511 q 288 328 343 439 q 370 335 331 335 q 415 331 400 335 q 462 400 440 374 q 528 469 484 426 q 541 483 533 475 q 558 498 549 491 q 575 510 566 506 q 593 514 584 514 q 655 439 637 514 q 507 311 566 389 q 449 150 449 232 q 479 82 449 82 q 506 94 490 82 q 531 121 522 106 q 525 157 525 142 q 546 234 525 197 q 599 296 567 272 q 663 319 631 319 q 687 304 674 319 q 700 258 700 289 q 650 125 700 193 q 683 114 668 114 q 738 144 711 114 q 760 158 751 158 q 769 151 766 158 l 769 132 q 733 70 760 98 q 671 42 705 42 q 592 62 622 42 q 479 0 520 0 q 433 23 458 0 q 392 86 409 45 q 375 176 375 127 q 394 282 375 230 q 246 242 308 282 q 199 157 220 198 q 100 -11 138 45 q 29 -67 62 -67 q 0 -21 0 -67 q 26 85 0 26 q 95 199 52 144 q 183 285 138 253 z "},"Ÿ":{"ha":602,"x_min":0,"x_max":602,"o":"m 304 180 q 195 57 241 99 q 125 6 149 15 q 85 -4 101 -4 q 43 22 62 -4 q 12 93 23 48 q 0 188 0 137 q 42 312 0 237 q 139 442 83 387 q 236 497 195 497 q 276 489 257 497 q 294 467 294 480 q 268 412 294 448 q 204 341 242 376 q 133 289 166 306 q 100 270 109 275 q 92 223 92 246 q 104 175 92 195 q 135 154 117 154 q 193 180 155 154 q 278 250 242 215 l 525 494 q 549 510 540 510 q 573 491 562 510 q 583 426 583 472 q 578 404 583 410 l 454 270 q 408 165 408 220 q 421 119 408 130 q 445 108 434 108 q 489 121 459 108 q 536 146 518 134 q 589 179 590 179 q 597 175 593 179 q 602 168 602 172 q 547 103 602 153 q 429 12 492 54 q 340 -31 366 -31 q 300 -12 317 -31 q 283 47 283 7 q 304 180 283 99 m 227 -50 l 205 -160 q 107 -258 187 -258 q 80 -247 90 -258 q 70 -222 70 -236 q 107 -150 70 -198 l 183 -50 l 227 -50 z "},"¡":{"ha":1032,"x_min":128,"x_max":1385,"o":"m 131 531 q 128 581 128 549 q 150 695 128 654 q 190 749 173 736 q 351 845 238 787 q 582 945 465 903 q 765 987 699 987 q 810 974 797 987 q 824 929 824 961 q 812 870 824 902 q 771 788 800 837 q 695 671 742 739 q 550 461 649 602 q 446 296 456 326 q 440 271 440 278 q 446 254 440 260 q 474 249 451 249 q 881 585 558 249 q 1060 767 957 666 q 1100 740 1079 764 q 1121 694 1121 716 q 1113 672 1121 683 q 1033 570 1078 632 q 932 416 988 508 q 817 203 876 323 q 703 -61 758 83 q 832 36 755 -14 q 963 95 908 85 q 980 96 968 95 q 996 97 992 97 q 1007 95 1007 97 q 990 71 1007 86 q 904 -2 974 56 q 775 -114 835 -59 q 657 -232 714 -170 q 572 -332 592 -303 q 518 -390 530 -390 q 482 -375 502 -390 q 446 -325 462 -359 q 475 -216 454 -274 q 542 -68 495 -158 q 671 157 589 23 q 797 390 797 365 q 708 311 790 390 q 431 57 517 118 q 308 -4 345 -4 q 265 25 295 -4 q 235 68 235 53 q 286 205 235 111 q 406 399 338 299 q 525 565 474 498 q 602 681 559 610 q 645 779 645 751 q 632 789 645 789 q 533 755 605 789 q 385 678 462 721 q 231 590 309 635 q 131 531 154 544 m 936 1024 q 1068 1152 1047 1152 q 1078 1131 1078 1152 q 1077 1128 1078 1130 q 1076 1125 1076 1126 q 1074 1113 1076 1120 q 1071 1103 1072 1106 l 1071 1064 q 1148 1022 1083 1022 q 1242 1043 1188 1022 q 1351 1099 1296 1063 q 1376 1110 1370 1110 q 1385 1103 1385 1110 q 1316 1025 1385 1078 q 1159 931 1248 972 q 1006 890 1069 890 q 947 915 969 890 q 925 975 925 940 q 936 1024 925 1000 z "},"¢":{"ha":598,"x_min":0,"x_max":661,"o":"m 128 256 q 103 209 109 223 q 97 175 97 195 q 104 149 97 159 q 119 139 112 139 q 311 274 149 139 q 446 397 393 341 q 488 439 464 415 q 518 469 513 465 q 531 482 522 473 q 553 494 543 494 q 573 479 566 494 q 581 442 581 463 q 554 370 581 410 l 353 50 q 329 10 332 17 l 329 0 q 335 -4 333 -4 q 362 11 345 -4 l 553 175 q 579 194 576 193 l 592 194 q 598 185 598 192 q 588 165 598 183 l 343 -90 q 244 -203 284 -152 q 161 -304 191 -271 q 114 -336 130 -336 q 95 -243 95 -336 q 101 -219 95 -231 q 120 -186 107 -208 q 146 -143 134 -165 l 276 95 q 283 121 283 109 q 279 125 281 125 q 268 119 277 125 q 174 50 210 75 q 116 12 139 25 q 81 0 93 0 q 47 31 66 0 q 14 101 28 62 q 0 158 0 140 q 18 259 0 213 q 79 361 37 306 q 179 463 113 405 q 272 521 244 521 q 309 505 291 521 q 328 474 328 489 q 293 404 328 452 q 210 312 258 356 q 128 256 163 268 m 657 688 q 661 671 661 683 q 618 622 661 655 q 524 560 575 589 q 454 532 473 532 q 376 642 382 532 l 376 659 q 416 704 381 682 q 475 726 451 726 q 489 717 489 726 q 483 692 489 710 q 480 667 480 683 q 492 644 480 653 q 519 635 503 635 q 626 688 558 635 q 645 694 637 694 q 657 688 652 694 z "},"£":{"ha":739,"x_min":-47,"x_max":828,"o":"m 424 65 q -13 -393 72 -393 q -36 -388 -24 -393 q -47 -375 -47 -384 q -18 -261 -47 -329 q 89 -109 12 -193 q 299 60 167 -24 q 397 125 326 77 q 517 332 443 197 q 652 606 591 466 q 712 814 712 746 q 707 856 712 845 q 679 867 702 867 q 556 816 624 867 q 427 686 488 766 q 327 522 366 607 q 289 371 289 436 q 300 327 289 327 q 375 364 336 327 q 267 232 335 298 q 160 165 199 165 q 127 182 143 165 q 111 231 111 200 q 128 368 111 291 q 195 543 145 446 q 333 740 244 641 q 454 852 384 797 q 594 941 524 906 q 714 976 664 976 q 763 962 736 976 q 809 923 790 947 q 828 868 828 898 q 802 747 828 825 q 738 585 776 668 q 660 436 699 501 q 610 349 642 409 q 511 178 582 289 q 538 191 512 178 q 581 211 564 203 q 617 225 598 219 q 643 232 635 232 q 665 223 665 232 q 620 189 665 214 q 474 99 547 149 q 461 91 467 95 q 450 83 456 87 q 437 75 445 80 q 424 65 430 70 z "},"¤":{"ha":1242,"x_min":208,"x_max":1144,"o":"m 1061 1003 l 1144 920 l 1003 779 q 1085 535 1085 674 q 1003 290 1085 394 l 1144 150 l 1061 67 l 921 208 q 676 126 818 126 q 432 208 535 126 l 292 67 l 208 150 l 350 290 q 268 535 268 393 q 350 779 268 675 l 208 920 l 292 1003 l 432 861 q 676 943 535 943 q 921 861 818 943 l 1061 1003 m 367 535 q 411 373 367 444 q 529 263 456 302 q 678 223 601 223 q 827 263 755 223 q 944 373 899 302 q 989 535 989 444 q 944 696 989 625 q 828 807 900 768 q 678 846 755 846 q 565 824 620 846 q 464 760 510 802 q 393 661 419 719 q 367 535 367 604 z "},"¥":{"ha":982,"x_min":146,"x_max":1326,"o":"m 360 733 l 429 699 q 321 683 348 683 q 282 683 308 683 q 243 682 256 682 q 146 717 146 682 q 150 733 146 723 l 188 825 q 335 919 210 880 q 615 979 460 959 q 865 1000 769 1000 q 943 999 905 1000 q 1006 997 981 997 q 1128 1003 1080 997 q 1215 1031 1176 1008 q 1267 1104 1255 1055 q 1271 1123 1268 1111 q 1276 1144 1273 1136 q 1284 1158 1278 1152 q 1297 1164 1289 1164 q 1326 1117 1326 1164 q 1284 911 1326 1010 q 1125 811 1242 811 q 1024 820 1081 811 q 907 826 996 823 q 815 721 867 789 q 778 672 803 704 q 727 599 754 640 q 651 478 700 558 q 542 296 601 397 q 415 68 457 150 q 379 2 393 23 q 353 -27 365 -19 q 328 -36 341 -35 q 290 -40 315 -38 q 261 -43 268 -43 q 237 -31 246 -43 q 219 18 229 -19 q 203 151 203 89 q 230 277 203 198 q 283 383 257 355 q 359 432 299 399 q 439 464 419 464 q 445 460 445 464 q 419 417 445 454 q 376 341 394 379 q 358 258 358 302 q 390 153 358 200 q 475 306 428 220 q 641 597 579 494 q 799 829 702 700 q 693 822 753 828 q 570 805 633 816 q 451 775 506 793 q 360 733 395 757 z "},"¦":{"ha":406,"x_min":78,"x_max":328,"o":"m 179 394 q 199 458 179 420 q 245 522 218 495 q 293 549 272 549 q 328 497 328 549 q 309 433 328 468 q 263 375 290 398 q 214 351 236 351 q 190 362 201 351 q 179 394 179 373 m 78 25 q 96 84 78 46 q 142 151 115 122 q 193 179 170 179 q 228 128 228 179 q 210 67 228 102 q 164 7 191 32 q 114 -18 137 -18 q 89 -6 100 -18 q 78 25 78 6 z "},"§":{"ha":929,"x_min":131,"x_max":812,"o":"m 333 651 q 296 732 296 696 q 319 814 296 767 q 419 900 343 861 q 635 939 494 939 q 812 875 812 939 q 793 817 812 850 q 753 765 773 784 q 639 733 724 738 q 674 763 658 745 q 690 792 690 781 q 604 833 690 833 q 468 817 510 833 q 426 779 426 800 q 529 688 426 749 q 705 554 653 610 q 757 437 757 498 q 709 337 757 379 q 608 270 661 295 q 647 190 647 230 q 635 137 647 169 q 588 68 623 104 q 485 7 553 32 q 308 -18 416 -18 q 131 43 131 -18 q 148 98 131 66 q 183 150 165 130 q 225 175 201 168 q 303 189 249 183 q 269 159 286 177 q 253 131 253 141 q 339 87 253 87 q 479 105 441 87 q 517 142 517 123 q 494 176 517 157 q 422 228 472 196 q 319 296 346 278 q 260 344 293 315 q 207 409 228 374 q 186 483 186 445 q 333 651 186 575 m 567 311 q 595 332 578 320 q 622 356 612 344 q 632 382 632 369 q 604 438 632 411 q 524 502 576 464 q 376 610 432 567 q 310 540 310 568 q 419 419 310 497 q 567 311 512 353 z "},"¨":{"ha":953,"x_min":31,"x_max":1042,"o":"m 597 463 l 597 474 q 479 483 547 479 q 351 497 406 486 q 254 549 296 508 q 211 674 211 591 q 262 795 211 736 q 403 899 314 853 q 605 971 492 945 q 833 997 717 997 q 966 986 922 997 q 1042 946 1010 975 l 1042 838 q 1017 813 1035 823 q 943 779 1000 803 q 828 720 876 751 q 804 706 814 711 q 779 692 793 700 q 853 787 793 747 q 749 807 806 807 q 553 778 645 807 q 406 705 461 750 q 351 617 351 660 q 635 539 351 539 q 732 543 648 539 l 803 543 q 851 508 851 537 q 822 447 851 486 q 799 420 807 427 q 777 409 791 413 q 729 404 762 406 q 455 347 581 398 q 256 228 329 296 q 183 108 183 159 q 248 64 183 79 q 408 50 312 50 q 571 75 493 50 q 722 141 649 100 q 897 250 794 181 q 776 14 885 98 q 544 -97 667 -70 q 337 -124 421 -124 q 167 -108 233 -124 q 66 -45 102 -93 q 31 93 31 2 q 60 176 31 130 q 145 269 89 223 q 287 358 201 316 q 479 428 373 400 q 597 463 561 448 m 550 1072 q 517 1069 539 1069 q 480 1087 497 1069 q 464 1138 464 1104 q 482 1205 464 1174 q 529 1253 500 1235 q 586 1271 558 1271 q 625 1254 608 1271 q 642 1201 642 1237 q 615 1121 642 1158 q 550 1072 589 1084 m 878 1072 q 846 1069 868 1069 q 808 1087 825 1069 q 792 1138 792 1104 q 831 1232 792 1192 q 915 1271 869 1271 q 953 1254 937 1271 q 969 1201 969 1237 q 943 1121 969 1159 q 878 1072 916 1084 z "},"©":{"ha":1433,"x_min":208,"x_max":1297,"o":"m 208 515 q 247 715 208 617 q 357 890 286 812 q 531 1014 429 968 q 753 1060 632 1060 q 974 1014 872 1060 q 1148 890 1075 968 q 1259 715 1220 812 q 1297 515 1297 617 q 1259 318 1297 415 q 1147 142 1220 221 q 973 17 1074 63 q 753 -29 872 -29 q 555 9 652 -29 q 378 120 457 48 q 254 294 300 193 q 208 515 208 396 m 288 515 q 355 269 288 378 q 529 99 421 159 q 753 39 637 39 q 922 73 839 39 q 1072 170 1005 107 q 1177 322 1138 234 q 1215 515 1215 411 q 1177 709 1215 621 q 1072 861 1139 798 q 923 958 1006 924 q 753 992 840 992 q 583 958 667 992 q 433 861 500 924 q 327 709 366 797 q 288 515 288 621 m 999 840 l 1008 633 l 969 632 q 925 730 961 675 q 803 786 888 786 q 666 710 714 786 q 617 518 617 635 q 655 352 617 409 q 739 281 693 296 q 825 265 785 265 q 997 374 935 265 l 1038 353 q 932 226 1005 274 q 761 179 858 179 q 586 225 663 179 q 465 348 508 270 q 422 517 422 426 q 468 688 422 613 q 594 803 514 763 q 773 844 674 844 q 906 815 843 844 q 936 807 927 807 q 967 840 961 807 l 999 840 z "},"ª":{"ha":963,"x_min":108,"x_max":1052,"o":"m 353 335 q 294 105 294 196 q 325 -33 294 26 q 455 -92 355 -92 q 930 214 659 -92 q 976 251 964 251 q 990 236 990 251 q 923 132 990 210 q 756 -33 857 54 q 547 -179 656 -119 q 351 -239 438 -239 q 234 -209 290 -239 q 143 -119 178 -179 q 108 25 108 -59 q 136 202 108 109 q 212 388 164 295 q 322 564 261 480 q 449 717 383 648 q 680 921 554 828 q 907 1014 806 1014 q 977 988 943 1014 q 1031 919 1010 962 q 1052 829 1052 876 q 1033 733 1052 789 q 985 637 1014 677 q 928 596 956 596 q 876 617 903 596 q 849 660 849 638 q 877 725 849 670 q 911 803 904 779 q 925 863 919 827 q 926 875 925 865 q 926 890 926 885 q 896 929 926 929 q 697 804 836 929 q 618 729 643 755 q 540 636 594 704 q 400 426 449 521 q 614 474 503 463 q 644 474 624 474 q 672 475 663 475 q 720 474 704 475 q 835 428 835 459 q 811 364 835 406 q 764 322 786 322 q 716 330 749 322 q 644 343 683 338 q 539 349 605 349 q 353 335 426 349 z "},"«":{"ha":686,"x_min":95,"x_max":647,"o":"m 229 307 l 200 100 q 162 56 194 56 q 143 85 150 56 l 95 335 l 349 528 q 379 536 359 536 q 396 530 391 536 q 401 515 401 523 q 393 488 401 496 l 229 307 m 476 307 l 446 100 q 434 64 442 73 q 408 56 425 56 q 397 61 400 56 q 392 74 393 66 q 390 85 391 81 l 340 335 l 596 528 q 625 536 606 536 q 641 529 635 536 q 647 515 647 523 q 640 488 647 494 l 476 307 z "},"¬":{"ha":1128,"x_min":97,"x_max":1011,"o":"m 1011 467 l 1011 218 l 933 218 l 933 388 l 97 389 l 97 467 l 1011 467 z "},"®":{"ha":1095,"x_min":278,"x_max":1095,"o":"m 278 799 q 306 948 278 876 q 389 1080 335 1021 q 520 1173 444 1139 q 686 1207 596 1207 q 898 1148 805 1207 q 1043 995 991 1090 q 1095 799 1095 901 q 1043 602 1095 696 q 898 449 991 507 q 686 390 805 390 q 520 425 596 390 q 389 518 444 459 q 306 649 335 576 q 278 799 278 722 m 336 799 q 365 657 336 722 q 445 545 395 591 q 559 473 496 498 q 686 449 622 449 q 813 474 750 449 q 927 545 876 498 q 1007 656 977 591 q 1036 799 1036 722 q 1007 941 1036 876 q 927 1053 977 1007 q 814 1123 877 1098 q 686 1148 751 1148 q 558 1124 621 1148 q 445 1053 495 1099 q 366 941 395 1006 q 336 799 336 875 m 486 1040 l 700 1040 q 823 1019 769 1040 q 877 922 877 998 q 848 840 877 874 q 775 801 820 807 l 858 647 q 915 597 882 605 l 915 574 l 773 574 l 663 794 l 649 794 l 649 645 q 688 597 649 597 l 696 597 l 696 574 l 486 574 l 486 597 l 494 597 q 533 645 533 597 l 533 971 q 523 1008 533 1000 q 494 1017 512 1017 l 486 1017 l 486 1040 m 649 1001 l 649 829 q 738 861 717 829 q 758 921 758 892 q 743 976 758 949 q 686 1003 728 1003 q 649 1001 665 1003 z "},"¯":{"ha":685,"x_min":108,"x_max":865,"o":"m 264 572 q 277 573 267 572 q 294 574 287 574 q 364 564 330 574 q 283 505 328 542 q 223 468 237 468 q 177 482 205 468 q 129 518 149 495 q 108 565 108 540 q 149 671 108 612 q 241 781 189 730 q 340 871 294 832 q 486 965 409 927 q 620 1004 564 1004 q 694 985 657 1004 q 755 937 731 966 q 778 877 778 907 q 724 671 778 797 q 664 545 701 619 q 575 383 626 471 q 468 214 524 296 q 424 146 441 176 q 410 85 424 120 q 376 25 396 51 q 337 0 356 0 q 294 23 316 0 q 272 68 272 45 q 287 110 272 88 q 350 194 302 132 q 487 401 411 273 q 618 647 564 528 q 672 822 672 765 q 626 871 672 871 q 504 818 578 871 q 360 694 429 766 q 264 572 291 621 m 446 1062 q 414 1060 436 1060 q 376 1077 393 1060 q 360 1128 360 1094 q 399 1222 360 1182 q 483 1261 437 1261 q 521 1244 505 1261 q 537 1192 537 1227 q 511 1112 537 1149 q 446 1062 484 1074 m 773 1062 q 742 1060 764 1060 q 704 1077 721 1060 q 688 1128 688 1094 q 726 1222 688 1182 q 811 1261 765 1261 q 849 1244 832 1261 q 865 1192 865 1227 q 839 1112 865 1149 q 773 1062 812 1074 z "},"°":{"ha":467,"x_min":217,"x_max":528,"o":"m 275 889 q 304 819 275 846 q 372 792 334 792 q 442 821 415 792 q 469 889 469 851 q 439 958 469 930 q 372 986 409 986 q 304 959 334 986 q 275 889 275 931 m 217 889 q 236 964 217 927 q 292 1022 256 1000 q 372 1044 328 1044 q 453 1022 417 1044 q 508 964 489 1000 q 528 889 528 927 q 508 814 528 850 q 453 756 489 778 q 372 733 417 733 q 298 753 334 733 q 239 808 261 772 q 217 889 217 844 z "},"±":{"ha":1069,"x_min":97,"x_max":953,"o":"m 564 136 l 486 136 l 486 525 l 97 525 l 97 603 l 486 603 l 486 992 l 564 992 l 564 603 l 953 603 l 953 525 l 564 525 l 564 136 m 97 -19 l 97 58 l 953 58 l 953 -19 l 97 -19 z "},"²":{"ha":690,"x_min":108,"x_max":779,"o":"m 265 572 q 278 573 268 572 q 296 574 288 574 q 365 564 331 574 q 320 533 342 550 q 276 499 298 517 q 244 475 255 481 q 225 468 234 468 q 151 500 195 468 q 108 557 108 531 q 151 665 108 605 q 258 797 193 726 q 426 936 325 870 q 600 1003 526 1003 q 683 987 641 1003 q 752 942 725 970 q 779 879 779 914 q 663 539 779 765 q 570 375 630 478 q 467 210 509 272 q 425 146 442 174 q 411 85 425 120 q 377 25 397 51 q 339 0 357 0 q 295 23 317 0 q 274 68 274 45 q 289 110 274 88 q 351 194 303 132 q 489 401 412 273 q 620 647 566 529 q 674 822 674 765 q 628 871 674 871 q 505 818 580 871 q 361 694 430 766 q 265 572 292 621 z "},"³":{"ha":337,"x_min":0,"x_max":435,"o":"m 354 524 q 327 521 346 521 q 295 535 312 521 q 279 579 279 548 q 311 655 279 620 q 388 690 343 690 q 435 632 435 690 q 411 565 435 596 q 354 524 387 533 m 0 139 q 38 279 0 214 q 188 443 77 343 q 268 475 225 475 q 294 463 289 475 q 300 426 300 451 q 252 325 300 380 q 114 229 205 271 q 107 172 107 210 q 131 99 107 116 q 190 82 156 82 q 335 147 241 82 q 357 157 352 157 q 371 144 371 157 q 292 56 371 127 q 204 -12 245 13 q 115 -36 163 -36 q 29 16 58 -36 q 0 139 0 67 z "},"´":{"ha":498,"x_min":0,"x_max":596,"o":"m 576 647 q 596 610 596 647 q 582 532 596 578 q 533 448 569 485 q 437 411 497 411 q 385 421 419 411 q 340 432 351 431 q 315 433 332 433 q 279 420 288 433 q 261 374 270 407 q 175 107 226 234 q 81 -21 125 -21 q 64 -15 72 -21 q 0 52 0 33 q 30 121 0 68 q 95 235 60 174 q 154 354 130 295 q 179 457 179 413 q 174 467 179 463 q 168 474 170 471 q 164 493 164 481 q 168 519 164 507 q 187 553 176 544 q 223 561 198 561 q 301 551 237 561 q 343 548 321 549 q 397 545 366 547 l 426 545 q 545 614 510 545 q 551 626 545 615 q 562 642 556 637 q 576 647 568 647 z "},"µ":{"ha":696,"x_min":-175,"x_max":696,"o":"m 674 404 l 550 272 q 515 220 529 250 q 502 165 502 190 q 508 130 502 149 q 526 111 514 111 q 564 120 546 111 q 608 146 582 128 q 650 171 635 163 q 685 179 666 179 q 696 168 696 179 q 641 96 696 143 q 520 9 587 49 q 436 -31 454 -31 q 391 -6 404 -31 q 379 47 379 18 q 401 180 379 105 q 180 -4 254 -4 q 133 30 157 -4 q 100 125 108 63 q 70 25 92 96 q 26 -98 49 -45 q -31 -186 2 -151 q -103 -221 -63 -221 q -158 -201 -141 -221 q -175 -156 -175 -181 q -156 -100 -175 -129 q -100 -28 -137 -71 q 154 319 36 131 q 264 486 209 405 q 299 511 282 511 q 335 479 316 511 q 354 428 354 448 q 333 399 354 422 l 232 283 q 199 223 199 247 q 206 176 199 197 q 225 156 213 156 q 297 190 247 156 q 374 250 346 224 l 621 494 q 645 510 635 510 q 679 421 679 510 q 674 404 679 410 z "},"¶":{"ha":1042,"x_min":0,"x_max":1181,"o":"m 1072 892 l 868 892 q 756 709 805 798 q 583 379 707 620 q 443 103 501 216 q 338 -85 385 -11 q 242 -202 292 -160 q 133 -243 192 -243 q 32 -204 64 -243 q 0 -118 0 -165 q 28 -45 0 -70 q 95 -21 56 -21 q 142 -37 127 -21 q 167 -76 157 -53 q 177 -101 172 -89 q 189 -114 183 -114 q 273 -14 213 -114 q 492 406 333 85 q 331 504 390 428 q 272 700 272 581 q 315 827 272 761 q 456 939 358 893 q 707 985 554 985 l 1142 985 q 1181 979 1181 985 q 1165 942 1181 968 q 1130 904 1149 917 q 1072 892 1112 892 z "},"·":{"ha":168,"x_min":58,"x_max":207,"o":"m 58 346 q 77 406 58 369 q 122 472 95 444 q 172 500 149 500 q 195 490 184 500 q 207 449 207 479 q 189 388 207 422 q 144 328 171 353 q 93 303 117 303 q 70 313 82 303 q 58 346 58 322 z "},"¸":{"ha":443,"x_min":0,"x_max":574,"o":"m 124 192 q 148 108 124 133 q 205 82 172 82 q 276 101 236 82 q 346 140 303 114 q 399 178 369 156 q 435 200 429 200 q 443 179 443 200 q 333 61 443 154 q 324 53 327 55 q 319 48 321 50 q 313 42 317 46 q 306 36 309 39 q 225 -19 271 4 q 133 -43 178 -43 q 37 1 75 -43 q 0 117 0 44 q 31 244 0 174 q 115 379 62 315 q 232 483 168 443 q 358 522 296 522 q 421 501 402 522 q 440 454 440 480 q 393 355 440 413 q 271 251 345 297 q 124 192 197 204 m 124 243 q 206 282 158 253 q 290 348 254 312 q 325 413 325 384 q 296 449 325 449 q 227 415 262 449 q 163 332 191 381 q 124 243 135 283 m 275 583 q 247 582 267 582 q 215 596 230 582 q 200 639 200 610 q 217 695 200 669 q 258 736 233 721 q 307 751 283 751 q 339 739 322 751 q 356 693 356 726 q 332 624 356 657 q 275 583 308 592 m 493 583 q 465 582 485 582 q 432 596 445 582 q 419 639 419 611 q 454 718 419 684 q 526 751 488 751 q 559 738 545 751 q 574 693 574 724 q 550 624 574 657 q 493 583 526 592 z "},"¹":{"ha":1428,"x_min":153,"x_max":1272,"o":"m 1108 982 l 1111 856 q 1037 829 1073 853 q 952 736 1001 806 q 833 531 902 666 q 725 295 763 394 q 664 118 687 196 q 632 20 641 40 q 603 0 623 0 q 551 29 582 0 q 514 83 520 57 l 514 118 q 524 195 517 144 q 537 290 532 247 q 563 506 546 341 q 581 724 581 671 q 554 764 581 764 q 449 641 516 764 q 330 350 382 517 q 278 61 278 183 q 282 0 278 29 q 153 117 153 0 q 256 474 153 249 q 372 687 297 565 q 514 895 446 809 q 608 981 582 981 q 666 963 648 981 q 687 916 683 945 q 693 817 691 886 l 693 729 q 682 554 692 639 q 659 289 664 374 q 723 485 681 367 q 821 725 765 604 q 941 929 877 846 q 1065 1013 1005 1013 q 1108 982 1108 1013 m 920 345 q 942 468 920 401 q 1000 597 964 536 q 1078 695 1037 658 q 1156 732 1119 732 q 1192 715 1175 732 q 1232 669 1210 698 q 1264 619 1256 640 q 1272 555 1272 598 q 1236 387 1272 474 q 1145 244 1199 301 q 1048 188 1092 188 q 996 210 1027 188 q 942 268 964 232 q 920 345 920 304 m 981 332 q 996 310 986 315 l 1025 310 q 1107 364 1064 321 q 1178 460 1149 407 q 1207 553 1207 513 q 1190 596 1207 590 l 1164 596 q 1091 547 1132 586 q 1018 454 1050 507 q 981 358 986 401 l 981 332 m 907 121 l 1131 121 q 1164 114 1164 121 q 1156 93 1164 108 l 1135 52 q 1117 36 1127 36 l 863 36 q 829 43 829 36 q 838 64 829 49 l 858 105 q 869 121 866 120 l 877 121 l 907 121 z "},"º":{"ha":532,"x_min":0,"x_max":532,"o":"m 64 199 q 122 326 78 275 q 233 425 166 377 q 306 468 266 448 q 384 498 345 487 q 451 510 423 510 q 511 491 490 510 q 532 451 532 473 q 481 372 532 425 q 390 313 430 319 l 379 313 q 362 337 367 317 q 329 367 355 367 q 268 339 305 367 q 197 274 230 312 q 151 205 164 235 q 255 225 231 215 q 304 251 280 235 q 361 267 329 267 q 380 242 372 267 q 388 201 388 217 q 364 171 388 182 q 304 155 340 160 q 229 148 269 150 q 143 143 189 145 q 187 90 152 110 q 267 70 222 70 q 483 146 355 70 q 521 162 510 162 q 531 154 531 162 q 485 97 531 133 q 364 14 435 57 q 213 -42 268 -42 q 103 13 136 -42 q 64 136 71 68 q 19 158 39 136 q 0 197 0 179 q 10 203 0 203 q 17 200 11 203 q 43 199 25 199 l 64 199 z "},"»":{"ha":725,"x_min":78,"x_max":631,"o":"m 496 285 l 525 493 q 563 536 531 536 q 582 508 576 536 l 631 258 l 375 65 q 346 56 360 56 q 330 63 337 56 q 323 76 323 70 q 331 105 323 98 l 496 285 m 249 285 l 278 493 q 315 536 285 536 q 335 508 330 536 l 385 258 l 129 65 q 100 56 117 56 q 78 76 78 56 q 85 105 78 99 l 249 285 z "},"¼":{"ha":422,"x_min":-39,"x_max":480,"o":"m 410 525 q 382 521 397 521 q 346 534 362 521 q 331 575 331 547 q 361 658 331 620 q 428 696 391 696 q 463 685 445 696 q 480 640 480 673 q 461 569 480 603 q 410 525 441 536 m 247 -7 l 382 104 q 415 129 413 129 q 431 122 431 129 q 421 99 431 112 q 414 91 417 95 q 410 86 411 87 l 194 -139 l 135 -285 q 61 -398 112 -331 q -14 -465 11 -465 q -31 -451 -23 -465 q -39 -424 -39 -437 q -34 -361 -39 -393 q -9 -288 -28 -330 q 48 -196 9 -247 q 149 -90 87 -145 l 249 203 q 264 282 264 249 q 247 293 264 293 q 194 275 224 293 q 179 267 189 272 q 168 260 174 263 q 160 256 162 257 l 3 165 q -3 227 -3 185 q 10 297 -3 260 q 180 393 60 334 q 340 451 300 451 q 382 403 382 451 q 368 347 382 387 l 247 -7 z "},"½":{"ha":1039,"x_min":108,"x_max":1147,"o":"m 960 817 q 853 838 911 838 q 722 819 794 838 q 585 772 650 801 q 477 709 519 743 q 436 647 436 676 q 476 606 436 619 q 625 570 516 593 q 803 522 735 547 q 946 446 895 490 q 997 331 997 401 q 954 212 997 282 q 822 101 911 142 q 701 56 773 78 q 536 17 630 33 q 337 1 441 1 q 173 15 237 1 q 108 81 108 29 q 138 179 108 129 q 251 244 168 228 l 272 244 q 269 235 272 242 q 267 223 267 228 q 289 196 267 207 q 343 186 311 186 q 550 210 417 186 q 783 272 682 235 q 883 350 883 310 q 793 432 883 401 q 569 486 703 463 q 412 520 467 505 q 333 553 358 536 q 303 588 309 569 q 297 643 297 608 q 309 761 297 717 q 361 844 321 806 q 486 924 401 883 q 753 1009 614 985 q 990 1033 891 1033 q 1147 939 1147 1033 q 1141 879 1147 899 q 1117 845 1135 859 q 1050 808 1098 830 q 942 751 1017 794 q 850 704 898 725 q 960 817 881 772 z "},"¾":{"ha":510,"x_min":0,"x_max":510,"o":"m 283 419 l 147 299 l 113 343 l 268 485 q 294 563 268 539 q 311 579 305 571 q 332 596 320 588 q 343 606 341 604 q 365 617 358 617 q 401 579 384 617 q 428 491 418 541 q 439 414 439 442 q 399 276 439 352 q 280 131 358 199 q 313 124 297 124 q 468 204 361 124 q 500 222 491 222 q 510 215 510 222 q 451 141 510 195 q 320 44 392 87 q 211 0 249 0 q 121 35 171 0 q 36 120 71 71 q 0 205 0 169 q 14 250 0 228 q 56 271 27 271 q 116 259 91 271 q 157 203 141 247 q 196 153 175 153 q 240 168 215 153 q 282 217 264 184 q 300 297 300 250 q 283 419 300 375 z "},"¿":{"ha":371,"x_min":0,"x_max":480,"o":"m 114 229 q 107 172 107 210 q 131 99 107 116 q 190 82 156 82 q 335 147 241 82 q 357 157 352 157 q 371 144 371 157 q 292 56 371 127 q 204 -12 245 13 q 115 -36 163 -36 q 29 16 58 -36 q 0 139 0 67 q 38 279 0 214 q 188 443 77 343 q 268 475 225 475 q 294 463 289 475 q 300 426 300 451 q 252 325 300 380 q 114 229 205 271 m 207 524 q 179 521 197 521 q 148 535 164 521 q 132 579 132 548 q 164 655 132 620 q 240 690 196 690 q 288 632 288 690 q 263 565 288 596 q 207 524 239 533 m 400 524 q 372 521 390 521 q 341 535 357 521 q 325 579 325 548 q 357 655 325 619 q 433 690 389 690 q 480 632 480 690 q 457 564 480 595 q 400 524 433 533 z "},"À":{"ha":982,"x_min":-105,"x_max":1071,"o":"m 347 496 l 421 503 q 555 643 478 569 q 720 793 631 717 q 892 931 809 870 q 1035 1021 976 992 q 1071 951 1071 1000 q 1062 901 1071 917 l 878 539 l 964 549 q 991 546 986 549 q 997 532 997 543 q 983 486 997 513 q 975 465 980 476 q 967 442 970 453 q 944 380 950 392 q 906 360 937 368 q 799 351 875 352 q 725 207 739 236 q 711 160 711 177 q 735 136 711 136 q 808 175 763 136 q 835 199 817 183 q 857 219 853 216 q 865 222 862 222 q 879 214 879 222 q 831 149 879 200 q 757 74 783 97 q 685 16 709 31 q 625 0 661 0 q 545 48 559 0 q 540 75 540 61 q 545 111 540 95 q 590 227 553 161 l 659 351 l 371 349 l 62 22 q -6 -29 47 6 q -85 -71 -59 -64 l -101 -71 q -105 -61 -105 -67 q -77 9 -105 -37 q -21 87 -48 55 q 47 158 21 137 l 107 158 l 279 343 l 167 331 q 152 329 162 330 q 136 327 143 327 q 118 327 130 327 q 86 350 86 327 q 135 431 86 362 q 178 485 161 468 q 234 515 195 502 q 345 531 272 527 l 347 496 m 733 529 l 917 879 q 778 772 850 831 q 635 644 707 712 q 510 508 564 575 l 733 529 z "},"Á":{"ha":910,"x_min":147,"x_max":1096,"o":"m 367 518 q 554 710 473 656 q 694 764 634 764 q 733 758 712 764 q 503 546 592 662 q 672 558 571 558 q 740 548 702 558 q 801 528 778 538 q 857 481 845 507 q 868 425 868 456 q 854 319 868 357 q 824 263 841 280 q 757 205 807 247 q 655 132 703 162 q 617 107 645 126 q 376 0 451 0 q 295 27 341 0 q 217 100 249 55 q 185 197 185 145 q 213 308 185 255 q 300 429 242 360 q 147 375 216 409 q 215 469 177 433 q 367 518 265 491 m 431 442 q 357 222 357 312 q 380 160 357 186 q 432 135 402 135 q 512 158 454 135 q 583 192 559 177 q 625 215 602 204 q 692 256 656 230 q 769 347 769 311 q 739 393 769 371 q 647 429 709 415 q 494 443 586 443 q 431 442 453 443 m 431 703 l 264 649 q 219 637 229 637 q 194 683 194 637 q 225 795 194 749 q 311 871 255 841 q 453 929 367 901 q 599 966 512 948 q 780 994 686 983 q 951 1004 874 1004 q 1044 999 1007 1004 q 1096 879 1083 925 q 1050 881 1082 881 q 886 872 979 881 q 703 849 794 864 q 553 815 613 834 q 461 777 494 798 q 428 722 428 756 q 431 703 428 716 z "},"Â":{"ha":1021,"x_min":147,"x_max":1129,"o":"m 431 782 l 431 742 l 207 678 q 170 671 182 671 q 147 694 147 671 q 178 772 147 727 q 255 859 208 817 q 346 921 301 900 q 460 961 397 945 q 593 987 524 977 q 727 1001 662 997 q 854 1006 791 1006 q 1022 973 961 1006 q 1106 896 1083 940 q 1129 814 1129 852 q 990 631 1129 692 q 661 535 850 570 q 578 519 622 527 q 502 504 534 511 l 502 497 q 711 445 625 470 q 865 375 797 420 q 933 270 933 331 q 883 175 933 223 q 750 87 832 127 q 581 22 669 46 q 426 -3 492 -3 q 278 25 336 -3 q 193 93 219 53 q 167 168 167 132 q 351 461 167 253 q 257 480 287 471 q 228 515 228 489 q 306 560 228 556 q 451 575 371 564 q 590 703 541 663 q 663 751 639 742 q 720 761 686 759 q 757 765 729 762 q 689 700 715 723 q 567 575 630 647 q 919 661 818 607 q 1021 769 1021 715 q 881 868 1021 868 q 730 856 824 868 q 553 824 636 844 q 431 782 469 805 m 451 443 q 382 341 416 402 q 349 236 349 280 q 385 179 349 205 q 480 153 422 153 q 611 175 535 153 q 740 229 686 196 q 794 294 794 262 q 735 361 794 332 q 605 409 676 391 q 451 443 534 427 z "},"Ã":{"ha":914,"x_min":146,"x_max":1258,"o":"m 360 733 l 429 699 q 321 683 348 683 q 282 683 308 683 q 243 682 256 682 q 146 717 146 682 q 150 733 146 723 l 188 825 q 335 919 210 880 q 615 979 460 959 q 865 1000 769 1000 q 904 999 879 1000 q 949 999 928 999 q 1258 1008 1124 999 q 1217 881 1247 922 q 1151 830 1187 840 q 1061 821 1115 821 q 907 826 1042 821 q 815 721 867 789 q 778 672 803 704 q 727 599 754 640 q 651 478 700 558 q 542 296 601 397 q 415 68 457 150 q 379 2 393 23 q 353 -27 365 -19 q 328 -36 341 -35 q 290 -40 315 -38 q 261 -43 268 -43 q 237 -31 246 -43 q 219 18 229 -19 q 203 151 203 89 q 230 277 203 198 q 283 383 257 355 q 359 432 299 399 q 439 464 419 464 q 445 460 445 464 q 419 417 445 454 q 376 341 394 379 q 358 258 358 302 q 390 153 358 200 q 475 306 428 220 q 641 597 579 494 q 799 829 702 700 q 693 822 753 828 q 570 805 633 816 q 451 775 506 793 q 360 733 395 757 z "},"Ä":{"ha":1114,"x_min":167,"x_max":1183,"o":"m 663 821 l 675 730 q 531 536 594 624 q 431 389 468 448 q 380 291 395 330 q 364 227 364 252 q 391 167 364 179 q 463 154 418 154 q 656 188 544 154 q 871 283 767 221 q 1042 435 975 346 q 1110 631 1110 524 q 1022 772 1110 725 q 720 820 933 820 q 486 793 590 820 q 474 790 482 792 q 463 787 465 788 q 375 743 375 768 q 396 728 375 737 q 435 714 418 719 q 228 653 311 671 q 204 650 218 653 q 188 653 193 650 q 167 701 167 664 q 178 811 167 768 q 219 884 189 853 q 305 936 249 914 q 454 979 360 959 q 481 985 473 983 q 498 990 489 987 q 515 995 508 992 q 764 1021 613 1021 q 1037 961 944 1021 q 1157 825 1131 900 q 1183 675 1183 749 q 1103 409 1183 533 q 893 192 1023 284 q 616 50 763 100 q 343 0 469 0 q 264 26 295 0 q 233 129 233 52 q 247 196 233 155 q 303 312 260 236 q 426 506 346 388 q 551 674 481 587 q 663 821 615 752 z "},"Å":{"ha":953,"x_min":31,"x_max":1042,"o":"m 597 463 l 597 474 q 479 483 547 479 q 348 496 404 486 q 250 541 293 506 q 208 646 208 576 q 255 770 208 707 q 387 884 302 832 q 588 966 472 935 q 833 997 704 997 q 966 986 922 997 q 1042 946 1010 975 l 1042 838 q 1017 813 1035 823 q 943 779 1000 803 q 828 720 876 751 q 804 706 814 711 q 779 692 793 700 q 853 787 793 747 q 749 807 806 807 q 553 778 645 807 q 406 705 461 750 q 351 617 351 660 q 635 539 351 539 q 732 543 648 539 l 803 543 q 838 529 824 541 q 853 503 852 518 q 844 480 853 491 l 794 417 q 740 404 787 406 q 517 367 621 399 q 340 291 414 336 q 224 196 265 245 q 183 108 183 147 q 238 63 183 80 q 339 46 292 46 q 480 61 408 46 q 622 104 553 77 q 760 168 690 131 q 897 250 829 205 q 854 95 889 151 q 749 -3 819 39 q 593 -76 673 -48 q 448 -113 513 -103 q 337 -124 383 -124 q 167 -108 232 -124 q 66 -45 102 -92 q 31 93 31 2 q 60 176 31 130 q 145 269 89 223 q 287 358 201 316 q 479 428 373 400 q 597 463 561 448 z "},"Æ":{"ha":1558,"x_min":128,"x_max":1647,"o":"m 614 464 l 847 712 q 878 750 859 728 q 925 840 925 804 q 904 879 925 870 q 842 887 884 887 q 687 869 777 887 q 516 819 597 850 q 393 753 436 788 q 386 730 386 739 q 390 712 386 721 l 153 596 q 132 624 137 609 q 128 675 128 640 q 225 854 128 800 q 391 921 279 887 q 626 977 503 955 q 830 1000 750 1000 l 896 1000 q 983 992 953 1000 q 1028 956 1013 984 q 1043 871 1043 928 q 1030 812 1043 836 q 992 758 1017 788 l 743 479 q 960 506 866 495 q 1160 736 1053 622 q 1249 833 1211 790 q 1300 878 1287 878 q 1310 839 1310 878 q 1302 804 1310 817 q 1270 765 1293 792 q 1181 655 1230 721 q 1072 506 1131 589 q 1233 507 1108 507 q 1374 667 1297 585 q 1520 807 1451 749 q 1621 865 1589 865 q 1639 857 1631 865 q 1647 835 1647 849 q 1610 774 1647 809 q 1527 711 1574 739 q 1458 682 1480 684 q 1384 579 1407 612 q 1333 494 1362 547 q 1436 457 1384 484 l 1364 306 q 1320 327 1351 315 q 1271 339 1290 339 q 1258 336 1264 339 q 1221 251 1241 327 q 1200 146 1200 176 q 1213 80 1200 105 q 1270 54 1225 54 q 1336 73 1308 54 q 1400 135 1364 92 q 1454 197 1436 178 q 1501 227 1472 216 l 1514 227 q 1524 215 1524 223 q 1449 111 1524 199 q 1408 61 1439 100 q 1363 8 1376 22 q 1323 -26 1349 -5 q 1255 -75 1286 -58 q 1186 -93 1225 -93 q 1087 -55 1130 -93 q 1044 50 1044 -18 q 1074 198 1044 121 q 1140 333 1103 274 q 960 328 1021 333 q 896 243 916 271 q 861 178 876 215 q 846 101 846 141 q 849 67 846 79 l 726 0 q 717 54 717 23 q 755 191 717 118 q 849 323 793 263 q 579 299 733 308 q 483 197 539 261 q 465 178 472 185 q 451 162 458 170 q 383 78 403 109 q 362 26 362 47 q 368 0 362 11 q 307 25 335 2 q 279 70 279 48 q 342 174 279 98 q 451 297 405 251 q 408 296 439 296 q 311 327 311 296 q 334 406 311 350 q 375 486 357 463 q 385 458 375 467 q 421 447 395 450 q 507 445 447 445 q 614 464 563 445 z "},"Ç":{"ha":1058,"x_min":128,"x_max":1147,"o":"m 463 674 l 242 593 q 203 583 217 583 q 179 607 179 583 q 243 754 179 672 q 456 897 307 837 q 838 957 604 957 q 1147 782 1147 957 q 1077 649 1147 708 q 906 551 1007 590 q 714 488 804 511 q 547 453 625 466 l 547 447 q 751 424 674 438 q 864 388 827 410 q 914 333 901 367 q 926 240 926 300 q 868 106 926 168 q 718 0 809 44 q 534 -68 628 -44 q 375 -92 440 -92 q 214 -54 269 -92 q 144 32 160 -16 q 128 124 128 80 q 137 159 128 141 q 161 193 147 177 q 194 226 175 209 q 232 260 213 243 q 262 286 256 281 q 278 292 269 292 q 290 280 289 292 l 290 276 q 273 250 289 270 q 247 210 257 230 q 236 164 236 190 q 289 99 236 114 q 424 85 343 85 q 575 115 480 85 q 742 192 671 146 q 814 286 814 239 q 743 360 814 338 q 561 394 672 381 q 463 402 526 399 q 375 412 399 406 q 351 436 351 418 q 374 480 351 459 q 454 503 396 501 q 613 525 514 505 q 811 579 712 546 q 975 653 909 612 q 1040 735 1040 693 q 992 792 1040 770 q 838 815 945 815 q 690 797 782 815 q 530 747 598 779 q 463 674 463 715 z "},"È":{"ha":1199,"x_min":128,"x_max":1288,"o":"m 393 604 q 221 575 265 575 q 128 615 128 575 l 128 631 q 203 779 133 723 q 382 878 272 834 q 524 925 460 909 q 689 942 587 942 q 823 933 790 942 q 856 901 856 924 q 729 635 856 763 q 565 461 621 523 q 477 347 510 399 q 440 250 445 296 l 440 218 q 463 192 444 192 q 501 205 482 192 q 566 259 520 218 q 660 339 612 301 q 1146 778 936 562 q 1214 844 1198 830 q 1240 858 1229 858 q 1272 829 1257 858 q 1288 779 1288 800 q 1274 746 1288 765 q 1216 675 1260 728 q 1130 568 1172 622 q 1035 432 1088 513 q 885 105 885 201 q 921 56 885 56 q 1065 121 959 56 q 1116 157 1093 138 q 1147 175 1138 175 q 1172 157 1172 175 q 1155 131 1172 147 q 1104 91 1137 115 q 1029 36 1070 66 q 927 -34 961 -15 q 864 -57 894 -54 l 849 -57 q 777 -3 808 -53 q 746 115 746 46 q 758 171 746 140 q 800 253 769 201 q 858 349 830 306 q 985 549 886 393 q 835 409 892 465 q 701 276 778 353 q 607 181 639 213 q 523 104 574 148 q 423 28 472 59 q 340 -3 374 -3 q 289 22 315 -3 q 245 79 262 46 q 228 135 228 112 q 261 237 228 174 q 337 350 295 299 q 403 422 366 385 q 483 498 441 459 q 560 567 526 536 q 672 677 630 631 q 715 753 715 723 q 643 778 715 778 q 478 752 557 778 q 349 692 398 726 q 299 640 299 659 q 332 620 299 631 q 393 604 366 609 z "},"É":{"ha":1319,"x_min":128,"x_max":1408,"o":"m 392 604 q 333 592 366 599 q 271 580 301 585 q 219 575 241 575 q 144 590 160 575 q 128 631 128 605 q 196 777 128 718 q 339 864 265 837 q 492 911 413 891 q 592 935 557 928 q 688 942 627 942 q 794 938 759 942 q 842 926 830 935 q 854 901 854 918 q 821 760 854 824 q 753 661 788 696 q 608 511 648 553 q 527 420 568 469 q 463 328 486 371 q 439 250 439 284 q 444 205 439 220 q 467 190 449 190 q 499 201 483 190 q 562 255 514 212 q 659 339 609 298 q 969 605 879 523 q 1138 769 1058 687 q 1209 842 1192 826 q 1239 858 1227 858 q 1272 829 1258 858 q 1286 779 1286 799 q 1274 748 1286 764 q 1218 680 1261 731 q 1132 573 1175 630 q 1035 432 1089 516 q 885 105 885 199 q 922 56 885 56 q 988 76 954 56 q 1077 136 1022 97 q 1146 175 1133 175 q 1171 157 1171 175 q 1079 75 1171 142 q 1046 50 1050 53 q 928 -31 974 -6 q 847 -57 882 -57 q 776 -7 808 -57 q 744 115 744 44 q 755 168 744 140 q 789 237 766 196 q 872 372 812 277 q 985 549 932 467 q 864 437 924 493 q 763 339 805 380 q 672 249 722 299 q 483 80 585 160 q 321 0 381 0 q 260 49 293 0 q 228 135 228 99 q 261 236 228 173 q 336 350 295 299 q 508 519 402 430 q 661 664 606 608 q 715 753 715 720 q 643 778 715 778 q 478 752 557 778 q 349 691 399 725 q 299 640 299 657 q 318 625 299 633 q 363 611 337 618 q 392 604 389 605 m 960 1024 l 1101 1147 q 1092 1090 1092 1115 q 1172 1022 1092 1022 q 1270 1044 1215 1022 q 1376 1099 1325 1065 q 1400 1110 1393 1110 q 1408 1103 1408 1110 q 1341 1025 1408 1076 q 1183 933 1273 974 q 1030 893 1094 893 q 987 905 1006 893 q 959 935 968 916 q 949 976 949 954 q 960 1024 949 999 z "},"Ê":{"ha":1160,"x_min":128,"x_max":1250,"o":"m 715 628 l 1243 883 q 1250 840 1250 858 q 1211 752 1250 789 q 1097 672 1171 715 q 995 621 1031 634 q 960 663 979 663 q 895 645 931 663 l 643 524 l 586 447 l 981 186 q 1079 -14 1079 122 q 1074 -57 1079 -30 q 1061 -83 1068 -83 l 475 310 l 357 164 q 356 151 356 158 q 360 142 358 149 q 322 99 350 129 q 310 84 313 88 q 303 76 307 81 q 205 0 235 0 q 186 19 186 0 q 201 66 186 38 q 269 162 215 94 q 422 349 322 231 q 410 422 410 367 q 421 455 410 440 q 453 490 432 470 l 583 554 l 735 757 q 760 801 760 790 q 753 814 760 808 q 736 820 746 820 q 659 800 706 820 q 466 715 611 781 q 221 610 320 650 q 154 589 167 589 q 128 633 128 589 q 180 793 128 704 l 332 883 q 329 857 329 875 q 357 850 329 850 q 470 890 385 858 q 620 940 555 922 q 747 958 686 958 q 801 938 776 958 q 840 889 825 918 q 854 838 854 860 q 842 793 854 810 l 715 628 z "},"Ë":{"ha":981,"x_min":31,"x_max":1069,"o":"m 197 186 q 339 343 263 262 q 354 360 345 351 q 374 383 362 370 q 397 408 386 396 q 527 539 437 452 q 715 716 616 627 q 895 868 813 805 q 1006 930 977 930 q 1049 889 1028 930 q 1069 811 1069 847 q 1062 780 1069 797 q 1036 738 1054 764 q 987 667 1019 713 q 712 132 712 260 q 753 58 712 74 q 772 54 763 54 q 796 58 786 54 q 964 170 858 74 q 981 178 974 178 l 985 178 l 986 178 q 997 168 995 178 l 997 158 q 929 85 995 143 q 731 -67 799 -31 q 624 -103 663 -103 q 563 -78 593 -103 q 533 3 533 -54 q 559 127 533 51 q 653 330 585 202 q 851 655 722 457 q 868 692 868 681 q 844 706 868 706 q 728 639 811 706 q 588 517 646 573 q 204 70 419 354 q 151 8 168 21 q 117 -5 135 -5 q 102 -5 112 -5 q 83 -4 91 -4 q 41 10 51 -4 q 31 87 31 25 q 36 178 31 135 q 65 277 42 222 q 135 386 89 332 q 224 443 166 424 q 318 461 283 461 q 331 458 331 461 q 306 426 331 455 q 261 365 280 398 q 197 186 207 276 z "},"Ì":{"ha":1435,"x_min":31,"x_max":1506,"o":"m 761 272 q 850 372 824 344 q 977 505 889 418 q 1164 683 1064 593 q 1340 833 1263 774 q 1444 892 1416 892 q 1486 868 1466 892 q 1506 815 1506 845 q 1500 787 1506 807 q 1322 576 1438 710 q 1218 439 1270 516 q 1133 285 1167 361 q 1100 154 1100 209 q 1160 48 1100 48 q 1305 128 1202 48 q 1344 161 1329 146 q 1392 190 1378 190 q 1402 186 1397 190 q 1407 178 1407 182 q 1322 78 1407 162 q 1170 -36 1251 13 q 1028 -85 1088 -85 q 961 -53 999 -85 q 924 54 924 -22 q 1085 417 924 211 q 1168 529 1151 502 q 1186 567 1186 556 q 1172 578 1186 578 q 969 407 1137 578 q 844 271 900 336 q 749 155 789 207 q 676 54 710 103 q 625 -19 633 -8 q 608 -29 617 -29 q 557 31 557 -29 q 575 132 557 76 q 628 259 592 188 q 720 429 664 331 q 782 540 763 508 q 828 618 801 572 q 862 675 856 663 q 868 692 868 687 q 844 706 868 706 q 774 672 822 706 q 676 597 725 638 q 588 517 627 555 q 204 70 419 356 q 151 8 168 21 q 117 -5 135 -5 q 102 -5 112 -5 q 83 -4 91 -4 q 41 10 51 -4 q 31 87 31 25 q 73 293 31 208 q 158 410 115 378 q 240 443 179 424 q 323 461 301 461 q 331 458 331 461 q 305 418 331 446 q 262 370 279 390 q 225 302 245 349 q 197 186 205 256 q 339 343 263 262 q 354 360 345 351 q 374 383 362 370 q 397 408 386 396 q 572 580 435 449 q 837 821 708 712 q 1006 930 966 930 q 1049 889 1028 930 q 1069 811 1069 847 q 1060 777 1069 795 q 1028 726 1051 759 q 964 632 1005 692 q 848 448 896 530 q 761 272 800 366 z "},"Í":{"ha":1197,"x_min":128,"x_max":1314,"o":"m 618 463 l 851 712 q 900 775 871 733 q 929 840 929 816 q 878 879 929 879 q 715 860 817 879 q 525 810 614 841 q 397 744 435 779 q 394 733 396 741 q 390 720 391 724 q 393 704 390 715 l 157 588 q 128 645 128 608 q 152 754 128 686 q 229 857 176 823 q 336 905 268 881 q 473 946 404 929 q 607 975 543 963 q 728 995 693 990 q 835 1000 762 1000 l 910 1000 q 992 992 963 1000 q 1034 956 1020 983 q 1047 871 1047 928 q 996 758 1047 814 l 747 479 q 964 506 871 495 q 1133 704 1061 625 q 1219 797 1166 739 q 1284 867 1272 855 q 1303 878 1296 878 q 1314 839 1314 878 q 1304 804 1314 819 q 1274 765 1295 790 q 1076 506 1165 635 q 1226 507 1113 507 l 1132 333 q 964 328 1019 333 q 898 239 919 269 q 864 172 877 208 q 850 96 850 137 q 851 67 850 76 l 730 0 q 721 57 721 26 q 851 323 721 173 q 583 299 739 308 q 468 178 546 264 q 388 80 409 111 q 367 26 367 50 q 372 0 367 13 q 311 24 339 2 q 283 70 283 46 q 320 144 283 95 q 454 297 357 194 q 421 296 443 296 q 351 303 377 296 q 321 322 327 309 q 314 362 314 334 q 378 486 314 402 q 386 461 378 470 q 424 448 395 452 q 510 443 453 443 q 618 463 563 443 z "},"Î":{"ha":864,"x_min":89,"x_max":914,"o":"m 757 787 q 873 747 832 787 q 914 635 914 707 q 863 434 914 544 q 725 225 812 324 q 530 65 638 127 q 313 4 422 4 q 207 35 252 4 q 120 144 151 73 q 89 285 89 215 q 157 527 89 408 q 332 740 226 645 q 552 894 439 834 q 746 965 664 954 l 778 965 q 839 917 808 959 q 885 829 870 874 q 757 787 814 822 m 376 482 l 343 496 q 278 402 308 458 q 230 287 248 346 q 213 186 213 228 q 240 108 213 136 q 293 81 267 81 q 449 142 360 81 q 621 298 537 204 q 758 487 704 392 q 811 642 811 581 q 742 726 811 726 q 553 646 660 726 q 376 482 446 566 z "},"Ï":{"ha":1124,"x_min":128,"x_max":1213,"o":"m 378 943 q 387 915 378 926 q 408 903 396 903 q 436 910 422 903 q 510 947 452 917 q 607 991 569 978 q 690 1004 646 1004 q 786 918 786 1004 q 772 847 786 878 q 689 682 751 792 q 575 498 627 573 q 519 397 519 419 q 525 385 519 385 q 563 417 533 385 q 575 430 568 423 q 591 447 581 437 q 626 485 600 457 q 730 593 666 524 q 920 772 820 687 q 1040 865 966 812 q 1143 918 1114 918 q 1177 898 1161 918 q 1203 851 1193 878 q 1213 806 1213 823 q 1186 731 1213 776 q 1090 590 1160 685 q 921 340 979 437 q 848 201 863 243 q 832 142 832 160 q 878 67 832 67 q 981 118 912 67 q 1021 152 1007 138 q 1054 185 1036 166 q 1078 209 1072 204 q 1092 214 1084 214 q 1110 203 1110 214 q 1029 99 1110 178 q 733 -103 823 -103 q 676 -72 700 -103 q 651 5 651 -42 q 700 177 651 71 q 817 392 748 282 q 943 579 886 503 q 1007 696 1007 667 q 999 703 1007 703 q 966 695 985 703 q 903 653 948 687 q 783 547 859 618 q 486 211 593 364 q 412 107 438 143 q 372 52 387 71 q 347 25 357 33 q 327 17 336 17 q 300 25 316 17 q 239 85 239 57 q 271 154 239 105 q 410 370 346 266 q 522 562 475 475 q 594 715 568 649 q 620 821 620 781 q 614 851 620 842 q 585 860 608 860 q 408 777 543 860 q 243 657 314 716 q 147 606 181 606 q 128 674 128 606 q 168 782 128 728 q 265 878 208 836 q 378 943 323 919 z "},"Ð":{"ha":1075,"x_min":143,"x_max":1144,"o":"m 437 472 l 660 801 q 497 788 585 801 q 323 752 409 774 q 162 701 236 729 q 237 856 191 797 q 351 945 283 915 q 510 987 419 976 q 735 999 601 999 q 949 970 859 999 q 1092 869 1039 942 q 1144 667 1144 795 q 1097 512 1144 594 q 968 360 1050 431 q 775 246 885 290 q 546 203 665 203 q 361 218 488 203 l 315 143 q 306 111 306 126 q 315 79 306 92 q 275 14 285 32 q 188 -93 210 -93 q 147 -67 155 -93 q 143 -43 143 -54 q 147 -17 143 -30 q 215 115 158 29 q 233 143 226 132 q 250 171 240 155 q 297 242 274 211 q 234 276 264 251 q 204 329 204 301 q 437 472 204 437 m 740 801 l 533 483 q 576 486 563 486 l 586 486 q 605 487 597 486 q 620 488 612 488 q 643 469 643 488 q 572 457 643 464 q 492 404 492 450 q 519 378 492 389 q 572 367 546 367 q 776 397 666 367 q 963 495 885 428 q 1042 663 1042 563 q 993 760 1042 718 q 779 803 944 803 q 760 802 773 803 q 740 801 747 801 z "},"Ñ":{"ha":858,"x_min":11,"x_max":947,"o":"m 607 569 q 629 564 616 564 q 717 614 669 564 q 800 734 766 664 q 833 858 833 804 q 834 871 833 861 q 835 887 835 882 q 810 926 835 926 q 649 843 751 926 q 441 627 547 759 q 267 355 336 495 q 197 105 197 214 q 228 -33 197 26 q 358 -92 258 -92 q 536 -39 445 -92 q 701 80 628 13 q 833 214 773 146 q 879 251 867 251 q 893 236 893 251 q 827 132 893 210 q 659 -33 760 54 q 450 -179 559 -119 q 254 -239 341 -239 q 137 -209 193 -239 q 46 -119 81 -179 q 11 25 11 -59 q 52 254 11 122 q 225 561 93 386 q 339 696 268 619 q 493 845 410 772 q 660 966 576 918 q 810 1014 744 1014 q 873 997 841 1014 q 926 952 906 980 q 947 893 947 924 q 931 782 947 844 q 872 642 914 720 q 758 478 830 564 q 669 387 726 439 q 558 300 613 336 q 474 264 503 264 q 442 285 457 264 q 421 331 428 306 q 505 466 454 401 q 607 569 556 531 z "},"Ò":{"ha":1506,"x_min":128,"x_max":1594,"o":"m 625 583 q 888 835 790 750 q 1028 945 986 921 q 1095 968 1070 968 q 1131 946 1110 968 q 1152 910 1152 925 q 1123 792 1152 878 q 992 497 1094 707 q 1133 626 1072 571 q 1314 792 1266 749 q 1409 876 1361 836 q 1486 936 1457 917 q 1528 956 1514 956 q 1553 938 1537 956 q 1582 898 1569 920 q 1594 861 1594 875 q 1580 822 1594 842 q 1515 740 1566 803 q 1278 423 1355 545 q 1200 201 1200 301 q 1216 124 1200 154 q 1253 93 1232 93 q 1353 139 1286 93 q 1465 228 1421 185 q 1493 246 1484 246 q 1511 233 1511 246 q 1433 135 1511 201 q 1262 14 1356 69 q 1132 -42 1168 -42 q 1057 3 1092 -42 q 1022 105 1022 48 q 1058 264 1022 188 q 1150 419 1094 339 q 1278 621 1278 598 q 1274 624 1278 624 q 1126 507 1243 624 q 999 375 1045 427 q 844 185 953 324 q 791 114 815 146 q 741 52 766 81 q 695 5 716 23 q 659 -13 674 -13 q 626 27 639 -13 q 608 99 612 66 l 608 136 q 628 183 612 158 q 690 270 643 208 q 764 370 737 332 q 918 599 865 510 q 971 742 971 688 q 963 775 971 775 q 893 745 940 775 q 759 615 846 714 q 547 329 672 516 q 317 33 352 33 q 268 76 300 33 q 235 143 235 119 q 259 197 235 158 q 370 356 283 237 q 506 556 454 472 q 581 691 558 640 q 612 772 605 742 q 620 826 620 802 q 594 863 620 863 q 534 843 576 863 q 441 793 492 823 q 356 739 391 763 q 207 650 276 684 q 146 628 160 628 q 134 642 139 628 q 128 685 128 656 q 132 758 128 729 q 145 802 137 787 q 163 826 153 817 q 182 842 174 834 l 279 929 q 283 897 279 901 q 296 893 288 893 q 314 897 305 893 q 390 928 354 910 q 475 971 427 945 q 554 1010 523 997 q 610 1022 585 1022 q 681 996 654 1022 q 719 936 707 969 q 730 889 730 904 q 692 753 730 859 q 625 583 653 646 z "},"Ó":{"ha":1032,"x_min":128,"x_max":1121,"o":"m 131 531 q 128 581 128 549 q 150 695 128 654 q 190 749 173 736 q 351 845 238 787 q 582 945 465 903 q 765 987 699 987 q 810 974 797 987 q 824 929 824 961 q 812 870 824 902 q 771 788 800 837 q 695 671 742 739 q 550 461 649 602 q 446 296 456 326 q 440 271 440 278 q 446 254 440 260 q 474 249 451 249 q 881 585 558 249 q 1060 767 957 666 q 1100 740 1079 764 q 1121 694 1121 716 q 1113 672 1121 683 q 1033 570 1078 632 q 932 416 988 508 q 817 203 876 323 q 703 -61 758 83 q 832 36 755 -14 q 963 95 908 85 q 980 96 968 95 q 996 97 992 97 q 1007 95 1007 97 q 990 71 1007 86 q 904 -2 974 56 q 775 -114 835 -59 q 657 -232 714 -170 q 572 -332 592 -303 q 518 -390 530 -390 q 482 -375 502 -390 q 446 -325 462 -359 q 475 -216 454 -274 q 542 -68 495 -158 q 671 157 589 23 q 797 390 797 365 q 706 308 788 390 q 597 203 680 282 q 496 110 531 139 q 382 25 462 80 q 292 -7 334 -7 q 235 68 235 -7 q 286 205 235 111 q 406 399 338 299 q 525 565 474 498 q 602 681 559 610 q 645 779 645 751 q 632 789 645 789 q 533 755 605 789 q 385 678 462 721 q 231 590 309 635 q 131 531 154 544 z "},"Ô":{"ha":1385,"x_min":31,"x_max":1454,"o":"m 928 593 l 754 297 q 1332 722 1206 722 q 1387 691 1358 722 q 1435 615 1416 659 q 1454 537 1454 571 q 1427 435 1454 493 q 1356 313 1400 376 q 1260 193 1311 251 q 1164 97 1209 136 q 1055 14 1117 57 q 960 -29 994 -29 q 935 -23 943 -29 q 907 4 927 -17 q 881 37 888 24 q 873 76 873 50 q 918 184 873 123 q 1021 288 962 245 q 1117 332 1080 332 q 1129 322 1129 332 q 1118 298 1129 307 q 1086 275 1106 290 q 1041 226 1065 261 q 992 128 1017 192 q 985 108 990 122 q 972 61 972 75 q 976 40 972 40 q 1024 75 988 40 q 1097 153 1059 110 q 1152 218 1134 196 q 1269 370 1238 329 q 1327 467 1300 412 q 1354 574 1354 523 q 1348 605 1354 598 q 1317 611 1342 611 q 1230 572 1284 611 q 1050 419 1175 534 q 914 299 986 361 q 719 122 806 207 q 536 -79 632 38 l 349 -413 q 321 -435 338 -435 q 299 -409 310 -435 q 281 -344 288 -382 q 274 -271 274 -305 q 339 -118 274 -209 q 571 124 404 -27 l 676 329 q 542 204 614 264 q 395 97 469 144 q 259 22 322 50 q 157 -5 196 -5 q 105 24 135 -5 q 53 92 76 54 q 31 147 31 130 q 58 268 31 197 q 135 416 86 339 q 248 563 184 492 q 379 685 311 634 q 542 782 439 729 q 748 873 645 836 q 911 910 850 910 q 982 870 965 910 q 999 787 999 829 q 962 732 999 765 q 874 670 925 699 q 787 631 824 641 q 761 622 778 628 q 786 655 773 633 q 800 689 800 676 q 778 704 800 701 l 763 704 q 589 631 696 696 q 400 502 481 566 q 250 354 308 428 q 169 222 193 280 q 144 132 144 163 q 158 97 144 105 q 208 90 172 90 q 304 120 235 90 q 492 240 374 149 q 753 493 609 330 q 800 542 785 530 q 847 569 815 554 q 928 593 897 592 z "},"Õ":{"ha":1021,"x_min":128,"x_max":1110,"o":"m 773 602 l 1056 890 q 1086 915 1080 915 q 1102 907 1095 915 q 1110 882 1110 899 q 1050 765 1110 833 l 1003 751 l 771 507 l 749 221 l 749 135 q 762 95 749 109 q 789 82 776 82 q 875 122 818 82 q 933 158 927 158 q 947 146 947 158 q 893 76 947 125 q 774 -15 839 26 q 681 -57 709 -57 q 633 -34 656 -57 q 610 52 610 -11 l 635 399 l 217 7 q 167 -19 186 -19 q 149 -11 153 -19 q 146 13 146 -3 q 191 116 146 56 q 283 214 237 176 l 374 247 l 637 492 l 653 757 l 653 806 q 625 835 653 835 q 541 815 599 835 q 415 763 483 796 q 294 694 346 730 q 274 672 274 680 q 301 663 274 669 q 345 653 327 659 q 251 612 319 634 q 160 590 184 590 q 134 594 139 590 q 128 610 128 597 q 143 723 128 662 q 201 820 159 785 q 290 873 231 842 q 424 934 349 904 q 573 982 498 963 q 711 1001 649 1001 q 793 938 793 1001 l 773 602 z "},"Ö":{"ha":1199,"x_min":128,"x_max":1288,"o":"m 925 497 q 768 353 880 459 q 584 183 655 246 q 445 71 513 119 q 337 24 377 24 q 283 49 309 24 q 243 108 258 75 q 228 160 228 141 q 560 590 228 290 q 715 777 715 729 q 643 803 715 803 q 478 777 557 803 q 349 717 399 751 q 299 665 299 683 q 393 629 299 650 q 204 598 257 598 q 141 615 154 598 q 128 655 128 631 q 186 791 128 736 q 350 889 244 846 q 521 949 456 933 q 689 965 586 965 q 794 961 758 965 q 843 949 830 958 q 856 925 856 940 q 729 660 856 788 q 565 485 620 547 q 477 371 509 423 q 440 274 446 319 q 446 227 440 239 q 471 214 452 214 q 500 222 491 214 q 539 261 509 229 q 637 346 566 290 q 794 475 707 399 q 1030 688 928 590 l 1139 794 q 1214 869 1201 857 q 1240 882 1228 882 q 1272 853 1256 882 q 1288 804 1288 824 q 1275 773 1288 789 q 1219 706 1263 756 q 1130 598 1176 656 q 1033 457 1085 539 q 885 129 885 221 q 894 88 885 106 q 917 71 904 71 q 1085 138 983 71 q 1122 158 1110 153 q 1136 164 1134 163 q 1100 93 1136 157 q 1024 -38 1064 29 q 964 -133 983 -105 q 848 -276 905 -217 q 726 -369 791 -335 q 588 -404 661 -404 q 523 -386 548 -404 q 498 -346 498 -368 q 541 -257 498 -320 q 614 -160 584 -194 q 632 -138 626 -146 q 653 -117 646 -117 q 661 -124 661 -117 q 651 -140 661 -127 q 631 -180 631 -167 q 674 -222 631 -222 q 765 -199 715 -222 q 871 -121 814 -177 q 983 29 927 -65 q 908 -17 947 -1 q 849 -33 869 -33 q 779 15 812 -33 q 746 121 746 64 q 768 198 746 145 q 819 306 790 251 q 880 418 848 361 q 925 497 911 474 z "},"×":{"ha":1160,"x_min":128,"x_max":1249,"o":"m 950 553 q 933 540 939 545 q 918 529 927 536 q 892 508 908 522 q 796 432 864 485 q 658 335 706 364 q 567 307 611 307 q 516 338 541 307 q 492 397 492 368 q 518 487 492 450 q 598 572 545 524 q 679 660 652 621 q 707 753 707 699 q 687 778 707 766 q 640 789 668 789 q 443 749 544 789 q 293 642 341 709 q 375 604 343 629 l 170 574 q 128 608 128 574 q 167 712 128 655 q 281 821 206 768 q 465 906 357 873 q 707 939 574 939 q 815 921 791 939 q 840 865 840 903 q 820 799 840 834 q 751 696 799 764 q 690 589 719 652 q 661 489 661 527 q 675 458 661 458 q 744 483 693 458 q 824 526 796 508 q 998 659 930 597 q 1105 768 1067 721 q 1163 840 1143 816 q 1199 864 1183 864 q 1230 842 1212 864 q 1249 800 1249 820 q 1234 765 1249 785 q 1175 696 1219 746 q 1020 495 1088 595 q 911 306 951 395 q 871 154 871 217 q 886 89 871 115 q 914 64 901 64 q 1078 153 968 64 q 1124 183 1116 183 q 1142 175 1142 183 q 1126 145 1142 164 q 1085 103 1110 126 q 1047 68 1060 80 q 836 -57 906 -57 q 766 -22 801 -57 q 730 56 730 13 q 760 196 730 116 q 821 332 789 276 q 893 455 873 425 q 950 553 924 502 z "},"Ø":{"ha":1500,"x_min":128,"x_max":1589,"o":"m 1256 450 l 1233 426 q 1113 297 1182 371 q 974 155 1043 222 q 847 43 905 88 q 757 -3 788 -3 q 716 27 736 -3 q 696 85 696 57 q 728 194 696 115 q 802 359 759 273 q 875 502 844 446 q 525 170 705 326 q 495 143 505 153 q 471 122 485 134 q 420 78 438 93 q 371 36 402 63 q 323 0 326 0 q 285 37 306 0 q 264 99 264 74 q 269 113 264 105 q 289 139 274 121 q 318 172 304 157 q 494 389 421 293 q 608 554 566 485 q 669 675 650 624 q 688 763 688 726 q 683 810 688 801 q 655 818 678 818 q 534 803 597 818 q 417 767 470 789 q 331 721 364 745 q 299 681 299 697 q 336 659 299 671 q 393 646 374 648 q 294 624 331 631 q 221 617 257 617 q 150 627 173 617 q 128 672 128 638 q 160 780 128 739 q 256 861 192 821 q 379 922 305 894 q 536 966 453 950 q 688 982 618 982 q 794 979 758 982 q 842 967 829 975 q 854 942 854 959 q 793 718 854 860 q 565 378 732 575 q 554 357 554 364 q 559 348 554 352 q 569 345 564 345 q 632 378 584 345 q 730 457 679 412 q 955 674 874 581 q 1073 828 1036 767 q 1134 923 1111 888 q 1189 958 1158 958 q 1217 926 1208 958 q 1231 846 1231 867 q 1226 808 1231 820 q 1196 763 1221 795 q 1028 530 1094 630 q 932 367 963 429 q 892 274 902 306 q 883 227 883 242 q 887 200 883 200 q 930 221 899 200 q 1009 285 961 241 q 1115 398 1057 329 q 1239 561 1174 467 q 1306 657 1274 610 q 1376 759 1338 704 q 1437 844 1414 813 q 1490 910 1460 874 q 1519 936 1512 936 q 1561 911 1546 936 q 1575 889 1568 900 q 1585 868 1582 878 q 1589 847 1589 858 q 1586 824 1589 832 q 1563 791 1575 808 q 1545 766 1551 774 q 1522 736 1539 759 q 1325 398 1390 557 q 1260 144 1260 240 q 1271 106 1260 117 q 1307 95 1282 95 q 1372 109 1340 95 q 1453 156 1404 123 q 1504 185 1495 185 q 1518 171 1518 185 q 1458 97 1518 148 q 1324 5 1399 46 q 1207 -36 1250 -36 q 1143 -5 1178 -36 q 1107 52 1107 26 q 1116 120 1107 80 q 1157 241 1125 160 q 1256 450 1190 321 z "},"Ù":{"ha":1500,"x_min":128,"x_max":1590,"o":"m 1254 450 l 1233 426 q 1190 382 1219 411 q 1121 304 1162 351 q 1008 187 1065 242 q 899 88 950 131 q 810 21 847 45 q 757 -3 773 -3 q 716 27 736 -3 q 696 85 696 57 q 727 193 696 116 q 801 357 758 270 q 873 502 843 445 q 524 168 699 321 q 497 145 519 164 q 471 122 475 126 q 371 36 440 94 q 323 0 326 0 q 285 37 306 0 q 264 99 264 74 q 271 116 264 107 q 318 172 278 126 q 553 480 471 349 q 663 684 636 610 q 690 792 690 759 q 655 818 690 818 q 518 802 584 818 q 404 763 453 786 q 327 716 355 739 q 299 681 299 692 q 336 659 299 671 q 393 646 374 648 q 294 624 331 631 q 219 617 257 617 q 145 632 163 617 q 128 672 128 647 q 184 814 128 761 q 345 908 241 867 q 506 959 412 936 q 686 982 599 982 q 822 974 791 982 q 853 942 853 966 q 825 804 853 888 q 731 608 797 719 q 565 378 666 497 q 554 357 554 364 q 559 348 554 352 q 569 345 564 345 q 593 356 573 345 q 614 370 598 359 q 666 403 647 389 q 730 457 684 417 q 945 662 861 570 q 1080 826 1029 754 q 1153 928 1132 897 q 1189 958 1175 958 q 1221 922 1212 958 q 1231 846 1231 886 q 1225 805 1231 819 q 1196 763 1219 792 q 991 473 1060 587 q 903 304 923 359 q 883 227 883 249 q 887 200 883 200 q 942 227 903 200 q 1058 334 982 253 q 1239 561 1134 415 q 1316 672 1274 610 q 1385 772 1359 735 q 1435 842 1411 810 q 1490 910 1459 874 q 1519 936 1512 936 q 1561 911 1545 936 q 1584 876 1578 886 q 1590 849 1590 865 q 1586 824 1590 839 q 1527 742 1543 763 q 1402 546 1463 657 q 1301 328 1340 436 q 1261 144 1261 219 q 1305 95 1261 95 q 1379 112 1332 95 q 1454 150 1426 130 q 1473 160 1466 157 q 1483 164 1481 163 q 1412 29 1483 151 q 1313 -133 1340 -94 q 1131 -334 1219 -264 q 936 -404 1044 -404 q 872 -386 896 -404 q 847 -346 847 -368 q 865 -295 847 -327 q 942 -188 883 -263 q 955 -170 948 -179 q 965 -156 961 -162 q 1001 -117 995 -117 q 1008 -119 1006 -117 l 1008 -124 q 1003 -136 1007 -131 q 992 -147 998 -141 q 983 -161 987 -153 q 979 -180 979 -169 q 1021 -222 979 -222 q 1332 29 1177 -222 q 1267 -13 1305 5 q 1207 -32 1229 -32 q 1143 -3 1179 -32 q 1107 52 1107 26 q 1142 204 1107 116 q 1207 351 1182 304 q 1254 450 1231 397 z "},"Ú":{"ha":810,"x_min":128,"x_max":899,"o":"m 617 515 q 677 585 631 544 q 774 657 722 626 q 863 688 826 688 q 892 666 886 688 q 899 598 899 644 q 886 516 899 553 q 844 417 872 479 q 764 280 812 348 q 662 166 730 233 q 520 49 593 98 q 396 0 447 0 q 346 14 373 0 q 300 59 319 28 q 280 136 280 90 q 295 247 280 189 q 341 373 309 304 q 421 525 372 443 q 546 725 469 607 q 582 801 582 781 q 547 812 582 812 q 394 761 488 812 q 312 708 347 735 q 247 652 278 681 q 201 613 217 624 q 168 602 185 602 q 128 664 128 602 q 171 773 128 714 q 281 880 215 831 q 410 953 347 929 q 399 912 399 942 q 406 910 399 910 q 508 947 429 910 q 615 991 571 976 q 715 1006 660 1006 q 795 978 774 1006 q 817 921 817 950 q 802 880 817 902 q 736 800 787 859 q 645 693 685 742 q 415 200 415 417 q 465 113 415 113 q 548 167 499 113 q 633 278 597 221 q 701 393 678 347 q 725 480 725 439 q 720 533 725 518 q 696 547 715 547 q 617 515 661 547 z "},"Û":{"ha":1125,"x_min":128,"x_max":1214,"o":"m 992 657 q 971 642 990 657 q 922 603 953 627 q 842 548 891 579 q 726 479 794 516 q 633 312 694 397 q 500 155 573 227 q 362 42 428 83 q 253 0 296 0 q 192 26 221 0 q 145 93 163 51 q 128 182 128 135 q 145 270 128 218 q 210 407 162 323 q 349 617 258 492 q 397 682 360 632 q 488 803 443 749 q 406 744 439 768 q 343 704 373 721 q 283 677 314 687 q 218 668 253 668 q 185 669 196 668 q 295 751 233 704 q 417 848 357 799 q 511 930 476 896 q 560 976 547 965 q 585 986 572 986 q 635 948 608 986 q 661 877 661 909 q 649 846 661 860 q 583 777 636 831 q 401 555 475 663 q 293 355 328 447 q 258 193 258 263 q 268 137 258 161 q 289 113 277 113 q 374 161 320 113 q 479 283 428 209 q 557 431 530 357 q 518 424 538 424 q 477 446 487 424 q 467 507 467 468 q 514 576 467 534 q 619 649 561 617 q 703 681 677 681 q 740 649 725 681 q 755 583 755 618 q 894 678 841 641 q 994 759 947 716 q 1086 853 1041 801 q 1138 908 1132 908 q 1188 878 1163 908 q 1214 817 1214 847 q 1211 806 1214 811 q 1198 787 1208 801 q 1186 769 1189 773 q 1051 556 1125 681 q 924 320 977 431 q 872 153 872 208 q 887 105 872 122 q 918 87 903 87 q 1002 134 948 87 q 1090 219 1055 180 q 1105 238 1099 230 q 1116 249 1112 245 q 1126 253 1121 253 q 1143 242 1143 253 q 1073 132 1143 216 q 918 -23 1002 47 q 785 -93 833 -93 q 725 -64 755 -93 q 694 8 694 -34 q 757 247 694 115 q 847 417 798 333 q 944 577 896 501 q 992 657 992 654 z "},"Ü":{"ha":665,"x_min":108,"x_max":735,"o":"m 468 812 q 364 729 408 760 q 280 683 320 699 q 197 668 240 668 q 165 669 176 668 q 339 801 232 716 q 492 929 446 886 q 565 986 548 986 q 610 961 585 986 q 635 914 635 936 q 606 839 635 881 q 506 714 578 797 q 236 193 236 403 q 245 137 236 161 q 267 113 255 113 q 377 186 308 113 q 499 354 446 259 q 551 507 551 449 q 540 540 551 540 q 513 532 526 540 q 480 509 499 524 q 454 494 460 494 q 447 507 447 494 q 496 566 447 522 q 601 645 544 609 q 683 681 657 681 q 718 655 702 681 q 735 606 735 629 q 683 449 735 550 q 550 243 631 348 q 384 69 469 139 q 233 0 299 0 q 173 26 202 0 q 126 93 144 51 q 108 182 108 136 q 132 286 108 227 q 192 406 155 344 q 280 543 230 468 q 383 690 341 631 q 468 812 435 760 z "},"Ý":{"ha":1104,"x_min":128,"x_max":1192,"o":"m 1174 463 q 1078 502 1126 494 q 933 252 1028 353 q 726 95 837 151 q 515 18 615 40 q 347 -4 415 -4 q 211 20 253 -4 q 170 105 170 44 q 180 183 170 135 q 340 168 258 168 q 548 191 444 168 q 745 259 651 214 q 907 370 838 303 q 1010 522 977 437 q 892 532 939 532 q 773 523 830 532 q 665 494 716 513 q 574 449 614 475 q 628 394 616 416 q 433 429 505 408 q 360 497 360 450 q 425 561 360 530 q 590 611 491 592 q 785 631 690 631 q 963 621 894 631 q 994 616 979 618 q 1015 612 1009 614 q 958 729 1015 687 q 814 788 901 772 q 625 804 728 804 q 434 778 500 804 q 318 717 367 752 q 401 693 366 696 q 293 635 346 652 q 203 618 240 618 q 154 623 170 618 q 133 642 138 629 q 128 681 128 654 q 179 821 128 762 q 312 917 229 880 q 490 970 395 953 q 679 986 585 986 q 1011 890 920 986 q 1103 663 1103 794 q 1097 592 1103 633 q 1192 537 1145 579 q 1174 463 1192 497 z "},"Þ":{"ha":1719,"x_min":128,"x_max":1769,"o":"m 743 479 q 1007 503 899 501 q 1143 694 1060 609 q 1316 837 1226 778 q 1482 927 1406 895 q 1601 965 1559 959 l 1635 965 q 1695 916 1664 959 q 1740 829 1726 874 q 1612 787 1669 822 q 1729 747 1689 787 q 1769 635 1769 706 q 1718 433 1769 544 q 1581 225 1668 323 q 1386 65 1494 127 q 1170 4 1278 4 q 1064 35 1109 4 q 978 137 1010 72 q 946 276 946 202 q 950 329 946 303 q 855 326 900 329 q 736 314 810 322 q 579 299 662 307 q 465 178 523 243 q 384 76 405 106 q 362 25 362 45 q 368 0 362 11 q 308 24 335 2 q 280 70 280 46 q 319 146 280 97 q 451 297 358 195 q 408 296 439 296 q 311 327 311 296 q 334 406 311 350 q 375 486 357 463 q 399 452 375 459 q 507 445 424 445 q 614 464 563 445 l 847 712 q 878 750 859 728 q 925 840 925 810 q 905 879 925 870 q 842 887 884 887 q 601 848 732 887 q 393 753 470 809 q 386 730 386 739 q 390 712 386 721 l 153 596 q 132 624 137 609 q 128 675 128 640 q 160 803 128 753 q 248 883 191 853 q 376 929 306 912 q 557 963 447 945 q 629 976 609 972 q 720 990 682 986 q 882 999 757 994 l 949 999 q 1021 969 1000 995 q 1043 871 1043 944 q 993 758 1043 813 l 743 479 m 1232 482 l 1199 496 q 1107 348 1145 440 q 1069 186 1069 256 q 1097 105 1069 130 q 1150 81 1125 81 q 1293 136 1206 81 q 1467 280 1381 192 q 1610 465 1554 368 q 1667 642 1667 562 q 1597 726 1667 726 q 1470 686 1540 726 q 1337 589 1400 646 q 1232 482 1274 533 z "},"ß":{"ha":897,"x_min":-67,"x_max":928,"o":"m 640 488 l 657 518 q 542 500 621 515 q 410 482 463 486 q 303 478 357 478 q 202 514 233 478 q 172 620 172 550 q 227 771 172 693 q 368 913 281 848 q 552 1016 455 977 q 729 1054 649 1054 q 851 1009 807 1054 q 912 907 896 963 q 928 810 928 850 q 916 765 928 788 q 868 687 904 742 q 817 607 832 633 q 856 610 838 610 q 873 611 864 611 q 890 614 882 612 l 903 614 q 908 600 908 610 q 865 554 908 576 q 739 478 805 523 q 645 211 645 285 q 697 161 645 161 q 722 168 709 161 q 749 185 734 174 q 777 207 763 196 q 860 282 823 244 q 907 319 896 319 q 926 306 926 319 q 846 193 926 264 q 669 61 765 121 q 545 0 572 0 q 499 17 523 0 q 475 72 475 34 q 510 231 475 142 q 592 396 546 324 l 28 8 q -17 -22 -8 -17 q -38 -28 -26 -28 q -61 -17 -55 -28 q -67 19 -67 -6 q -63 59 -65 39 q -52 94 -60 79 q -22 129 -44 109 q 40 178 -1 148 q 129 244 61 193 q 170 228 142 228 q 184 231 177 228 q 205 241 191 233 q 233 257 219 250 l 640 488 m 689 585 l 790 778 q 808 843 808 811 q 789 886 808 873 q 743 899 769 899 q 571 853 669 899 q 395 741 473 807 q 303 625 318 676 q 299 603 299 615 q 303 585 299 593 q 378 553 319 553 q 498 563 415 553 l 689 585 z "},"à":{"ha":642,"x_min":0,"x_max":642,"o":"m 510 450 q 533 405 527 418 q 539 376 539 393 q 533 353 539 366 q 516 324 527 340 q 488 282 505 307 q 443 207 454 229 q 431 161 431 184 q 447 119 431 132 q 480 107 463 107 q 568 146 509 107 q 577 151 574 149 q 585 156 581 154 q 612 176 608 172 q 635 188 628 188 q 642 179 642 188 q 536 65 642 165 q 380 -26 440 -26 q 329 -8 352 -26 q 306 47 306 10 q 337 171 306 108 q 362 223 345 183 q 317 179 345 204 q 278 140 297 160 q 173 48 234 97 q 81 0 113 0 q 37 30 56 0 q 9 100 19 59 q 0 168 0 141 q 61 311 0 245 q 192 425 123 377 q 341 508 254 468 q 480 549 428 549 q 529 532 510 549 q 549 498 549 515 q 525 464 549 482 q 510 450 515 457 m 79 157 q 97 118 79 127 l 117 118 q 268 208 167 130 q 360 295 310 242 q 410 374 410 348 q 380 392 410 392 q 257 357 330 392 q 132 267 184 322 q 79 157 79 212 z "},"á":{"ha":450,"x_min":0,"x_max":567,"o":"m 111 380 q 261 479 180 443 q 397 515 343 515 q 457 483 443 515 q 472 385 472 451 q 449 291 472 335 q 350 170 426 248 q 219 51 286 102 q 114 0 152 0 q 62 27 89 0 q 18 95 35 55 q 0 168 0 136 q 45 358 0 241 q 136 540 90 475 q 274 670 202 633 q 425 726 346 708 q 494 748 476 738 q 526 775 513 758 q 547 787 536 787 q 567 717 567 787 q 560 668 566 685 q 531 639 553 651 q 460 620 508 627 q 290 575 361 603 q 174 500 219 547 q 111 380 128 452 m 132 118 q 202 151 153 118 q 261 194 252 185 q 367 298 319 241 q 414 380 414 355 q 385 403 414 403 q 294 378 347 403 q 204 323 242 353 q 138 257 169 297 q 107 171 107 217 q 132 118 107 118 z "},"â":{"ha":524,"x_min":19,"x_max":640,"o":"m 551 211 l 551 153 q 445 115 498 115 q 371 136 408 115 q 241 3 295 49 q 131 -43 187 -43 q 81 -29 105 -43 q 37 26 56 -14 q 19 138 19 66 q 44 306 19 224 q 106 456 68 388 q 184 578 143 525 q 268 679 224 631 q 450 854 337 754 q 604 954 563 954 q 630 938 619 954 q 640 903 640 922 q 607 809 640 872 q 516 664 574 746 q 384 494 458 583 q 232 327 310 406 q 142 249 184 276 q 136 131 136 217 q 148 88 136 107 q 186 68 160 68 q 246 98 216 68 q 289 162 276 128 q 271 217 271 182 q 306 303 271 254 q 387 390 340 353 q 465 426 434 426 q 492 392 492 426 q 490 375 492 385 q 489 362 489 364 q 484 332 489 346 q 466 294 479 318 q 450 265 453 270 q 407 193 428 219 q 461 180 431 180 q 551 211 498 180 m 162 340 q 413 624 282 452 q 532 818 532 777 q 528 828 532 823 q 518 833 523 833 q 480 814 502 833 q 425 760 458 794 q 331 654 375 707 q 237 517 288 602 q 162 340 186 431 z "},"ã":{"ha":425,"x_min":0,"x_max":425,"o":"m 357 476 l 378 437 q 382 419 382 429 q 315 315 382 388 q 229 157 229 219 q 244 123 229 131 q 285 115 260 115 q 392 176 318 115 q 419 193 412 193 q 425 186 425 193 q 379 120 425 170 q 311 53 333 71 q 131 -43 204 -43 q 78 -19 95 -43 q 61 42 61 5 q 102 151 61 92 q 229 297 143 210 q 272 362 272 340 q 251 376 272 376 q 118 323 198 376 q 54 274 82 300 q 14 247 25 247 q 0 258 0 247 q 51 333 0 279 q 157 422 102 388 q 322 493 269 493 q 357 476 347 493 z "},"ä":{"ha":636,"x_min":0,"x_max":636,"o":"m 323 -74 l 292 -132 q 222 -259 240 -227 q 177 -331 204 -291 q 123 -396 151 -371 q 71 -421 96 -421 q 21 -306 21 -421 q 45 -167 21 -218 q 107 -90 70 -115 q 201 -46 145 -65 q 264 -21 227 -38 q 375 175 310 65 q 255 74 301 111 q 177 21 208 38 q 124 4 146 4 q 71 37 100 4 q 21 116 41 71 q 0 190 0 161 q 52 296 0 238 q 187 405 105 353 q 356 488 269 456 q 507 519 444 519 q 562 489 538 519 q 586 380 586 458 q 572 331 586 354 l 364 3 l 602 113 q 611 115 603 113 q 622 118 619 117 q 636 105 636 118 q 622 83 636 93 l 323 -74 m 113 122 q 129 117 118 117 q 241 174 148 117 q 413 296 334 231 q 492 396 492 362 q 487 404 492 400 q 475 408 483 408 q 405 391 452 408 q 307 349 357 373 q 227 303 257 324 q 137 229 168 264 q 105 143 105 194 q 113 122 105 127 m 231 -97 q 107 -184 148 -124 q 67 -319 67 -245 q 102 -307 87 -317 q 130 -278 117 -296 q 161 -225 143 -259 q 193 -167 180 -192 l 231 -97 z "},"å":{"ha":443,"x_min":0,"x_max":443,"o":"m 124 192 q 148 108 124 133 q 205 82 172 82 q 276 101 236 82 q 346 140 303 114 q 399 178 369 156 q 435 200 429 200 q 443 179 443 200 q 333 61 443 154 q 324 53 327 55 q 319 48 321 50 q 313 42 317 46 q 306 36 309 39 q 225 -19 271 4 q 133 -43 178 -43 q 37 1 75 -43 q 0 117 0 44 q 31 244 0 174 q 115 379 62 315 q 232 483 168 443 q 358 522 296 522 q 421 501 402 522 q 440 454 440 480 q 393 355 440 413 q 271 251 345 297 q 124 192 197 204 m 124 243 q 206 282 158 253 q 290 348 254 312 q 325 413 325 384 q 296 449 325 449 q 227 415 262 449 q 163 332 191 381 q 124 243 135 283 z "},"æ":{"ha":1001,"x_min":0,"x_max":1001,"o":"m 555 370 q 453 314 512 342 q 250 105 374 210 q 35 0 126 0 q 6 10 12 0 q 0 42 0 19 q 16 123 0 74 q 52 172 33 172 q 71 164 57 172 q 105 156 84 156 q 221 195 152 156 q 347 291 290 235 q 419 394 403 347 q 424 411 424 403 q 419 424 424 419 q 404 429 414 429 q 340 413 385 429 q 240 366 296 397 q 131 292 184 334 q 103 372 103 325 q 110 422 103 388 q 199 472 142 449 q 315 510 256 496 q 410 525 374 525 q 467 510 454 525 q 480 468 479 496 l 480 450 q 478 403 480 425 q 561 446 524 419 q 633 512 598 473 q 729 629 668 551 q 851 664 828 664 q 858 661 858 664 q 831 614 858 652 q 787 557 805 576 q 603 311 694 451 q 511 161 563 251 q 654 275 579 211 q 981 486 903 486 q 994 478 987 486 q 1001 454 1001 469 q 983 390 1001 429 q 933 325 965 352 q 861 297 901 297 q 811 310 838 297 q 712 222 761 276 q 664 133 664 169 q 674 107 664 112 q 703 101 684 101 q 792 121 751 101 q 875 171 833 141 q 925 201 917 201 q 933 193 933 201 q 882 112 933 168 q 766 10 830 56 q 669 -36 702 -36 q 611 -2 641 -36 q 582 86 582 32 q 590 143 582 112 q 453 33 495 80 q 364 -97 412 -15 q 332 -152 339 -140 q 317 -178 325 -163 q 270 -236 290 -236 q 257 -220 260 -236 q 254 -162 254 -204 q 256 -111 254 -122 q 270 -79 258 -99 l 555 370 z "},"ç":{"ha":486,"x_min":-117,"x_max":486,"o":"m 81 114 l 105 207 q 287 299 194 241 q 380 399 380 358 q 353 417 380 417 q 285 406 321 417 q 156 355 203 382 q 76 304 108 329 q 35 279 45 279 q 22 349 22 279 q 49 410 22 385 q 140 463 75 435 q 360 519 275 519 q 432 474 408 519 q 455 378 455 428 q 419 305 455 347 q 327 222 382 263 q 217 153 271 182 q 272 26 272 110 q 374 84 332 59 q 431 119 416 110 q 474 138 459 138 q 486 117 486 138 q 471 95 486 109 q 428 64 456 82 q 358 20 400 45 q 271 -33 316 -5 q 178 -223 246 -130 q 34 -377 109 -317 q -79 -437 -41 -437 q -107 -418 -98 -437 q -117 -371 -117 -398 q -65 -231 -117 -295 q 99 -85 -14 -166 q 127 -64 107 -78 q 170 -31 146 -49 q 172 -5 172 -14 q 147 73 172 39 q 81 114 121 107 m 154 -96 q 46 -183 83 -151 q -19 -252 8 -215 q -47 -327 -47 -290 q -40 -346 -47 -346 q 18 -308 -22 -346 q 97 -211 58 -269 q 154 -96 137 -152 z "},"è":{"ha":600,"x_min":0,"x_max":600,"o":"m 304 180 q 195 57 241 99 q 125 6 149 15 q 85 -4 101 -4 q 43 22 62 -4 q 12 93 23 48 q 0 188 0 137 q 42 312 0 237 q 139 442 83 387 q 236 497 195 497 q 276 489 257 497 q 294 467 294 480 q 268 412 294 448 q 204 341 242 376 q 133 289 166 306 q 100 270 109 275 q 92 223 92 246 q 104 175 92 195 q 135 154 117 154 q 193 180 155 154 q 278 250 242 215 l 525 494 q 549 510 540 510 q 573 491 562 510 q 583 426 583 472 q 578 404 583 410 l 454 270 q 408 165 408 220 q 421 119 408 130 q 445 108 434 108 q 489 121 459 108 q 536 146 518 134 q 589 179 590 179 q 600 168 600 179 q 545 96 600 143 q 425 9 491 49 q 340 -31 358 -31 q 300 -12 317 -31 q 283 47 283 7 q 304 180 283 99 z "},"é":{"ha":625,"x_min":0,"x_max":625,"o":"m 303 180 q 190 54 251 113 q 89 -4 129 -4 q 52 11 73 -4 q 16 68 32 27 q 0 183 0 110 q 14 266 0 235 q 67 350 28 296 q 124 431 107 408 q 171 476 142 454 q 235 497 200 497 q 274 489 256 497 q 293 467 293 480 q 267 412 293 448 q 202 341 240 376 q 132 289 164 306 q 99 270 107 275 q 90 223 90 249 q 101 174 90 194 q 132 154 112 154 q 203 188 156 154 q 276 250 249 222 l 524 494 q 547 510 539 510 q 571 491 561 510 q 582 426 582 472 q 576 404 582 410 l 453 270 q 407 165 407 220 q 445 108 407 108 q 494 124 464 108 q 547 154 525 139 q 588 179 584 179 q 598 168 598 179 q 539 97 598 150 q 532 92 536 95 q 526 87 529 90 q 339 -31 394 -31 q 299 -12 316 -31 q 282 47 282 7 q 303 180 282 98 m 622 688 q 625 675 625 685 q 582 623 625 658 q 489 560 539 588 q 419 532 439 532 q 365 556 390 532 q 340 642 340 581 q 374 701 340 675 q 435 726 408 726 q 451 711 451 726 q 448 689 451 704 q 445 668 445 674 q 456 644 445 653 q 486 635 467 635 q 578 679 523 635 q 608 694 601 694 q 622 688 618 694 z "},"ê":{"ha":610,"x_min":0,"x_max":610,"o":"m 156 144 l 44 8 q 33 0 41 0 q 12 36 23 0 q 0 144 0 73 q 15 251 0 208 q 60 346 30 295 q 67 358 64 353 q 74 368 70 362 q 136 460 101 417 q 151 480 142 468 q 164 496 160 491 q 188 525 172 509 q 215 542 204 542 q 240 508 230 542 q 250 445 250 474 q 243 411 250 424 q 210 375 235 399 q 118 259 141 309 q 95 158 95 208 q 215 293 150 229 q 342 405 280 358 q 453 479 403 452 q 528 506 502 506 q 559 488 544 506 q 575 435 575 470 q 512 260 575 311 q 457 272 488 260 q 426 303 426 284 q 429 310 426 306 q 434 315 431 313 q 440 321 436 317 q 461 347 457 330 l 461 362 q 439 375 456 375 q 343 324 405 375 q 239 221 282 273 q 293 191 272 210 q 340 139 314 172 q 382 90 366 105 q 415 75 398 75 q 521 129 443 75 q 574 167 549 149 q 598 182 591 182 q 606 177 603 182 q 610 168 610 173 q 567 105 610 154 q 494 33 524 57 q 343 -36 405 -36 q 266 -4 294 -36 q 215 74 238 28 q 188 122 199 107 q 156 144 177 137 z "},"ë":{"ha":607,"x_min":0,"x_max":607,"o":"m 388 282 q 295 223 345 264 q 144 75 245 181 q 123 52 139 69 q 96 25 107 35 q 73 7 84 14 q 52 0 61 0 q 16 26 32 0 q 0 82 0 53 q 18 161 0 117 q 61 238 36 206 q 104 271 86 271 q 119 262 119 271 q 113 243 119 259 q 97 143 97 201 q 107 108 97 108 q 171 168 120 108 q 256 262 218 224 q 323 326 293 301 q 385 378 352 352 q 453 427 409 398 q 515 455 497 455 q 540 429 527 455 q 553 380 553 402 q 506 314 553 371 q 482 283 497 306 q 469 265 473 271 q 461 254 465 259 q 414 151 414 196 q 457 117 414 117 q 572 190 499 117 q 596 205 587 205 q 607 190 607 205 q 581 150 607 179 q 568 137 571 140 q 561 129 566 134 q 550 117 556 123 q 536 100 542 106 q 523 86 530 93 q 510 74 516 80 q 490 56 506 71 q 353 -29 406 -29 q 302 -3 325 -29 q 279 78 279 24 q 287 125 279 103 q 309 166 295 146 q 331 200 322 187 q 388 282 363 251 z "},"ì":{"ha":886,"x_min":0,"x_max":886,"o":"m 449 175 q 500 225 488 212 q 661 367 557 283 q 792 450 766 450 q 822 423 807 450 q 838 374 838 397 q 829 344 838 355 q 794 308 820 333 q 726 227 758 273 q 694 146 694 182 q 738 97 694 97 q 853 178 782 97 q 872 192 863 192 q 886 179 886 192 q 874 149 886 164 q 832 100 863 135 q 725 5 784 48 q 621 -38 667 -38 q 547 36 547 -38 q 566 110 547 72 q 626 205 585 147 q 669 280 655 244 q 482 131 564 213 q 389 42 427 78 q 337 -6 352 6 q 311 -18 321 -18 q 285 67 285 -18 q 345 185 285 98 q 406 307 406 274 q 401 310 406 310 q 316 251 383 310 q 176 104 249 193 q 101 22 126 44 q 56 0 76 0 q 16 27 33 0 q 0 97 0 54 q 21 173 0 131 q 69 247 42 215 q 113 278 97 278 q 125 270 125 278 q 118 242 125 259 q 106 204 111 224 q 101 147 101 184 q 110 110 101 110 q 174 175 122 110 q 311 329 254 275 q 380 390 333 350 q 469 460 427 429 q 526 490 512 490 q 556 473 543 490 q 569 413 569 455 q 535 345 569 388 q 449 189 449 235 l 449 175 z "},"í":{"ha":660,"x_min":0,"x_max":660,"o":"m 183 285 l 285 475 q 205 415 263 456 q 134 369 179 397 q 71 336 88 341 l 62 336 q 58 342 58 340 q 97 379 58 351 q 232 495 151 419 q 343 608 312 570 q 369 634 361 630 q 393 639 377 639 q 445 608 445 639 q 439 576 445 587 q 416 546 433 565 q 383 503 399 527 q 347 436 366 478 q 337 416 343 429 q 323 390 330 403 q 309 359 315 371 q 294 328 303 346 q 368 335 331 335 q 421 331 402 335 q 579 521 531 521 q 607 445 607 521 q 602 410 607 419 q 578 385 596 401 q 498 294 538 351 q 453 201 458 238 l 453 179 q 494 146 458 146 q 594 189 546 146 q 650 227 636 227 q 660 211 660 227 q 633 171 660 200 q 578 118 605 141 q 551 93 564 105 q 524 68 539 80 q 513 60 515 61 q 506 53 511 58 q 447 15 480 30 q 386 0 414 0 q 339 13 361 0 q 317 62 317 26 q 399 280 317 133 q 376 283 383 283 q 308 271 345 283 q 246 242 270 258 q 199 157 220 198 q 100 -11 138 45 q 29 -67 62 -67 q 0 -21 0 -67 q 26 85 0 26 q 95 199 52 144 q 183 285 138 253 z "},"î":{"ha":502,"x_min":0,"x_max":502,"o":"m 413 433 q 457 357 457 419 q 450 308 457 335 q 399 186 435 243 q 394 175 394 180 q 404 158 394 165 q 426 151 413 151 q 459 164 442 151 q 486 176 477 176 q 502 167 502 176 q 477 134 502 154 q 413 99 452 114 q 333 85 374 85 q 151 -17 250 -17 q 37 52 75 -17 q 0 183 0 120 q 59 329 0 253 q 201 457 119 406 q 343 508 284 508 q 397 494 375 508 q 419 468 419 480 q 417 447 419 461 q 413 433 415 445 m 286 126 q 271 189 271 157 q 286 261 271 221 q 314 327 299 294 q 329 367 329 360 q 322 376 329 372 q 308 380 315 380 q 244 349 287 380 q 180 296 200 317 q 117 215 137 251 q 96 128 96 178 q 111 87 96 107 q 165 68 125 68 q 286 126 221 68 z "},"ï":{"ha":615,"x_min":0,"x_max":615,"o":"m 108 151 q 203 243 137 183 q 225 263 218 257 q 235 272 232 270 q 247 283 237 274 q 337 359 279 313 q 450 438 395 405 q 529 472 505 472 q 564 419 564 472 q 550 365 564 391 q 516 315 536 339 q 469 258 496 291 q 417 147 417 190 q 460 105 417 105 q 565 162 504 105 q 604 188 593 188 q 615 170 615 188 q 590 133 615 158 q 457 17 530 72 q 340 -38 384 -38 q 294 -19 314 -38 q 274 39 274 0 q 308 143 274 91 q 353 202 323 166 q 383 251 383 239 q 354 274 383 274 q 239 203 313 274 q 160 121 181 146 q 111 53 139 96 q 56 0 76 0 q 0 131 6 0 l 0 168 q 21 240 4 209 q 82 329 39 271 q 155 417 132 397 q 214 437 178 437 q 264 410 264 437 q 240 372 264 396 q 218 348 233 365 q 190 317 203 331 q 161 283 169 291 q 99 199 99 221 q 108 151 99 173 z "},"ð":{"ha":647,"x_min":-97,"x_max":647,"o":"m 237 382 l 22 193 q -7 174 1 174 q -18 179 -16 174 l -18 190 q 56 278 -7 222 q 192 405 118 335 q 332 568 267 475 q 394 649 373 628 q 453 669 415 669 q 483 663 470 669 q 497 647 497 656 q 494 643 497 645 q 434 588 455 618 q 380 499 412 558 q 329 411 349 440 q 301 367 317 394 q 260 297 277 325 q 338 365 285 323 q 444 438 391 407 q 526 469 497 469 q 575 450 556 469 q 594 393 594 432 q 559 293 594 349 q 472 186 525 238 q 362 96 419 135 q 451 79 402 79 q 617 162 548 79 q 635 176 630 176 q 647 168 647 176 q 608 110 647 147 q 427 -8 519 22 q 261 -39 334 -39 q 111 15 184 -39 q 41 -145 76 -60 q -6 -257 6 -229 q -32 -303 -18 -286 q -64 -321 -46 -321 q -89 -302 -80 -321 q -97 -260 -97 -284 q -56 -79 -97 -221 q 75 82 -4 13 l 237 382 m 170 121 q 229 135 201 135 q 301 114 266 135 q 399 208 356 154 q 450 292 443 263 l 450 313 q 415 335 442 335 q 300 266 373 335 q 170 121 228 197 z "},"ñ":{"ha":471,"x_min":0,"x_max":471,"o":"m 0 172 q 39 293 0 230 q 138 408 77 356 q 263 492 198 460 q 379 524 329 524 q 435 482 435 524 q 408 411 435 458 q 350 325 382 363 q 300 286 317 286 q 280 310 288 286 q 262 335 272 331 l 244 335 q 176 294 214 327 q 111 222 138 262 q 85 154 85 181 q 112 97 85 123 q 201 71 140 71 q 354 125 268 71 q 422 172 393 150 q 458 194 451 194 q 471 180 471 194 q 455 154 471 172 q 321 28 413 101 q 158 -47 228 -47 q 40 28 80 -47 q 0 172 0 103 z "},"ò":{"ha":903,"x_min":0,"x_max":903,"o":"m 108 153 q 313 339 192 239 q 519 472 474 472 q 554 458 546 472 q 563 419 563 444 q 543 362 563 399 q 512 315 530 337 q 488 276 499 297 q 465 246 478 258 q 450 217 450 228 q 458 205 450 205 q 496 232 467 205 q 536 268 517 252 q 578 304 558 287 q 612 332 598 321 q 672 374 631 347 q 753 424 713 402 q 806 446 792 446 q 839 410 829 446 q 841 402 840 408 q 846 389 843 396 q 851 365 851 375 q 829 332 851 351 q 706 147 706 218 q 747 105 706 105 q 869 175 793 105 q 893 188 882 188 q 903 182 900 188 l 903 170 q 789 52 891 133 q 629 -38 677 -38 q 584 -23 604 -38 q 564 19 564 -9 q 597 143 564 75 q 631 203 615 181 q 649 244 649 232 q 636 253 649 253 q 561 203 621 253 q 451 103 515 165 q 362 21 387 41 q 314 0 336 0 q 291 13 301 0 q 280 47 280 26 q 321 146 280 82 q 356 201 337 173 q 379 237 374 229 q 383 251 383 244 q 353 274 383 274 q 239 203 309 274 q 160 121 181 146 q 111 53 139 96 q 56 0 76 0 q 17 30 34 0 q 0 131 0 60 q 8 208 0 178 q 30 259 16 238 q 83 332 44 280 q 133 394 117 375 q 174 426 150 412 q 231 439 198 439 q 255 430 247 439 q 264 413 264 421 q 236 368 264 399 q 174 299 182 312 q 146 267 154 274 q 99 193 99 215 q 108 153 99 177 m 386 492 q 372 549 372 504 q 421 625 372 589 q 541 687 471 661 q 680 728 611 713 q 779 743 748 743 q 842 728 821 743 q 863 696 863 713 q 860 686 863 691 l 820 620 q 704 636 786 636 q 592 618 654 636 q 472 566 529 600 q 386 492 416 533 z "},"ó":{"ha":598,"x_min":0,"x_max":598,"o":"m 128 256 q 103 209 109 223 q 97 175 97 195 q 104 149 97 159 q 119 139 112 139 q 311 274 149 139 q 446 397 393 341 q 488 439 464 415 q 518 469 513 465 q 531 482 522 473 q 553 494 543 494 q 573 479 566 494 q 581 442 581 463 q 554 370 581 410 l 353 50 q 329 10 332 17 l 329 0 q 335 -4 333 -4 q 362 11 345 -4 l 553 175 q 579 194 576 193 l 592 194 q 598 185 598 192 q 588 165 598 183 l 343 -90 q 244 -203 284 -152 q 161 -304 191 -271 q 114 -336 130 -336 q 95 -243 95 -336 q 101 -219 95 -231 q 120 -186 107 -208 q 146 -143 134 -165 l 276 95 q 283 121 283 109 q 279 125 281 125 q 268 119 277 125 q 174 50 210 75 q 116 12 139 25 q 81 0 93 0 q 47 31 66 0 q 14 101 28 62 q 0 158 0 140 q 18 259 0 213 q 79 361 37 306 q 179 463 113 405 q 272 521 244 521 q 309 505 291 521 q 328 474 328 489 q 293 404 328 452 q 210 312 258 356 q 128 256 163 268 z "},"ô":{"ha":892,"x_min":0,"x_max":930,"o":"m 522 329 q 647 417 567 371 q 764 464 727 464 q 804 440 784 464 q 824 365 824 416 q 771 199 824 289 q 833 209 815 202 q 873 230 850 217 q 912 243 895 243 q 930 222 930 243 q 890 180 930 203 q 724 133 822 142 q 565 -4 627 28 q 469 -36 504 -36 q 438 -25 446 -36 q 429 10 429 -15 q 463 84 429 45 q 554 151 496 122 q 681 185 612 179 q 720 304 720 262 q 696 339 720 331 l 667 339 q 583 301 626 330 q 504 237 539 272 q 458 179 469 201 l 205 -329 q 194 -350 197 -345 q 182 -356 190 -356 q 159 -345 170 -356 q 149 -317 149 -334 q 151 -300 149 -311 q 169 -194 165 -247 q 180 -112 172 -141 q 229 -25 188 -82 q 367 142 269 32 l 396 210 q 75 0 154 0 q 0 158 0 0 q 24 274 0 220 q 136 399 48 329 q 276 484 186 439 q 417 529 367 529 q 465 503 452 529 q 485 426 478 476 l 582 637 q 606 660 593 660 q 657 593 642 660 q 655 574 657 582 l 522 329 m 125 115 q 207 148 147 115 q 310 218 266 181 q 414 319 387 284 q 442 379 442 354 q 394 421 442 421 q 302 386 358 421 q 204 311 245 352 q 128 215 145 254 q 111 139 111 175 q 125 115 111 115 z "},"õ":{"ha":545,"x_min":0,"x_max":545,"o":"m 351 368 l 494 474 q 533 492 520 492 q 545 480 545 492 q 510 428 545 458 l 349 282 l 337 139 q 364 92 337 92 q 421 121 379 92 q 433 130 429 127 q 442 136 437 132 q 476 154 462 154 q 490 139 490 154 q 434 80 490 132 q 319 -16 377 28 q 242 -60 261 -60 q 220 -49 231 -60 q 210 -14 210 -38 q 218 60 210 2 q 229 164 226 118 q 148 78 192 115 q 64 21 103 41 q 10 0 26 0 q 0 18 0 0 q 28 89 0 46 q 81 139 56 132 l 135 147 l 229 240 q 235 307 232 259 q 227 378 235 356 q 197 399 219 399 q 149 375 181 399 l 65 314 q 48 307 57 307 q 36 314 40 307 l 36 328 q 96 402 44 353 q 204 490 148 451 q 279 529 260 529 q 331 502 309 529 q 353 408 353 475 q 351 368 353 382 z "},"ö":{"ha":620,"x_min":0,"x_max":600,"o":"m 336 -221 q 420 -107 388 -176 q 463 31 452 -38 q 400 -10 437 10 q 339 -31 363 -31 q 294 -6 306 -31 q 282 47 282 18 q 307 180 282 109 q 83 -4 152 -4 q 48 12 67 -4 q 14 65 28 29 q 0 158 0 102 q 37 295 0 213 q 128 437 74 377 q 235 497 183 497 q 277 488 261 497 q 293 467 293 478 q 238 376 293 437 q 129 286 182 314 q 116 279 122 282 q 99 270 111 276 q 90 218 90 243 q 99 173 90 190 q 122 156 108 156 q 203 192 149 156 q 279 250 258 229 l 524 494 q 549 510 539 510 q 583 433 576 510 l 583 421 q 578 404 583 410 l 453 270 q 406 165 406 222 q 449 108 406 108 q 543 150 487 108 q 588 179 584 179 q 600 160 600 179 q 584 65 600 123 q 537 -59 568 6 q 456 -188 506 -124 q 342 -301 407 -252 q 283 -323 313 -323 q 240 -314 267 -323 q 211 -188 211 -264 q 257 -130 218 -150 q 353 -110 296 -110 q 329 -180 329 -144 q 336 -221 329 -198 z "},"÷":{"ha":472,"x_min":19,"x_max":472,"o":"m 19 236 q 36 280 19 251 q 68 361 68 335 q 58 375 68 366 q 48 394 48 383 q 76 462 48 424 q 141 529 104 500 q 200 557 178 557 q 214 542 214 557 q 212 530 214 536 q 210 521 210 524 q 217 504 210 512 q 240 496 225 496 q 297 503 254 496 q 352 512 321 506 q 394 518 384 518 q 421 503 412 518 q 436 457 436 480 q 394 385 436 426 q 307 280 352 345 q 262 174 262 214 q 317 121 262 121 q 435 188 356 121 q 458 199 446 199 q 472 185 472 199 q 353 64 472 165 q 183 -3 268 -3 q 133 21 153 -3 q 113 86 113 45 q 129 155 113 125 q 179 228 146 184 q 243 304 209 266 q 290 372 290 357 q 239 394 290 394 q 161 389 184 394 q 130 372 138 383 q 110 331 123 362 q 64 257 89 281 q 24 233 38 233 q 19 236 19 233 z "},"ø":{"ha":856,"x_min":0,"x_max":856,"o":"m 265 144 q 92 0 151 0 q 48 26 70 0 q 13 90 26 52 q 0 165 0 129 q 41 307 0 233 q 136 435 82 381 q 219 496 190 488 l 256 496 q 285 490 275 494 q 296 467 296 485 q 262 399 296 441 q 182 322 228 357 q 101 279 135 287 q 90 205 90 232 q 99 176 90 190 q 118 162 109 162 q 257 258 149 162 q 306 303 277 278 q 424 424 345 338 q 502 507 487 492 q 529 522 517 522 q 557 506 543 522 q 571 472 571 490 q 560 429 571 446 q 517 385 549 413 q 361 188 361 242 q 368 166 361 177 q 382 156 374 156 q 435 180 396 156 q 496 222 475 205 q 506 231 497 223 q 525 247 515 238 q 592 304 546 262 q 676 389 636 345 q 727 450 719 436 q 755 485 735 465 q 783 500 772 500 q 816 481 802 500 q 830 440 830 462 q 799 392 830 424 q 754 347 782 375 q 701 289 726 319 q 659 227 675 258 q 642 171 642 196 q 661 121 642 136 q 700 107 681 107 q 736 117 722 107 q 769 148 751 127 q 801 178 787 168 q 835 189 815 189 q 856 179 856 189 q 809 109 856 161 q 705 14 763 57 q 607 -29 647 -29 q 522 65 522 -29 q 540 164 522 102 q 443 54 502 108 q 345 0 385 0 q 307 17 326 0 q 277 66 289 33 q 265 144 265 99 z "},"ù":{"ha":869,"x_min":0,"x_max":850,"o":"m 101 279 q 90 205 90 237 q 121 161 90 161 q 187 200 136 161 q 293 288 238 238 q 370 365 348 339 q 398 398 386 385 q 424 424 411 411 q 466 470 439 440 q 507 511 493 500 q 529 522 520 522 q 557 506 543 522 q 571 472 571 490 q 560 429 571 446 q 518 385 549 413 q 421 282 479 352 q 362 178 362 213 q 369 163 362 170 q 383 156 376 156 q 437 180 398 156 q 493 221 475 204 q 508 232 504 229 q 519 242 513 236 q 551 266 535 253 q 578 291 567 280 q 597 308 590 302 q 617 325 607 317 q 636 342 628 333 q 658 366 645 351 q 700 418 670 380 q 754 484 739 468 q 783 500 769 500 q 816 481 802 500 q 830 440 830 462 q 799 392 830 424 q 677 251 712 303 q 642 165 642 199 q 701 108 642 108 q 743 117 726 108 q 792 149 760 126 q 838 179 832 179 q 850 160 850 179 q 831 50 850 111 q 778 -78 813 -12 q 695 -202 742 -144 q 592 -301 648 -260 q 533 -323 564 -323 q 490 -314 517 -323 q 461 -188 461 -264 q 505 -130 466 -150 q 603 -110 544 -110 q 579 -180 579 -144 q 586 -221 579 -198 q 665 -114 632 -182 q 712 31 699 -46 q 653 -9 693 13 q 589 -31 613 -31 q 543 -3 564 -31 q 522 71 522 25 q 540 164 522 105 q 443 54 502 108 q 345 0 385 0 q 307 17 326 0 q 277 66 289 33 q 265 144 265 99 q 92 0 151 0 q 48 26 70 0 q 13 90 26 52 q 0 165 0 129 q 41 307 0 233 q 136 435 82 381 q 219 496 190 488 l 256 496 q 285 490 275 494 q 296 467 296 485 q 262 399 296 441 q 182 322 228 357 q 101 279 135 287 z "},"ú":{"ha":549,"x_min":0,"x_max":549,"o":"m 371 62 q 249 -1 295 -1 q 178 47 207 -1 q 149 144 149 95 q 221 342 149 247 q 285 409 250 379 q 319 445 319 439 q 289 451 319 451 q 184 435 232 451 q 136 386 136 418 q 140 368 136 379 q 107 367 131 367 q 0 432 5 367 l 0 443 q 55 512 3 481 q 189 542 107 542 q 249 537 219 542 q 286 531 256 536 q 337 522 316 525 q 386 519 359 519 q 425 524 411 519 q 440 528 439 528 q 463 501 451 528 q 474 450 474 475 q 468 427 474 434 q 431 404 462 420 q 323 323 373 376 q 243 216 273 271 q 214 128 214 161 q 243 81 214 81 q 281 92 260 81 q 315 121 301 104 q 310 162 310 140 q 326 238 310 201 q 371 298 343 275 q 426 321 398 321 q 467 303 453 321 q 480 258 480 285 q 464 189 480 228 q 429 125 448 150 q 463 114 446 114 q 517 144 490 114 q 539 158 531 158 q 549 151 546 158 l 549 132 q 512 70 539 98 q 450 42 484 42 q 371 62 401 42 z "},"û":{"ha":708,"x_min":0,"x_max":708,"o":"m 119 311 q 69 302 103 307 q 18 297 35 297 q 0 319 0 297 q 9 332 0 328 q 39 343 17 337 q 74 357 60 350 q 214 450 107 374 q 290 508 261 483 q 342 546 331 546 q 407 461 388 546 q 303 395 334 416 q 257 355 273 373 q 214 297 241 337 q 158 150 158 219 q 189 82 158 82 q 228 110 209 82 q 253 232 228 184 q 311 299 278 279 q 371 319 345 319 q 397 305 385 319 q 410 260 410 290 q 406 227 410 245 q 607 458 482 269 q 643 489 629 489 q 670 461 657 489 q 682 415 682 434 q 672 385 682 398 q 631 340 661 371 q 553 250 582 290 q 524 162 524 210 q 561 104 524 104 q 668 157 615 104 q 692 172 684 172 q 708 162 708 172 q 639 75 708 136 q 539 -10 573 15 q 469 -35 505 -35 q 418 -15 437 -35 q 399 40 399 4 q 432 180 399 119 q 393 157 416 166 q 382 152 384 153 q 376 150 379 151 q 280 51 345 102 q 179 0 216 0 q 135 26 158 0 q 97 94 112 52 q 82 179 82 136 q 119 311 82 236 z "},"ü":{"ha":479,"x_min":0,"x_max":479,"o":"m 118 311 q 69 302 103 307 q 18 297 35 297 q 0 319 0 297 q 9 334 0 329 q 41 345 19 339 q 75 357 62 352 q 214 447 129 381 q 288 506 275 495 q 342 546 332 546 q 407 461 388 546 q 278 376 307 401 q 215 301 249 351 q 172 228 185 257 q 158 150 158 199 q 189 82 158 82 q 216 94 200 82 q 240 121 232 106 q 235 162 235 139 q 256 241 235 204 q 307 299 277 278 q 361 321 337 321 q 393 307 377 321 q 408 258 408 293 q 394 188 408 224 q 358 125 380 151 q 392 114 378 114 q 447 144 421 114 q 469 158 461 158 q 479 151 476 158 l 479 132 q 442 70 470 99 q 379 42 413 42 q 300 62 331 42 q 188 0 232 0 q 117 53 150 0 q 85 175 85 106 q 118 311 85 250 z "},"ý":{"ha":546,"x_min":0,"x_max":526,"o":"m 328 225 q 416 310 373 260 q 458 390 458 359 q 443 418 458 410 q 410 426 428 426 q 318 404 375 426 q 228 363 253 378 q 184 333 203 348 q 150 318 165 318 q 112 354 141 318 q 82 407 82 390 q 137 449 82 417 q 217 490 193 480 q 404 540 325 540 q 500 487 473 540 q 526 379 526 434 q 505 307 526 347 q 431 199 483 267 q 494 188 464 188 l 506 188 q 508 182 508 185 q 487 142 508 167 q 446 118 467 118 q 376 135 430 118 q 253 35 323 78 q 129 -7 184 -7 q 52 19 103 -7 q 0 68 0 44 q 39 126 0 85 q 86 167 78 167 q 108 154 96 167 q 130 135 120 142 q 161 128 140 128 q 256 165 197 128 q 211 176 235 165 q 180 201 186 188 l 180 227 q 195 268 184 246 q 213 289 205 289 q 227 278 219 289 q 250 257 234 267 q 328 225 282 236 z "},"þ":{"ha":743,"x_min":0,"x_max":743,"o":"m 250 210 q 217 179 240 200 q 165 127 185 151 q 111 53 145 104 q 56 0 76 0 q 18 27 35 0 q 0 131 0 55 q 56 294 0 229 q 75 321 64 303 q 135 394 96 352 q 214 437 171 435 l 231 437 q 264 411 264 437 q 240 372 264 400 q 225 356 233 365 q 207 336 217 346 q 185 310 195 322 q 173 296 180 303 q 156 276 167 289 q 99 199 99 216 q 108 151 99 173 q 294 325 181 229 q 375 405 323 361 q 484 480 427 449 q 585 511 541 511 q 637 496 612 511 q 661 468 661 481 q 659 447 661 461 q 654 433 656 444 q 699 357 699 419 q 692 308 699 334 q 640 186 676 243 q 636 175 636 180 q 645 158 636 165 q 667 151 654 151 q 702 164 683 151 q 728 176 722 176 q 743 167 743 176 q 718 134 743 154 q 655 99 694 114 q 575 85 616 85 q 393 -17 492 -17 q 281 47 312 -17 q 250 183 250 111 l 250 210 m 528 126 q 512 185 512 158 q 536 280 512 217 q 558 332 545 306 q 571 367 571 359 q 553 380 571 380 q 481 346 527 380 q 407 279 435 311 q 355 216 372 241 q 337 161 337 191 q 357 85 337 102 q 407 68 376 68 q 528 126 462 68 z "},"ÿ":{"ha":589,"x_min":-97,"x_max":589,"o":"m 382 282 q 459 311 430 295 q 510 343 489 327 q 539 360 532 360 q 543 343 543 360 l 543 319 q 537 274 542 284 q 507 249 532 264 q 419 133 419 194 q 450 104 419 104 q 535 146 473 104 q 574 165 565 165 q 589 147 589 165 q 543 95 589 131 q 442 29 498 59 q 361 0 387 0 q 297 44 308 0 l 297 82 q 361 213 308 150 q 336 198 349 205 q 315 187 323 190 q 301 182 306 184 q 105 -60 186 7 q -39 -128 24 -128 q -79 -122 -61 -128 q -97 -107 -97 -116 q -68 -36 -97 -80 q -11 35 -31 17 q 35 14 6 14 q 111 52 71 14 q 211 158 151 91 q 99 129 148 129 q 64 132 75 129 q 45 146 53 134 q 34 182 37 157 q 31 253 31 207 q 162 439 31 325 q 261 511 210 480 q 353 558 312 542 q 417 574 394 574 q 467 539 456 574 q 478 436 478 504 q 457 367 478 400 q 382 282 436 334 m 293 261 q 393 413 393 370 q 361 431 393 431 q 259 403 317 431 q 159 339 201 376 q 117 278 117 302 q 168 246 117 246 q 293 261 251 246 z "}}}
